<?xml version="1.0" encoding="UTF-8"?> <svg xmlns="http://www.w3.org/2000/svg" id="Layer_1" viewBox="0 0 84 84"><defs><style>.cls-1{fill:#010101;}</style></defs><path class="cls-1" d="M42.63,83.09c-.02-.55,.42-1.01,.97-1.03h0c.55-.02,1.01,.42,1.03,.97h0c.02,.55-.41,1.01-.97,1.03h-.03c-.54,0-.98-.43-1-.97Zm-4.33,.8c-.55-.05-.95-.54-.9-1.09h0c.05-.55,.54-.95,1.09-.9h0c.55,.05,.95,.54,.9,1.09h0c-.05,.52-.48,.91-.99,.91h0s-.06,0-.1,0Zm9.56-1.18c-.09-.54,.28-1.06,.83-1.15h0c.55-.09,1.06,.28,1.15,.83h0c.09,.55-.28,1.06-.83,1.15h0c-.05,0-.11,.01-.16,.01h0c-.48,0-.91-.35-.99-.84Zm-14.86,.33c-.54-.12-.88-.66-.76-1.2h0c.12-.54,.66-.88,1.2-.75h0c.54,.12,.88,.66,.76,1.19h0c-.1,.47-.52,.78-.97,.78h0c-.07,0-.15,0-.22-.03Zm19.99-1.37c-.16-.53,.14-1.09,.67-1.24h0c.53-.16,1.09,.14,1.24,.67h0c.16,.53-.14,1.09-.67,1.24h0c-.1,.03-.19,.04-.29,.04h0c-.43,0-.83-.28-.96-.71Zm-25.14-.15c-.52-.19-.79-.76-.6-1.28h0c.19-.52,.77-.78,1.28-.59h0c.52,.19,.78,.77,.59,1.28h0c-.15,.41-.53,.66-.94,.66h0c-.11,0-.23-.02-.34-.06Zm30.1-1.55c-.22-.51,0-1.1,.51-1.32h0c.5-.22,1.1,0,1.32,.51h0c.22,.51,0,1.1-.51,1.32h0c-.13,.06-.27,.09-.41,.09h0c-.38,0-.75-.22-.92-.59Zm-35.02-.62c-.49-.26-.68-.86-.42-1.35h0c.26-.49,.86-.68,1.35-.43h0c.49,.26,.68,.86,.42,1.35h0c-.18,.34-.53,.54-.89,.54h0c-.16,0-.31-.04-.46-.11Zm39.71-1.69c-.29-.47-.14-1.09,.33-1.37h0c.47-.29,1.09-.14,1.37,.33h0c.29,.47,.14,1.09-.33,1.38h0c-.16,.1-.34,.14-.52,.14h0c-.34,0-.67-.17-.85-.48Zm-44.3-1.09c-.45-.32-.56-.94-.25-1.39h0c.32-.45,.94-.56,1.39-.25h0c.45,.32,.57,.94,.25,1.39h0c-.19,.28-.51,.43-.82,.43h0c-.2,0-.4-.06-.57-.18Zm48.67-1.81c-.34-.43-.28-1.06,.16-1.41h0c.43-.34,1.06-.28,1.41,.16h0c.34,.43,.28,1.06-.16,1.41h0c-.19,.15-.41,.22-.62,.22h0c-.29,0-.58-.13-.78-.38Zm-52.87-1.54c-.41-.37-.44-1-.07-1.41h0c.37-.41,1-.44,1.41-.07h0c.41,.37,.44,1,.07,1.41h0c-.2,.22-.47,.33-.74,.33h0c-.24,0-.48-.09-.67-.26Zm56.83-1.89c-.4-.39-.41-1.02-.02-1.42h0c.39-.4,1.02-.41,1.41-.02h0c.4,.39,.41,1.02,.02,1.41h0c-.2,.2-.46,.3-.72,.3h0c-.25,0-.5-.09-.69-.28Zm-60.57-1.96c-.36-.42-.31-1.05,.11-1.41h0c.42-.36,1.05-.31,1.41,.11h0c.36,.42,.31,1.05-.11,1.41h0c-.19,.16-.42,.24-.65,.24h0c-.28,0-.56-.12-.76-.35Zm64.06-1.95c-.44-.33-.53-.96-.2-1.4h0c.33-.44,.96-.53,1.4-.2h0c.44,.33,.53,.96,.2,1.4h0c-.2,.26-.5,.4-.8,.4h0c-.21,0-.42-.07-.6-.2Zm-67.28-2.34c-.3-.46-.17-1.08,.29-1.38h0c.46-.3,1.08-.17,1.38,.29h0c.3,.46,.17,1.08-.29,1.38h0c-.17,.11-.36,.16-.55,.16h0c-.33,0-.65-.16-.84-.45Zm70.25-1.98c-.48-.27-.65-.88-.38-1.36h0c.27-.48,.88-.65,1.36-.38h0c.48,.27,.65,.88,.38,1.36h0c-.18,.33-.52,.51-.87,.51h0c-.17,0-.34-.04-.49-.13ZM4.54,60.42c-.24-.5-.03-1.1,.46-1.34h0c.5-.24,1.1-.03,1.34,.46h0c.24,.5,.03,1.09-.46,1.33h0c-.14,.07-.29,.1-.44,.1h0c-.37,0-.73-.21-.9-.56Zm75.28-1.97c-.51-.21-.76-.79-.55-1.3h0c.21-.51,.79-.76,1.3-.55h0c.51,.21,.76,.79,.55,1.3h0c-.16,.39-.53,.62-.93,.62h0c-.12,0-.25-.02-.38-.07ZM2.52,55.45c-.18-.53,.11-1.09,.63-1.27h0c.52-.18,1.09,.11,1.27,.63h0c.17,.52-.11,1.09-.63,1.27h0c-.11,.04-.21,.05-.32,.05h0c-.42,0-.81-.27-.95-.68Zm79.08-1.94c-.54-.14-.85-.69-.72-1.22h0c.14-.53,.69-.85,1.22-.71h0c.53,.14,.85,.69,.71,1.22h0c-.12,.45-.52,.75-.97,.75h0c-.08,0-.17-.01-.25-.03ZM1.15,50.26h0c-.1-.54,.25-1.07,.79-1.17h0c.54-.11,1.07,.25,1.17,.79h0c.11,.54-.25,1.07-.79,1.17h0c-.06,.01-.13,.02-.19,.02h0c-.47,0-.89-.33-.98-.81Zm81.57-1.87c-.55-.07-.94-.57-.87-1.12h0c.07-.55,.57-.94,1.12-.87h0c.55,.07,.93,.57,.86,1.12h0c-.06,.51-.49,.87-.99,.87h0s-.08,0-.13,0ZM.46,44.94c-.04-.55,.38-1.03,.93-1.06h0c.55-.04,1.03,.38,1.06,.93h0c.04,.55-.38,1.03-.93,1.06h0s-.04,0-.07,0h0c-.52,0-.96-.41-1-.93Zm81.72-2.77s0-.05,0-.08h0s0-.06,0-.08h0c0-.55,.44-1,1-1h0c.55,0,1,.44,1,1h0s0,.06,0,.08h0s0,.05,0,.08h0c0,.55-.45,1-1,1h0c-.55,0-1-.45-1-1Zm2-.17h0ZM1.39,40.63c-.55-.03-.97-.51-.94-1.06h0c.03-.55,.51-.97,1.06-.94h0c.55,.03,.97,.51,.94,1.06h0c-.03,.53-.47,.94-1,.94h0s-.04,0-.06,0Zm80.44-3.72h0c-.07-.55,.31-1.05,.86-1.12h0c.55-.07,1.05,.31,1.12,.86h0c.07,.55-.31,1.05-.86,1.12h0s-.09,0-.13,0h0c-.49,0-.92-.37-.99-.87ZM1.91,35.42c-.54-.1-.9-.63-.79-1.17h0c.1-.54,.63-.9,1.17-.8h0c.54,.1,.9,.63,.79,1.17h0c-.09,.48-.51,.81-.98,.81h0c-.06,0-.12,0-.19-.02Zm78.93-3.52c-.14-.53,.18-1.08,.71-1.22h0c.53-.14,1.08,.17,1.22,.71h0c.14,.53-.18,1.08-.71,1.22h0c-.09,.02-.17,.03-.26,.03h0c-.44,0-.85-.29-.97-.74ZM3.1,30.32c-.52-.17-.81-.74-.64-1.26h0c.17-.53,.74-.81,1.26-.64h0c.53,.17,.81,.74,.64,1.26h0c-.14,.42-.53,.69-.95,.69h0c-.1,0-.21-.02-.31-.05Zm76.11-3.26c-.21-.51,.04-1.09,.55-1.31h0c.51-.21,1.09,.04,1.31,.55h0c.21,.51-.04,1.09-.55,1.31h0c-.12,.05-.25,.07-.38,.07h0c-.39,0-.77-.23-.93-.62ZM4.94,25.41c-.5-.24-.71-.84-.47-1.33h0c.24-.5,.84-.71,1.33-.47h0c.5,.24,.71,.84,.47,1.33h0c-.17,.36-.53,.57-.9,.57h0c-.15,0-.29-.03-.43-.1Zm72.04-2.94c-.27-.48-.1-1.09,.38-1.36h0c.48-.27,1.09-.1,1.36,.38h0c.27,.48,.1,1.09-.37,1.36h0c-.16,.09-.33,.13-.49,.13h0c-.35,0-.69-.18-.87-.51ZM7.4,20.77c-.46-.3-.59-.92-.3-1.38h0c.3-.46,.92-.6,1.38-.3h0c.46,.3,.59,.92,.29,1.38h0c-.19,.3-.51,.46-.84,.46h0c-.19,0-.38-.05-.54-.16Zm66.78-2.58c-.33-.44-.24-1.07,.2-1.4h0c.44-.33,1.07-.24,1.4,.2h0c.33,.44,.24,1.07-.2,1.4h0c-.18,.14-.39,.2-.6,.2h0c-.3,0-.6-.14-.8-.4Zm-63.75-1.7c-.42-.36-.47-.99-.12-1.41h0c.36-.42,.99-.47,1.41-.12h0c.42,.36,.47,.99,.12,1.41h0c-.2,.23-.48,.35-.76,.35h0c-.23,0-.46-.08-.65-.24Zm60.43-2.18c-.39-.4-.38-1.03,.02-1.41h0c.4-.39,1.03-.38,1.41,.02h0c.39,.39,.38,1.03-.02,1.41h0c-.19,.19-.45,.29-.7,.29h0c-.26,0-.52-.1-.72-.3Zm-56.88-1.69c-.37-.41-.34-1.04,.06-1.41h0c.41-.37,1.04-.34,1.41,.06h0c.37,.41,.34,1.04-.06,1.41h0c-.19,.17-.43,.26-.67,.26h0c-.27,0-.54-.11-.74-.33Zm53.08-1.74h0c-.43-.34-.51-.97-.16-1.41h0c.34-.43,.97-.51,1.41-.16h0c.43,.34,.51,.97,.16,1.41h0c-.2,.25-.49,.38-.78,.38h0c-.22,0-.44-.07-.62-.22Zm-49.08-1.64c-.32-.45-.21-1.08,.24-1.39h0c.45-.32,1.08-.21,1.39,.24h0c.32,.45,.21,1.08-.24,1.39h0c-.18,.12-.38,.18-.57,.18h0c-.32,0-.62-.15-.82-.43Zm44.88-1.28c-.47-.29-.63-.9-.34-1.37h0c.29-.47,.9-.62,1.37-.34h0c.47,.28,.63,.9,.34,1.37h0c-.19,.31-.52,.48-.86,.48h0c-.18,0-.35-.05-.52-.14Zm-40.48-1.56c-.26-.49-.07-1.09,.42-1.35h0c.49-.26,1.09-.07,1.35,.42h0c.26,.49,.07,1.09-.42,1.35h0c-.15,.08-.31,.11-.46,.11h0c-.36,0-.71-.19-.89-.53Zm35.94-.79c-.51-.22-.73-.81-.51-1.32h0c.22-.51,.81-.74,1.32-.51h0c.51,.22,.73,.81,.51,1.32h0c-.16,.38-.53,.6-.92,.6h0c-.13,0-.27-.03-.4-.08Zm-31.21-1.46c-.19-.52,.07-1.09,.59-1.29h0c.52-.19,1.09,.07,1.29,.59h0c.19,.52-.07,1.09-.59,1.29h0c-.11,.04-.23,.06-.35,.06h0c-.41,0-.79-.25-.94-.65Zm26.41-.29c-.53-.16-.83-.71-.68-1.24h0c.16-.53,.71-.83,1.24-.68h0c.53,.16,.83,.71,.68,1.24h0c-.13,.44-.53,.72-.96,.72h0c-.09,0-.19-.01-.28-.04Zm-21.43-1.34c-.12-.54,.21-1.07,.75-1.2h0c.54-.12,1.08,.21,1.2,.75h0c.12,.54-.21,1.07-.75,1.2h0c-.07,.02-.15,.03-.22,.03h0c-.46,0-.87-.31-.97-.78Zm16.44,.22c-.55-.09-.92-.6-.83-1.14h0c.09-.55,.6-.92,1.14-.83h0c.55,.09,.92,.6,.83,1.14h0c-.08,.49-.5,.84-.99,.84h0c-.05,0-.1,0-.16-.01Zm-11.29-1.19c-.05-.55,.35-1.04,.9-1.09h0c.55-.05,1.04,.35,1.09,.9h0c.05,.55-.35,1.04-.9,1.09h0s-.07,0-.1,0h0c-.51,0-.94-.39-.99-.9Zm6.2,.72c-.55-.02-.99-.48-.97-1.03h0c.02-.55,.48-.99,1.03-.97h0c.55,.02,.99,.47,.97,1.03h0c-.02,.54-.46,.97-1,.97h-.03Z"></path><path class="cls-1" d="M42.27,74c-17.55,0-31.83-14.28-31.83-31.83S24.72,10.35,42.27,10.35s31.83,14.28,31.83,31.83-14.28,31.83-31.83,31.83Zm0-62.15c-16.72,0-30.33,13.6-30.33,30.33s13.6,30.33,30.33,30.33,30.33-13.6,30.33-30.33-13.6-30.33-30.33-30.33Z"></path><g><path class="cls-1" d="M42.27,28.63c-.26,0-.52-.11-.71-.29-.19-.19-.29-.44-.29-.71s.11-.52,.29-.71c.37-.37,1.04-.37,1.42,0,.19,.19,.29,.44,.29,.71s-.11,.52-.29,.71c-.19,.19-.44,.29-.71,.29Z"></path><path class="cls-1" d="M41.27,51.87c0-.55,.45-1,1-1h0c.55,0,1,.45,1,1h0c0,.55-.45,1-1,1h0c-.55,0-1-.45-1-1Zm0-4.85c0-.55,.45-1,1-1h0c.55,0,1,.45,1,1h0c0,.55-.45,1-1,1h0c-.55,0-1-.45-1-1Zm0-4.85c0-.55,.45-1,1-1h0c.55,0,1,.45,1,1h0c0,.55-.45,1-1,1h0c-.55,0-1-.45-1-1Zm0-4.85c0-.55,.45-1,1-1h0c.55,0,1,.45,1,1h0c0,.55-.45,1-1,1h0c-.55,0-1-.45-1-1Zm0-4.85c0-.55,.45-1,1-1h0c.55,0,1,.45,1,1h0c0,.55-.45,1-1,1h0c-.55,0-1-.45-1-1Z"></path><path class="cls-1" d="M42.27,57.72c-.26,0-.52-.11-.71-.29s-.29-.44-.29-.71,.11-.52,.29-.71c.37-.37,1.04-.37,1.42,0,.19,.19,.29,.44,.29,.71s-.11,.52-.29,.71c-.19,.19-.45,.29-.71,.29Z"></path></g><g><path class="cls-1" d="M56.82,43.17c-.26,0-.52-.11-.71-.29-.19-.19-.29-.44-.29-.71s.11-.52,.29-.71c.37-.37,1.04-.37,1.41,0,.19,.19,.29,.44,.29,.71s-.11,.52-.29,.71c-.19,.19-.45,.29-.71,.29Z"></path><path class="cls-1" d="M50.97,42.17c0-.55,.45-1,1-1h0c.55,0,1,.45,1,1h0c0,.55-.45,1-1,1h0c-.55,0-1-.45-1-1Zm-4.85,0c0-.55,.45-1,1-1h0c.55,0,1,.45,1,1h0c0,.55-.45,1-1,1h0c-.55,0-1-.45-1-1Zm-9.7,0c0-.55,.45-1,1-1h0c.55,0,1,.45,1,1h0c0,.55-.45,1-1,1h0c-.55,0-1-.45-1-1Zm-4.85,0c0-.55,.45-1,1-1h0c.55,0,1,.45,1,1h0c0,.55-.45,1-1,1h0c-.55,0-1-.45-1-1Z"></path><path class="cls-1" d="M27.73,43.17c-.26,0-.52-.11-.71-.29-.19-.19-.29-.44-.29-.71s.11-.52,.29-.71c.37-.37,1.04-.37,1.41,0,.19,.19,.29,.44,.29,.71s-.11,.52-.29,.71c-.19,.19-.44,.29-.71,.29Z"></path></g></svg> 