<?xml version="1.0" encoding="UTF-8"?> <svg xmlns="http://www.w3.org/2000/svg" xmlns:xlink="http://www.w3.org/1999/xlink" width="174" height="174" viewBox="0 0 174 174"><defs><clipPath id="clip-path"><rect id="Rectangle_2567" data-name="Rectangle 2567" width="126.548" height="126.548" fill="#fff"></rect></clipPath></defs><g id="Group_3415" data-name="Group 3415" transform="translate(-1365 -1839)"><rect id="Rectangle_2568" data-name="Rectangle 2568" width="174" height="174" transform="translate(1365 1839)" fill="#242425"></rect><g id="Group_3414" data-name="Group 3414" transform="translate(1389 1863)"><g id="Group_3413" data-name="Group 3413" transform="translate(0 0.001)" clip-path="url(#clip-path)"><path id="Path_5897" data-name="Path 5897" d="M113.089,73.523c-.879-18.947-13.351-35.052-30.78-41.967L63.275,0,43.609,32.6H60.838V46.568L43.291,63.36,60.838,80.152V93.885C37.888,92.707,19.452,75,18.33,53.009A15.392,15.392,0,0,0,31.678,38.056c0-8.358-7.105-15.158-15.84-15.158S0,29.7,0,38.056A15.394,15.394,0,0,0,13.458,53.024C14.337,71.973,26.81,88.078,44.24,94.994l19.035,31.556,19.664-32.6H65.711v-13.8L83.257,63.36,65.711,46.568v-13.9c22.948,1.178,41.382,18.885,42.5,40.876A15.391,15.391,0,0,0,94.87,88.493c0,8.358,7.105,15.158,15.84,15.158s15.838-6.8,15.838-15.158a15.4,15.4,0,0,0-13.458-14.97M4.873,38.056A10.749,10.749,0,0,1,15.838,27.562,10.751,10.751,0,0,1,26.8,38.056a10.752,10.752,0,0,1-10.966,10.5,10.751,10.751,0,0,1-10.965-10.5m58.4-28.728L74.5,27.935H52.05Zm0,107.893L52.05,98.614H74.5Zm0-41.332L50.182,63.36,63.275,50.831,76.364,63.36Zm47.435,23.1a10.505,10.505,0,1,1,10.965-10.494,10.75,10.75,0,0,1-10.965,10.494" transform="translate(0 -0.001)" fill="#fff"></path></g></g></g></svg> 