<?xml version="1.0" encoding="UTF-8"?> <svg xmlns="http://www.w3.org/2000/svg" width="3101" height="1280" viewBox="0 0 3101 1280" fill="none"><path d="M1601.25 433.729H1459.42L1432.45 514.586H1346.44L1492.59 122.16H1567.55L1714.51 514.586H1628.49L1601.25 433.729ZM1481.26 368.235H1579.42L1530.07 221.344L1481.26 368.235ZM1834.5 151.269V222.962H1884.38V280.1H1834.5V425.643C1834.5 436.425 1836.57 444.151 1840.71 448.823C1844.84 453.494 1852.74 455.83 1864.43 455.83C1873.06 455.83 1880.7 455.202 1887.35 453.944V512.969C1872.07 517.641 1856.34 519.977 1840.16 519.977C1785.51 519.977 1757.65 492.396 1756.57 437.233V280.1H1713.97V222.962H1756.57V151.269H1834.5ZM1907.58 366.079C1907.58 337.15 1913.14 311.366 1924.29 288.725C1935.44 266.086 1951.44 248.567 1972.29 236.168C1993.32 223.77 2017.68 217.572 2045.37 217.572C2084.74 217.572 2116.83 229.61 2141.63 253.688C2166.61 277.765 2180.55 310.467 2183.43 351.794L2183.96 371.739C2183.96 416.48 2171.47 452.416 2146.48 479.549C2121.49 506.501 2087.97 519.977 2045.9 519.977C2003.84 519.977 1970.22 506.501 1945.06 479.549C1920.07 452.596 1907.58 415.941 1907.58 369.583V366.079ZM1985.5 371.739C1985.5 399.41 1990.72 420.612 2001.14 435.346C2011.57 449.9 2026.49 457.178 2045.9 457.178C2064.78 457.178 2079.52 449.99 2090.13 435.616C2100.73 421.062 2106.04 397.883 2106.04 366.079C2106.04 338.947 2100.73 317.924 2090.13 303.01C2079.52 288.097 2064.6 280.64 2045.37 280.64C2026.31 280.64 2011.57 288.097 2001.14 303.01C1990.72 317.744 1985.5 340.654 1985.5 371.739ZM2305.04 222.962L2307.47 255.574C2328.13 230.239 2356.09 217.572 2391.32 217.572C2428.89 217.572 2454.69 232.395 2468.71 262.042C2489.2 232.395 2518.42 217.572 2556.35 217.572C2587.99 217.572 2611.54 226.825 2627 245.332C2642.45 263.66 2650.19 291.331 2650.19 328.345V514.586H2571.99V328.615C2571.99 312.085 2568.75 300.045 2562.28 292.499C2555.81 284.772 2544.39 280.909 2528.04 280.909C2504.67 280.909 2488.49 292.05 2479.5 314.33L2479.77 514.586H2401.84V328.885C2401.84 311.994 2398.51 299.776 2391.86 292.229C2385.21 284.683 2373.89 280.909 2357.89 280.909C2335.78 280.909 2319.78 290.073 2309.89 308.401V514.586H2231.96V222.962H2305.04ZM2792.56 514.586H2714.36V222.962H2792.56V514.586ZM2709.78 147.495C2709.78 135.816 2713.64 126.203 2721.37 118.656C2729.28 111.109 2739.98 107.336 2753.46 107.336C2766.77 107.336 2777.37 111.109 2785.28 118.656C2793.19 126.203 2797.15 135.816 2797.15 147.495C2797.15 159.354 2793.1 169.057 2785.01 176.603C2777.1 184.15 2766.58 187.923 2753.46 187.923C2740.34 187.923 2729.73 184.15 2721.65 176.603C2713.73 169.057 2709.78 159.354 2709.78 147.495ZM2978.35 457.178C2992.73 457.178 3004.41 453.225 3013.4 445.319C3022.39 437.413 3027.06 426.901 3027.42 413.784H3100.5C3100.32 433.55 3094.92 451.698 3084.32 468.228C3073.72 484.58 3059.15 497.336 3040.63 506.501C3022.3 515.485 3001.98 519.977 2979.7 519.977C2937.99 519.977 2905.09 506.77 2881.01 480.357C2856.91 453.764 2844.87 417.109 2844.87 370.391V365.27C2844.87 320.35 2856.83 284.503 2880.73 257.73C2904.64 230.958 2937.45 217.572 2979.16 217.572C3015.65 217.572 3044.86 227.993 3066.79 248.836C3088.91 269.499 3100.14 297.081 3100.5 331.58H3027.42C3027.06 316.486 3022.39 304.268 3013.4 294.925C3004.41 285.402 2992.55 280.64 2977.81 280.64C2959.65 280.64 2945.9 287.288 2936.55 300.585C2927.39 313.702 2922.8 335.084 2922.8 364.731V372.817C2922.8 402.824 2927.39 424.385 2936.55 437.503C2945.72 450.619 2959.65 457.178 2978.35 457.178ZM1796.21 1041.69L1849.06 762.464H1929.68L1842.59 1154.89H1761.15L1697.25 892.372L1633.34 1154.89H1551.91L1464.81 762.464H1545.43L1598.56 1041.15L1663.27 762.464H1731.77L1796.21 1041.69ZM2128.41 1154.89C2124.82 1147.88 2122.21 1139.17 2120.6 1128.75C2101.72 1149.77 2077.18 1160.28 2046.99 1160.28C2018.4 1160.28 1994.67 1152.01 1975.8 1135.48C1957.1 1118.95 1947.75 1098.11 1947.75 1072.95C1947.75 1042.05 1959.16 1018.33 1982 1001.8C2005.01 985.267 2038.17 976.914 2081.5 976.73H2117.36V960.023C2117.36 946.547 2113.86 935.765 2106.85 927.677C2100.01 919.596 2089.14 915.548 2074.21 915.548C2061.09 915.548 2050.76 918.698 2043.21 924.983C2035.84 931.276 2032.15 939.901 2032.15 950.86H1954.22C1954.22 933.969 1959.44 918.337 1969.86 903.963C1980.29 889.59 1995.03 878.359 2014.09 870.27C2033.14 862.005 2054.53 857.876 2078.26 857.876C2114.22 857.876 2142.71 866.944 2163.74 885.093C2184.95 903.066 2195.56 928.398 2195.56 961.098V1087.51C2195.74 1115.17 2199.6 1136.11 2207.16 1150.3V1154.89H2128.41ZM2063.97 1100.71C2075.47 1100.71 2086.08 1098.2 2095.79 1093.17C2105.49 1087.96 2112.69 1081.04 2117.36 1072.41V1022.28H2088.24C2049.23 1022.28 2028.47 1035.76 2025.95 1062.71L2025.68 1067.29C2025.68 1077 2029.09 1084.99 2035.93 1091.28C2042.76 1097.57 2052.1 1100.71 2063.97 1100.71ZM2337.66 1154.89H2259.46V740.9H2337.66V1154.89ZM2484.35 1154.89H2406.15V740.9H2484.35V1154.89ZM2683.08 1160.28C2640.3 1160.28 2605.42 1147.16 2578.46 1120.93C2551.67 1094.69 2538.28 1059.75 2538.28 1016.08V1008.54C2538.28 979.247 2543.94 953.105 2555.27 930.105C2566.59 906.929 2582.59 889.141 2603.27 876.74C2624.12 864.162 2647.85 857.876 2674.45 857.876C2714.36 857.876 2745.73 870.454 2768.56 895.61C2791.57 920.759 2803.07 956.431 2803.07 1002.61V1034.41H2617.29C2619.8 1053.46 2627.35 1068.73 2639.94 1080.23C2652.7 1091.73 2668.79 1097.48 2688.21 1097.48C2718.23 1097.48 2741.69 1086.61 2758.59 1064.87L2796.87 1107.72C2785.19 1124.25 2769.37 1137.19 2749.42 1146.53C2729.46 1155.7 2707.35 1160.28 2683.08 1160.28ZM2674.18 920.942C2658.73 920.942 2646.14 926.153 2636.43 936.575C2626.9 946.996 2620.79 961.907 2618.1 981.315H2726.5V975.118C2726.14 957.867 2721.46 944.567 2712.48 935.228C2703.49 925.704 2690.72 920.942 2674.18 920.942ZM2940.87 791.572V863.264H2990.75V920.405H2940.87V1065.95C2940.87 1076.73 2942.93 1084.45 2947.07 1089.12C2951.2 1093.79 2959.12 1096.13 2970.8 1096.13C2979.42 1096.13 2987.07 1095.5 2993.72 1094.24V1153.27C2978.44 1157.94 2962.71 1160.28 2946.53 1160.28C2891.88 1160.28 2864.02 1132.7 2862.94 1077.54V920.405H2820.33V863.264H2862.94V791.572H2940.87Z" fill="#1F2843"></path><path fill-rule="evenodd" clip-rule="evenodd" d="M0 1280L394.514 199.644C444.575 73.5064 537.906 2.10657 661.982 0.0458832V0C662.907 0 663.831 0.00381458 664.753 0.0114364C665.675 0.00381458 666.599 0 667.525 0V0.0458832C791.6 2.10657 884.929 73.5064 934.991 199.644L1329.5 1280L1085.21 1195.08L748.202 272.194C727.687 221.148 704.009 202.773 664.753 201.962C625.499 202.773 601.82 221.148 581.307 272.194L244.297 1195.08L0 1280ZM836.413 868.624C836.413 962.992 760.594 1039.49 667.066 1039.49C573.541 1039.49 497.723 962.992 497.723 868.624C497.723 774.257 573.541 697.756 667.066 697.756C760.594 697.756 836.413 774.257 836.413 868.624Z" fill="url(#paint0_linear)"></path><mask id="mask0" maskUnits="userSpaceOnUse" x="0" y="0" width="1330" height="1280"><path fill-rule="evenodd" clip-rule="evenodd" d="M0 1280L394.514 199.644C444.575 73.5064 537.906 2.10657 661.982 0.0458832V0C662.907 0 663.831 0.00381458 664.753 0.0114364C665.675 0.00381458 666.599 0 667.525 0V0.0458832C791.6 2.10657 884.929 73.5064 934.991 199.644L1329.5 1280L1085.21 1195.08L748.202 272.194C727.687 221.148 704.009 202.773 664.753 201.962C625.499 202.773 601.82 221.148 581.307 272.194L244.297 1195.08L0 1280ZM836.413 868.624C836.413 962.992 760.594 1039.49 667.066 1039.49C573.541 1039.49 497.723 962.992 497.723 868.624C497.723 774.257 573.541 697.756 667.066 697.756C760.594 697.756 836.413 774.257 836.413 868.624Z" fill="white"></path></mask><g mask="url(#mask0)"> </g><defs><linearGradient id="paint0_linear" x1="0" y1="0" x2="0" y2="1280" gradientUnits="userSpaceOnUse"><stop stop-color="#42C1FD"></stop><stop offset="1" stop-color="#1F8EFA"></stop></linearGradient></defs></svg> 