<?xml version="1.0" encoding="UTF-8"?> <svg xmlns="http://www.w3.org/2000/svg" id="Layer_1" viewBox="0 0 80 80"><path d="M1.65,1.84V13.73H14.03V1.34H1.65v.5ZM13.03,12.73H2.65V2.34s10.38,0,10.38,0V12.73Z"></path><path d="M46.19,1.34h-12.38V13.73h12.38V1.34Zm-1,11.38h-10.38V2.34h10.38V12.73Z"></path><path d="M1.65,66.77v11.88H14.03v-12.38H1.65v.5Zm11.38,10.88H2.65v-10.38s10.38,0,10.38,0v10.38Z"></path><path d="M33.81,66.77v11.88h12.38v-12.38h-12.38v.5Zm11.38,10.88h-10.38v-10.38h10.38v10.38Z"></path><path d="M65.97,1.34V13.73h12.38V1.34h-12.38Zm11.38,11.38h-10.38V2.34h10.38V12.73Z"></path><path d="M65.97,66.77v11.88h12.38v-12.38h-12.38v.5Zm11.38,10.88h-10.38v-10.38h10.38v10.38Z"></path><path d="M12.93,18.56c.12,0,.23-.03,.33-.09,.07-.04,.14-.08,.2-.13,.14-.14,.22-.33,.22-.53s-.08-.39-.22-.53c-.14-.14-.33-.22-.53-.22s-.39,.08-.53,.22c-.14,.14-.22,.33-.22,.53s.08,.39,.22,.53c.14,.14,.33,.22,.53,.22Z"></path><path d="M32.13,56.64c-.37,.18-.52,.63-.34,1,.18,.37,.63,.52,1,.34h0c.37-.18,.52-.63,.34-1-.18-.37-.63-.52-1-.34Z"></path><path d="M29.96,52.25c-.37,.18-.52,.63-.34,1,.18,.37,.63,.52,1,.34,.37-.18,.52-.63,.34-1-.18-.37-.63-.52-1-.34Z"></path><path d="M27.79,47.86c-.37,.18-.52,.63-.34,1,.18,.37,.63,.52,1,.34,.37-.18,.52-.63,.34-1-.18-.37-.63-.52-1-.34Z"></path><path d="M25.62,43.47c-.37,.18-.52,.63-.34,1,.18,.37,.63,.52,1,.34,.37-.18,.52-.63,.34-1-.18-.37-.63-.52-1-.34Z"></path><path d="M21.28,34.69h0c-.37,.18-.52,.63-.34,1,.18,.37,.63,.52,1,.34,.37-.18,.52-.63,.34-1-.18-.37-.63-.52-1-.34Z"></path><path d="M19.11,30.3c-.37,.18-.52,.63-.34,1,.18,.37,.63,.52,1,.34h0c.37-.18,.52-.63,.34-1-.18-.37-.63-.52-1-.34Z"></path><path d="M14.77,21.52c-.37,.18-.52,.63-.34,1,.18,.37,.63,.52,1,.34,.37-.18,.52-.63,.34-1-.18-.37-.63-.52-1-.34Z"></path><path d="M17.6,27.26h0c.37-.18,.52-.63,.34-1-.18-.37-.63-.52-1-.34-.37,.18-.52,.63-.34,1,.18,.37,.63,.52,1,.34Z"></path><path d="M34.64,60.95c-.12,0-.23,.03-.33,.09-.07,.04-.14,.08-.2,.13-.14,.14-.22,.33-.22,.53s.08,.39,.22,.53c.14,.14,.33,.22,.53,.22s.39-.08,.53-.22c.14-.14,.22-.33,.22-.53s-.08-.39-.22-.53c-.14-.14-.33-.22-.53-.22Z"></path><path d="M45.69,17.06c-.2,0-.39,.08-.53,.22-.14,.14-.22,.33-.22,.53s.08,.39,.22,.53c.14,.14,.33,.22,.53,.22,.12,0,.23-.03,.33-.09,.07-.04,.14-.08,.2-.13,.14-.14,.22-.33,.22-.53s-.08-.39-.22-.53c-.14-.14-.33-.22-.53-.22Z"></path><path d="M54.04,34.69h0c-.37,.18-.52,.63-.34,1,.18,.37,.63,.52,1,.34,.37-.18,.52-.63,.34-1-.18-.37-.63-.52-1-.34Z"></path><path d="M51.87,30.3c-.37,.18-.52,.63-.34,1,.18,.37,.63,.52,1,.34h0c.37-.18,.52-.63,.34-1-.18-.37-.63-.52-1-.34Z"></path><path d="M47.53,21.52c-.37,.18-.52,.63-.34,1,.18,.37,.63,.52,1,.34,.37-.18,.52-.63,.34-1-.18-.37-.63-.52-1-.34Z"></path><path d="M58.39,43.47c-.37,.18-.52,.63-.34,1,.18,.37,.63,.52,1,.34,.37-.18,.52-.63,.34-1-.18-.37-.63-.52-1-.34Z"></path><path d="M60.56,47.86c-.37,.18-.52,.63-.34,1,.18,.37,.63,.52,1,.34,.37-.18,.52-.63,.34-1-.18-.37-.63-.52-1-.34Z"></path><path d="M50.37,27.26h0c.37-.18,.52-.63,.34-1-.18-.37-.63-.52-1-.34-.37,.18-.52,.63-.34,1,.18,.37,.63,.52,1,.34Z"></path><path d="M62.73,52.25c-.37,.18-.52,.63-.34,1,.18,.37,.63,.52,1,.34,.37-.18,.52-.63,.34-1-.18-.37-.63-.52-1-.34Z"></path><path d="M65.9,56.98c-.18-.37-.63-.52-1-.34-.37,.18-.52,.63-.34,1,.18,.37,.63,.52,1,.34h0c.37-.18,.52-.63,.34-1Z"></path><path d="M66.87,62.23c.14,.14,.33,.22,.53,.22s.39-.08,.53-.22c.14-.14,.22-.33,.22-.53s-.08-.39-.22-.53c-.14-.14-.33-.22-.53-.22-.12,0-.23,.03-.33,.09-.07,.04-.14,.08-.2,.13-.14,.14-.22,.33-.22,.53s.08,.39,.22,.53Z"></path><path d="M67.07,18.47c.1,.05,.21,.09,.33,.09,.2,0,.39-.08,.53-.22,.14-.14,.22-.33,.22-.53s-.08-.39-.22-.53c-.14-.14-.33-.22-.53-.22s-.39,.08-.53,.22c-.14,.14-.22,.33-.22,.53s.08,.39,.22,.53c.06,.06,.13,.1,.2,.13Z"></path><path d="M59.05,34.69c-.37-.18-.82-.03-1,.34-.18,.37-.03,.82,.34,1,.37,.18,.82,.03,1-.34,.18-.37,.03-.82-.34-1Z"></path><path d="M54.71,43.47c-.37-.18-.82-.03-1,.34-.18,.37-.03,.82,.34,1h0c.37,.18,.82,.03,1-.34,.18-.37,.03-.82-.34-1Z"></path><path d="M61.22,30.3c-.37-.18-.82-.03-1,.34-.18,.37-.03,.82,.34,1,.37,.18,.82,.03,1-.34,.18-.37,.03-.82-.34-1Z"></path><path d="M64.9,22.87c.37,.18,.82,.03,1-.34,.18-.37,.03-.82-.34-1h0c-.37-.18-.82-.03-1,.34-.18,.37-.03,.82,.34,1Z"></path><path d="M52.54,47.86h0c-.37-.18-.82-.03-1,.34-.18,.37-.03,.82,.34,1,.37,.18,.82,.03,1-.34,.18-.37,.03-.82-.34-1Z"></path><path d="M50.37,52.25h0c-.37-.18-.82-.03-1,.34-.18,.37-.03,.82,.34,1,.37,.18,.82,.03,1-.34,.18-.37,.03-.82-.34-1Z"></path><path d="M48.2,56.64c-.37-.18-.82-.03-1,.34-.18,.37-.03,.82,.34,1,.37,.18,.82,.03,1-.34,.18-.37,.03-.82-.34-1Z"></path><path d="M63.39,25.91h0c-.37-.18-.82-.03-1,.34-.18,.37-.03,.82,.34,1h0c.37,.18,.82,.03,1-.34,.18-.37,.03-.82-.34-1Z"></path><path d="M57.23,39.47s0-.03-.01-.05c-.01-.03-.04-.04-.05-.07-.03-.04-.06-.09-.09-.12-.04-.04-.08-.06-.12-.09-.03-.02-.04-.04-.07-.06-.02,0-.03,0-.05-.01-.05-.02-.1-.03-.15-.04-.05,0-.09-.02-.14-.02-.05,0-.09,0-.14,.02-.05,0-.1,.02-.15,.04-.02,0-.03,0-.05,.01h0s-.05,.04-.07,.06c-.04,.03-.08,.06-.12,.09-.04,.04-.07,.08-.09,.12-.02,.03-.04,.04-.05,.07,0,.02,0,.03-.01,.05-.02,.05-.03,.1-.04,.15,0,.04-.02,.09-.02,.13,0,.05,0,.09,.02,.14,0,.05,.02,.1,.04,.15,0,.02,0,.03,.01,.05,.01,.03,.04,.05,.06,.07,.03,.04,.06,.08,.09,.12,.04,.04,.08,.07,.12,.09,.03,.02,.04,.04,.07,.05,.02,0,.03,0,.05,.01,.05,.02,.1,.03,.15,.04,.05,0,.09,.02,.14,.02,.05,0,.09,0,.14-.02,.05,0,.1-.02,.15-.04,.02,0,.03,0,.05-.01h0s.05-.04,.07-.05c.04-.03,.09-.06,.12-.09,.04-.04,.06-.08,.09-.12,.02-.03,.04-.04,.06-.07,0-.02,0-.03,.01-.05,.02-.05,.03-.1,.04-.15,0-.05,.02-.09,.02-.14s0-.09-.02-.13c0-.05-.02-.1-.04-.15Z"></path><path d="M46.02,61.04c-.1-.05-.21-.09-.33-.09-.2,0-.39,.08-.53,.22-.14,.14-.22,.33-.22,.53s.08,.39,.22,.53c.14,.14,.33,.22,.53,.22s.39-.08,.53-.22c.14-.14,.22-.33,.22-.53s-.08-.39-.22-.53c-.06-.06-.13-.1-.2-.13Z"></path><path d="M35.17,17.28c-.14-.14-.33-.22-.53-.22s-.39,.08-.53,.22c-.14,.14-.22,.33-.22,.53s.08,.39,.22,.53c.06,.06,.13,.1,.2,.13,.1,.05,.21,.09,.33,.09,.2,0,.39-.08,.53-.22,.14-.14,.22-.33,.22-.53s-.08-.39-.22-.53Z"></path><path d="M21.95,43.47c-.37-.18-.82-.03-1,.34-.18,.37-.03,.82,.34,1h0c.37,.18,.82,.03,1-.34,.18-.37,.03-.82-.34-1Z"></path><path d="M15.43,56.64c-.37-.18-.82-.03-1,.34-.18,.37-.03,.82,.34,1,.37,.18,.82,.03,1-.34,.18-.37,.03-.82-.34-1Z"></path><path d="M17.6,52.25h0c-.37-.18-.82-.03-1,.34-.18,.37-.03,.82,.34,1,.37,.18,.82,.03,1-.34,.18-.37,.03-.82-.34-1Z"></path><path d="M19.77,47.86h0c-.37-.18-.82-.03-1,.34-.18,.37-.03,.82,.34,1,.37,.18,.82,.03,1-.34,.18-.37,.03-.82-.34-1Z"></path><path d="M28.46,30.3c-.37-.18-.82-.03-1,.34-.18,.37-.03,.82,.34,1,.37,.18,.82,.03,1-.34,.18-.37,.03-.82-.34-1Z"></path><path d="M26.29,34.69c-.37-.18-.82-.03-1,.34-.18,.37-.03,.82,.34,1,.37,.18,.82,.03,1-.34,.18-.37,.03-.82-.34-1Z"></path><path d="M30.63,25.91h0c-.37-.18-.82-.03-1,.34-.18,.37-.03,.82,.34,1h0c.37,.18,.82,.03,1-.34,.18-.37,.03-.82-.34-1Z"></path><path d="M32.8,21.52h0c-.37-.18-.82-.03-1,.34-.18,.37-.03,.82,.34,1,.37,.18,.82,.03,1-.34,.18-.37,.03-.82-.34-1Z"></path><path d="M24.47,39.47s0-.03-.01-.05c-.01-.03-.04-.04-.05-.07-.03-.04-.06-.09-.09-.12-.04-.04-.08-.06-.12-.09-.03-.02-.04-.04-.07-.06-.02,0-.03,0-.05-.01-.05-.02-.1-.03-.15-.04-.05,0-.09-.02-.14-.02-.05,0-.09,0-.14,.02-.05,0-.1,.02-.15,.04-.02,0-.03,0-.05,.01h0s-.05,.04-.07,.06c-.04,.03-.08,.06-.12,.09-.04,.04-.07,.08-.09,.12-.02,.03-.04,.04-.05,.07,0,.02,0,.03-.01,.05-.02,.05-.03,.1-.04,.15,0,.04-.02,.09-.02,.13,0,.05,0,.09,.02,.14,0,.05,.02,.1,.04,.15,0,.02,0,.03,.01,.05,.01,.03,.04,.05,.06,.07,.03,.04,.06,.08,.09,.12,.04,.04,.08,.07,.12,.09,.03,.02,.04,.04,.07,.05,.02,0,.03,0,.05,.01,.05,.02,.1,.03,.15,.04,.05,0,.09,.02,.14,.02,.05,0,.09,0,.14-.02,.05,0,.1-.02,.15-.04,.02,0,.03,0,.05-.01h0s.05-.04,.07-.05c.04-.03,.09-.06,.12-.09,.04-.04,.06-.08,.09-.12,.02-.03,.04-.04,.06-.07,0-.02,0-.03,.01-.05,.02-.05,.03-.1,.04-.15,0-.05,.02-.09,.02-.14s0-.09-.02-.13c0-.05-.02-.1-.04-.15Z"></path><path d="M12.4,62.23c.14,.14,.33,.22,.53,.22s.39-.08,.53-.22c.14-.14,.22-.33,.22-.53s-.08-.39-.22-.53c-.06-.06-.13-.1-.2-.13-.1-.05-.21-.09-.33-.09-.2,0-.39,.08-.53,.22-.14,.14-.22,.33-.22,.53s.08,.39,.22,.53Z"></path></svg> 