<?xml version="1.0" encoding="UTF-8"?> <svg xmlns="http://www.w3.org/2000/svg" id="Layer_1" viewBox="0 0 110.84 83.06"><defs><style>.cls-1{fill:#010101;}</style></defs><rect class="cls-1" x="17.35" y="12.95" width="1.5" height="57.87" transform="translate(-14.65 10.11) rotate(-22.49)"></rect><rect class="cls-1" x="91.3" y="13.68" width="1.5" height="57.87" transform="translate(-9.21 36.58) rotate(-21.43)"></rect><polygon class="cls-1" points="72.4 70.28 71.34 69.22 65.17 75.39 39.76 75.39 39.76 76.89 65.27 76.89 71.44 83.06 72.5 81.99 67.39 76.89 97.63 76.89 97.63 75.39 67.29 75.39 72.4 70.28"></polygon><path class="cls-1" d="M9.41,9.09c0-2.59-2.11-4.71-4.71-4.71S0,6.5,0,9.09s2.11,4.71,4.71,4.71,4.71-2.11,4.71-4.71Zm-4.71,3.21c-1.77,0-3.21-1.44-3.21-3.21s1.44-3.21,3.21-3.21,3.21,1.44,3.21,3.21-1.44,3.21-3.21,3.21Z"></path><path class="cls-1" d="M78.74,13.8c2.59,0,4.71-2.11,4.71-4.71s-2.11-4.71-4.71-4.71-4.71,2.11-4.71,4.71,2.11,4.71,4.71,4.71Zm0-7.91c1.77,0,3.21,1.44,3.21,3.21s-1.44,3.21-3.21,3.21-3.21-1.44-3.21-3.21,1.44-3.21,3.21-3.21Z"></path><path class="cls-1" d="M32.1,71.43c-2.59,0-4.71,2.11-4.71,4.71s2.11,4.71,4.71,4.71,4.71-2.11,4.71-4.71-2.11-4.71-4.71-4.71Zm0,7.91c-1.77,0-3.21-1.44-3.21-3.21s1.44-3.21,3.21-3.21,3.21,1.44,3.21,3.21-1.44,3.21-3.21,3.21Z"></path><path class="cls-1" d="M106.13,71.43c-2.59,0-4.71,2.11-4.71,4.71s2.11,4.71,4.71,4.71,4.71-2.11,4.71-4.71-2.11-4.71-4.71-4.71Zm0,7.91c-1.77,0-3.21-1.44-3.21-3.21s1.44-3.21,3.21-3.21,3.21,1.44,3.21,3.21-1.44,3.21-3.21,3.21Z"></path><polygon class="cls-1" points="69.89 7.67 69.89 6.17 44.48 6.17 38.31 0 37.25 1.06 42.35 6.17 12.02 6.17 12.02 7.67 42.25 7.67 37.15 12.77 38.21 13.84 44.38 7.67 69.89 7.67"></polygon><path class="cls-1" d="M12.02,14.05c.26,0,.52-.11,.71-.29,.19-.19,.29-.44,.29-.71s-.11-.52-.29-.71c-.37-.37-1.04-.37-1.42,0-.05,.04-.09,.1-.12,.15-.04,.05-.07,.11-.09,.17-.02,.06-.04,.12-.06,.19-.01,.06-.02,.13-.02,.19,0,.26,.11,.52,.29,.71,.19,.19,.45,.29,.71,.29Z"></path><path class="cls-1" d="M27.32,23.46c.31-.46,.19-1.08-.26-1.39-.46-.31-1.08-.19-1.39,.26-.31,.46-.19,1.08,.26,1.39,.17,.12,.37,.17,.56,.17,.32,0,.63-.15,.83-.44Z"></path><path class="cls-1" d="M22.49,20.18c.31-.46,.19-1.08-.26-1.39-.46-.31-1.08-.19-1.39,.26-.31,.46-.19,1.08,.27,1.39,.17,.12,.37,.17,.56,.17,.32,0,.63-.15,.83-.44Z"></path><path class="cls-1" d="M32.14,26.75c.31-.46,.19-1.08-.26-1.39-.46-.31-1.08-.19-1.39,.26-.31,.46-.19,1.08,.26,1.39,.17,.12,.37,.17,.56,.17,.32,0,.63-.15,.83-.44Z"></path><path class="cls-1" d="M69.08,51.91c-.31,.46-.19,1.08,.26,1.39,.17,.12,.37,.17,.56,.17,.32,0,.63-.15,.83-.44,.31-.46,.19-1.08-.26-1.39s-1.08-.19-1.39,.26Z"></path><path class="cls-1" d="M73.91,55.19c-.31,.46-.19,1.08,.26,1.39,.17,.12,.37,.17,.56,.17,.32,0,.63-.15,.83-.44,.31-.46,.19-1.08-.26-1.39-.46-.31-1.08-.19-1.39,.26Z"></path><path class="cls-1" d="M83.56,61.76c-.31,.46-.19,1.08,.26,1.39,.17,.12,.37,.17,.56,.17,.32,0,.63-.15,.83-.44,.31-.46,.19-1.08-.26-1.39-.46-.31-1.08-.19-1.39,.26Z"></path><path class="cls-1" d="M78.73,58.48c-.31,.46-.19,1.08,.26,1.39,.17,.12,.37,.17,.56,.17,.32,0,.63-.15,.83-.44,.31-.46,.19-1.08-.26-1.39-.46-.31-1.08-.19-1.39,.26Z"></path><path class="cls-1" d="M17.67,16.89c.31-.46,.19-1.08-.26-1.39-.46-.31-1.08-.19-1.39,.26-.31,.46-.19,1.08,.26,1.39,.17,.12,.37,.17,.56,.17,.32,0,.63-.15,.83-.44Z"></path><path class="cls-1" d="M45.79,37.04c.32,0,.63-.15,.83-.44,.31-.46,.19-1.08-.26-1.39-.46-.31-1.08-.19-1.39,.27-.31,.46-.19,1.08,.26,1.39,.17,.12,.37,.17,.56,.17Z"></path><path class="cls-1" d="M60.26,46.9c.32,0,.63-.15,.83-.44,.31-.46,.19-1.08-.26-1.39-.46-.31-1.08-.19-1.39,.26-.31,.46-.19,1.08,.26,1.39,.17,.12,.37,.17,.56,.17Z"></path><path class="cls-1" d="M50.61,40.33c.32,0,.63-.15,.83-.44,.31-.46,.19-1.08-.26-1.39-.46-.31-1.08-.19-1.39,.26-.31,.46-.19,1.08,.26,1.39,.17,.12,.37,.17,.56,.17Z"></path><path class="cls-1" d="M41.53,31.93c-.46-.31-1.08-.19-1.39,.26-.31,.46-.19,1.08,.26,1.39,.17,.12,.37,.17,.56,.17,.32,0,.63-.15,.83-.44,.31-.46,.19-1.08-.26-1.39Z"></path><path class="cls-1" d="M54.61,42.05c-.31,.46-.19,1.08,.27,1.39,.17,.12,.37,.17,.56,.17,.32,0,.63-.15,.83-.44,.31-.46,.19-1.08-.26-1.39-.46-.31-1.08-.19-1.39,.26Z"></path><path class="cls-1" d="M93.21,68.33c-.31,.46-.19,1.08,.26,1.39,.17,.12,.37,.17,.56,.17,.32,0,.63-.15,.83-.44,.31-.46,.19-1.08-.26-1.39-.46-.31-1.08-.19-1.39,.26Z"></path><path class="cls-1" d="M65.08,50.18c.32,0,.63-.15,.83-.44,.31-.46,.19-1.08-.27-1.39-.46-.31-1.08-.19-1.39,.26-.31,.46-.19,1.08,.26,1.39,.17,.12,.37,.17,.56,.17Z"></path><path class="cls-1" d="M36.14,30.47c.32,0,.64-.15,.83-.44,.31-.46,.19-1.08-.26-1.39-.46-.31-1.08-.19-1.39,.26-.31,.46-.19,1.08,.26,1.39,.17,.12,.37,.17,.56,.17Z"></path><path class="cls-1" d="M88.38,65.05c-.31,.46-.19,1.08,.27,1.39,.17,.12,.37,.17,.56,.17,.32,0,.63-.15,.83-.44,.31-.46,.19-1.08-.26-1.39-.46-.31-1.08-.19-1.39,.26Z"></path><path class="cls-1" d="M98.15,71.48c-.19,.19-.29,.44-.29,.71s.11,.52,.29,.71c.19,.19,.44,.29,.71,.29s.52-.11,.71-.29c.19-.19,.29-.45,.29-.71s-.11-.52-.29-.71c-.37-.37-1.04-.37-1.41,0Z"></path><path class="cls-1" d="M35.56,68.98c-.31,.46-.2,1.08,.26,1.39,.17,.12,.37,.17,.56,.17,.32,0,.63-.15,.83-.43,.31-.46,.2-1.08-.26-1.39-.45-.31-1.08-.2-1.39,.26Z"></path><path class="cls-1" d="M40.35,65.62c.31-.46,.2-1.08-.26-1.39-.45-.31-1.08-.2-1.39,.26s-.2,1.08,.26,1.39c.17,.12,.37,.18,.56,.18,.32,0,.63-.15,.83-.43Z"></path><path class="cls-1" d="M42.67,61.57c.32,0,.63-.15,.83-.43,.31-.46,.2-1.08-.26-1.39-.46-.31-1.08-.2-1.39,.26s-.2,1.08,.26,1.39c.17,.12,.37,.17,.56,.17Z"></path><path class="cls-1" d="M45.82,57.08c.32,0,.63-.15,.83-.43,.31-.46,.2-1.08-.26-1.39-.46-.31-1.08-.2-1.39,.26-.31,.46-.2,1.08,.26,1.39,.17,.12,.37,.17,.56,.17Z"></path><path class="cls-1" d="M48.14,51.03c-.31,.46-.2,1.08,.26,1.39,.17,.12,.37,.17,.56,.17,.32,0,.63-.15,.83-.43,.31-.46,.2-1.08-.26-1.39-.46-.31-1.08-.2-1.39,.26Z"></path><path class="cls-1" d="M52.11,48.1c.32,0,.63-.15,.83-.43,.31-.46,.2-1.08-.26-1.39-.46-.31-1.08-.2-1.39,.26-.31,.46-.2,1.08,.26,1.39,.17,.12,.37,.17,.56,.17Z"></path><path class="cls-1" d="M57.58,37.56c-.31,.46-.2,1.08,.26,1.39,.17,.12,.37,.17,.56,.17,.32,0,.63-.15,.83-.43,.31-.46,.2-1.08-.26-1.39-.46-.31-1.08-.2-1.39,.26Z"></path><path class="cls-1" d="M62.37,34.2c.31-.46,.2-1.08-.26-1.39-.46-.31-1.08-.2-1.39,.26-.31,.46-.2,1.08,.26,1.39,.17,.12,.37,.17,.56,.17,.32,0,.63-.15,.83-.43Z"></path><path class="cls-1" d="M65.52,29.71c.31-.46,.2-1.08-.26-1.39-.45-.31-1.08-.19-1.39,.26-.31,.46-.2,1.08,.26,1.39,.17,.12,.37,.17,.56,.17,.32,0,.63-.15,.83-.43Z"></path><path class="cls-1" d="M67.01,24.09c-.31,.46-.2,1.08,.26,1.39,.17,.12,.37,.17,.56,.17,.32,0,.63-.15,.83-.43,.31-.46,.2-1.08-.26-1.39-.46-.31-1.08-.2-1.39,.26Z"></path><path class="cls-1" d="M70.98,21.17c.32,0,.63-.15,.83-.43,.31-.46,.2-1.08-.26-1.39-.45-.31-1.08-.2-1.39,.26-.31,.46-.2,1.08,.26,1.39,.17,.12,.37,.17,.56,.17Z"></path><path class="cls-1" d="M74.12,16.68c.32,0,.63-.15,.83-.43,.31-.46,.19-1.08-.26-1.39-.45-.31-1.08-.19-1.39,.26-.31,.46-.2,1.08,.26,1.39,.17,.12,.37,.17,.56,.17Z"></path></svg> 