<?xml version="1.0" encoding="UTF-8"?> <svg xmlns="http://www.w3.org/2000/svg" id="Layer_1" viewBox="0 0 84 84"><defs><style>.cls-1{fill:#010101;}</style></defs><path class="cls-1" d="M42.56,47.29c-.04-.55,.38-1.03,.93-1.07h0c.55-.04,1.03,.38,1.07,.93h0c.04,.55-.38,1.03-.93,1.07h0s-.05,0-.07,0h0c-.52,0-.96-.4-1-.93Zm-4.53,.49c-.54-.12-.87-.66-.75-1.2h0c.12-.54,.66-.87,1.2-.75h0c.54,.12,.87,.66,.75,1.2h0c-.11,.46-.52,.78-.97,.78h0c-.07,0-.15,0-.22-.03Zm9.78-1.36c-.2-.51,.05-1.09,.57-1.29h0c.52-.2,1.09,.05,1.3,.57h0c.2,.51-.06,1.09-.57,1.29h0c-.12,.05-.24,.07-.36,.07h0c-.4,0-.78-.24-.93-.64Zm-15-.7c-.48-.28-.64-.89-.36-1.37h0c.28-.48,.89-.64,1.37-.36h0c.48,.28,.64,.89,.36,1.37h0c-.19,.32-.52,.5-.86,.5h0c-.17,0-.34-.04-.5-.14Zm19.76-1.69c-.34-.43-.27-1.06,.16-1.4h0c.43-.34,1.06-.27,1.41,.16h0c.34,.43,.27,1.06-.16,1.41h0c-.18,.15-.4,.22-.62,.22h0c-.29,0-.59-.13-.78-.38Zm-24.14-1.83c-.38-.41-.35-1.04,.06-1.41h0c.41-.38,1.04-.35,1.41,.06h0c.37,.41,.35,1.04-.06,1.41h0c-.19,.18-.44,.26-.68,.26h0c-.27,0-.54-.11-.73-.32Zm27.99-1.85c-.46-.31-.57-.94-.26-1.39h0c.31-.46,.94-.57,1.39-.26h0c.46,.31,.57,.93,.26,1.39h0c-.19,.28-.51,.43-.82,.43h0c-.2,0-.39-.06-.57-.18Zm-31.14-2.79c-.24-.5-.03-1.09,.47-1.33h0c.5-.24,1.09-.03,1.33,.47h0c.24,.5,.03,1.09-.47,1.33h0c-.14,.07-.29,.1-.43,.1h0c-.37,0-.73-.21-.9-.57Zm33.74-1.86c-.53-.17-.82-.73-.66-1.25h0c.17-.53,.73-.82,1.25-.66h0c.53,.17,.82,.73,.66,1.25h0c-.13,.43-.53,.7-.95,.7h0c-.1,0-.2-.02-.3-.05Zm-35.38-3.52c-.08-.55,.3-1.05,.84-1.14h0c.55-.08,1.05,.3,1.14,.84h0c.08,.55-.3,1.05-.84,1.14h0c-.05,0-.1,.01-.15,.01h0c-.49,0-.91-.36-.99-.85Zm36.48-1.69c-.55,0-1-.45-1-1h0v-.03h0v-.04h0c0-.55,.45-1,1-1h0c.55,0,1,.45,1,1h0s0,.03,0,.05h0v.03h0c0,.55-.45,1-1,1h0Zm-35.64-2.78c-.55-.08-.92-.59-.84-1.14h0c.08-.55,.59-.92,1.14-.84h0c.55,.08,.92,.59,.84,1.14h0c-.08,.49-.5,.85-.99,.85h0s-.1,0-.15-.01Zm33.9-3.26c-.16-.53,.13-1.09,.66-1.25h0c.53-.16,1.09,.13,1.25,.66h0c.16,.53-.13,1.09-.66,1.25h0c-.1,.03-.2,.04-.29,.04h0c-.43,0-.82-.28-.96-.71Zm-32.61-1.91c-.5-.24-.71-.84-.46-1.34h0c.24-.5,.84-.7,1.34-.46h0c.5,.24,.7,.84,.46,1.34h0c-.17,.36-.53,.56-.9,.56h0c-.15,0-.29-.03-.43-.1Zm30.43-2.61c-.31-.46-.19-1.08,.26-1.39h0c.46-.31,1.08-.19,1.39,.26h0c.31,.46,.19,1.08-.26,1.39h0c-.17,.12-.37,.17-.56,.17h0c-.32,0-.63-.15-.83-.44Zm-27.67-1.94c-.4-.38-.43-1.01-.05-1.41h0c.38-.41,1.01-.43,1.41-.05h0c.4,.38,.43,1.01,.05,1.41h0c-.2,.21-.46,.32-.73,.32h0c-.24,0-.49-.09-.68-.27Zm24.26-1.74h0c-.43-.34-.5-.97-.16-1.4h0c.34-.43,.97-.5,1.41-.16h0c.43,.34,.5,.97,.16,1.4h0c-.2,.25-.49,.38-.78,.38h0c-.22,0-.44-.07-.62-.22Zm-20.28-1.8c-.28-.48-.11-1.09,.37-1.36h0c.48-.28,1.09-.11,1.36,.37h0c.28,.48,.11,1.09-.37,1.37h0c-.16,.09-.33,.13-.5,.13h0c-.35,0-.68-.18-.87-.5Zm15.94-.71c-.51-.2-.77-.78-.56-1.3h0c.2-.51,.78-.77,1.3-.56h0c.51,.2,.77,.78,.56,1.3h0c-.16,.39-.53,.63-.93,.63h0c-.12,0-.25-.02-.37-.07Zm-11.09-1.51c-.12-.54,.22-1.07,.76-1.2h0c.54-.12,1.07,.22,1.2,.75h0c.12,.54-.22,1.07-.75,1.2h0c-.07,.02-.15,.02-.22,.02h0c-.46,0-.87-.31-.97-.78Zm6.2,.39c-.55-.04-.96-.52-.92-1.07h0c.04-.55,.52-.96,1.07-.92h0c.55,.04,.96,.52,.92,1.07h0c-.04,.53-.48,.93-1,.93h0s-.05,0-.08,0Z"></path><g><path class="cls-1" d="M78.52,29.85c-2.43-.21-4.67,1.46-5,3.71-.34,2.39-1.51,12.05-1.96,15.78-.54-.36-1.13-.6-1.77-.68-1.12-.14-2.26,.19-3.06,.87l-14.72,12.54c-4.7,4.01-5.35,8.21-5.35,12.15v7.14h1.5v-7.14c0-3.58,.58-7.4,4.83-11.01l14.72-12.54c.48-.41,1.21-.61,1.9-.52,.53,.06,1.29,.32,1.91,1.19,1.46,2.04-.25,3.61-.44,3.78l-10.72,9.13,.97,1.14,10.72-9.13c1-.86,2.41-3.08,.86-5.54,.23-1.94,1.71-14.24,2.1-16.96,.21-1.46,1.76-2.57,3.38-2.43,1.63,.14,2.81,1.81,2.71,3.1l-.15,1.79c-.42,5.12-1.39,17.1-1.46,19.04-.07,2-.42,4.86-2.63,6.66l-11.95,10.18-.19,.15c-.86,.7-2.87,2.33-2.87,5.27v3.83h1.5v-3.83c0-2.22,1.56-3.49,2.31-4.1l12.15-10.34c2.97-2.42,3.12-6.43,3.17-7.75,.07-1.91,1.08-14.31,1.46-18.97l.15-1.79c.16-2.05-1.55-4.49-4.08-4.71Z"></path><path class="cls-1" d="M31.99,62.07l-14.72-12.54c-.8-.68-1.94-1-3.06-.87-.64,.08-1.24,.32-1.77,.68-.45-3.73-1.62-13.39-1.96-15.78-.32-2.25-2.57-3.92-5-3.71-2.53,.22-4.24,2.67-4.08,4.71l.15,1.79c.38,4.67,1.39,17.07,1.46,18.97,.05,1.32,.19,5.34,3.15,7.74l11.95,10.18,.21,.18c.75,.61,2.31,1.88,2.31,4.1v3.83h1.5v-3.83c0-2.93-2.01-4.57-2.87-5.27l-12.15-10.34c-2.19-1.78-2.54-4.65-2.61-6.65-.07-1.94-1.05-13.92-1.46-19.04l-.15-1.79c-.1-1.29,1.08-2.96,2.71-3.1,1.62-.14,3.17,.97,3.38,2.43,.39,2.72,1.87,15.02,2.1,16.96-1.56,2.46-.15,4.68,.86,5.54l10.72,9.13,.97-1.14-10.72-9.13c-.2-.17-1.9-1.75-.45-3.79,.62-.87,1.38-1.13,1.91-1.19,.69-.08,1.42,.11,1.9,.52l14.72,12.54c4.24,3.61,4.83,7.43,4.83,11.01v7.14h1.5v-7.14c0-3.94-.65-8.15-5.35-12.15Z"></path></g><path class="cls-1" d="M42.83,28.27v-7.25c1.57,.15,2.79,.71,4.14,1.89l.28,.25,.84-.96-.28-.25c-1.47-1.29-3.06-1.97-4.99-2.13v-1.5h-1.23v1.49c-3.07,.15-5.26,2.08-5.26,4.75,0,2.98,2.49,4.03,5.26,4.69v7.56c-1.79-.25-3.51-1.11-4.88-2.46l-.27-.26-.91,.91,.27,.27c1.59,1.54,3.63,2.51,5.78,2.75v2.52h1.23v-2.46c3.34-.06,5.67-2.06,5.67-4.96,0-3.04-2.69-4.14-5.67-4.84Zm0,8.6v-7.32c3.29,.85,4.36,1.75,4.36,3.63,0,2.14-1.79,3.64-4.36,3.69Zm-1.23-15.86v6.93c-2.95-.77-3.96-1.66-3.96-3.41v-.05c0-1.92,1.65-3.34,3.96-3.47Z"></path></svg> 