<?xml version="1.0" encoding="UTF-8"?> <svg xmlns="http://www.w3.org/2000/svg" id="Layer_1" viewBox="0 0 84 84"><defs><style>.cls-1{fill:#010101;}</style></defs><path class="cls-1" d="M38.08,32.39c.12,0,.24-.02,.36-.07,.51-.2,.77-.78,.58-1.29-.2-.52-.78-.77-1.29-.58-.52,.2-.77,.78-.58,1.29,.15,.4,.53,.64,.93,.64Z"></path><path class="cls-1" d="M33.13,48.19c-.41,.37-.45,1-.08,1.41,.2,.22,.47,.34,.75,.34,.24,0,.47-.08,.66-.25,.41-.37,.45-1,.08-1.41-.37-.41-1-.45-1.41-.08Z"></path><path class="cls-1" d="M38.47,50.99c-.52-.2-1.09,.07-1.29,.58-.2,.52,.06,1.09,.58,1.29,.12,.04,.24,.06,.35,.06,.41,0,.79-.25,.94-.65,.19-.52-.07-1.09-.58-1.29Z"></path><path class="cls-1" d="M43.17,31.73h0s.08,0,.12,0c.5,0,.93-.38,.99-.88,.06-.55-.33-1.05-.88-1.11-.55-.06-1.05,.33-1.11,.88-.06,.55,.33,1.04,.88,1.11Z"></path><path class="cls-1" d="M31.09,40.01c.08,.02,.16,.03,.24,.03,.45,0,.86-.31,.97-.76,.13-.54-.2-1.08-.74-1.21-.54-.13-1.08,.2-1.21,.73h0c-.13,.54,.2,1.08,.73,1.21Z"></path><path class="cls-1" d="M33.76,35.38c.28,0,.55-.12,.75-.34,.37-.41,.33-1.05-.09-1.41-.41-.37-1.05-.33-1.41,.09-.37,.41-.33,1.04,.09,1.41,.19,.17,.43,.25,.66,.25Z"></path><path class="cls-1" d="M31.1,43.32c-.54,.13-.86,.67-.73,1.21,.11,.46,.52,.76,.97,.76,.08,0,.16,0,.24-.03,.54-.13,.86-.68,.73-1.21-.13-.54-.67-.86-1.21-.73Z"></path><path class="cls-1" d="M52.98,40.6c-.55,0-1,.45-1,1v.04c0,.55,.45,1,1,1s1-.45,1-1v-.05c0-.55-.45-1-1-1Z"></path><path class="cls-1" d="M51.71,37.51c.16,0,.32-.04,.47-.12,.49-.26,.67-.86,.42-1.35-.26-.49-.86-.67-1.35-.41-.49,.26-.67,.86-.42,1.35,.18,.34,.53,.53,.88,.53Z"></path><path class="cls-1" d="M52.19,45.86c-.49-.26-1.09-.07-1.35,.42h0c-.26,.49-.07,1.09,.42,1.35,.15,.08,.31,.11,.46,.11,.36,0,.71-.19,.89-.54,.26-.49,.07-1.09-.42-1.35Z"></path><path class="cls-1" d="M47.68,49.86c-.46,.31-.57,.94-.25,1.39,.19,.28,.51,.43,.82,.43,.2,0,.4-.06,.57-.18,.45-.31,.57-.94,.25-1.39-.31-.45-.94-.57-1.39-.25Z"></path><path class="cls-1" d="M48.21,33.58c.32,0,.63-.15,.83-.43,.31-.46,.2-1.08-.26-1.39-.46-.31-1.08-.2-1.39,.26-.31,.46-.2,1.08,.26,1.39,.17,.12,.37,.18,.56,.18Z"></path><path class="cls-1" d="M43.21,51.55c-.55,.07-.94,.56-.87,1.11,.06,.51,.49,.88,.99,.88,.04,0,.08,0,.12,0,.55-.07,.94-.56,.87-1.11-.07-.55-.56-.94-1.11-.87Z"></path><polygon class="cls-1" points="1.54 2.69 28.56 29.69 29.62 28.63 2.49 1.51 15.26 1.51 15.26 .01 .04 .01 .04 15 1.54 15 1.54 2.69"></polygon><polygon class="cls-1" points="28.65 54.36 1.54 81.48 1.54 68.71 .04 68.71 .04 83.93 15.03 83.93 15.03 82.43 2.72 82.43 29.72 55.42 28.65 54.36"></polygon><polygon class="cls-1" points="82.46 81.31 55.44 54.31 54.38 55.37 81.51 82.49 68.74 82.49 68.74 83.99 83.96 83.99 83.96 68.99 82.46 68.99 82.46 81.31"></polygon><polygon class="cls-1" points="68.97 .07 68.97 1.57 81.28 1.57 54.29 28.58 55.35 29.65 82.46 2.52 82.46 15.29 83.96 15.29 83.96 .07 68.97 .07"></polygon></svg> 