<?xml version="1.0" encoding="UTF-8"?> <svg xmlns="http://www.w3.org/2000/svg" xmlns:xlink="http://www.w3.org/1999/xlink" version="1.1" id="Layer_1" x="0px" y="0px" viewBox="0 0 61 61" style="enable-background:new 0 0 61 61;" xml:space="preserve"> <style type="text/css"> .st0{fill:#FFFFFF;} </style> <path id="Subtraction_18" class="st0" d="M61,61H0V0h61V61z M44.7,60.4L44.7,60.4L44.7,60.4C44.7,60.4,44.7,60.4,44.7,60.4 C44.7,60.4,44.7,60.4,44.7,60.4L44.7,60.4l0.8,0c0,0,0,0,0,0c0,0,0,0,0,0c0,0,0,0,0,0c0.1,0,0.1,0,0.1,0h0c0.1,0,0.2,0,0.3-0.1 c-1.8-3.7-3.6-7.4-5.3-10.8l-0.4,0.2c0,0-0.1-0.1-0.1-0.1c0,0,0,0,0,0c-0.4-0.9-0.8-1.7-1.3-2.6l-0.2-0.4l-0.2-0.4 c-0.1-0.3-0.3-0.5-0.4-0.8c0-0.1-0.1-0.1-0.1-0.1c0,0-0.1,0-0.1,0c-0.1,0-0.2,0.1-0.3,0.1l0,0l-0.1,0.1c0,0-0.1,0-0.1,0 c-0.1,0-0.1,0.1-0.2,0.1l0.8,1.6l0.1,0.2l1.2,2.5c-0.1,0-0.1,0.1-0.2,0.1c-0.1,0-0.2,0.1-0.2,0.1v0c0,0,0,0.1,0,0.1l1.8,3.7l0.1,0.2 l1.8,3.6c0.3,0.7,0.7,1.4,1,2.1l0,0c0,0.1,0.1,0.1,0.1,0.1l0.1,0c0.2,0.1,0.4,0.1,0.6,0.1C44.5,60.4,44.6,60.4,44.7,60.4 C44.6,60.4,44.7,60.4,44.7,60.4L44.7,60.4z M15.4,60.4L15.4,60.4C15.4,60.4,15.4,60.4,15.4,60.4C15.4,60.4,15.4,60.4,15.4,60.4 l0.8,0c0,0,0,0,0,0c0,0,0,0,0,0c0.2,0,0.4-0.1,0.6-0.1l0,0c0.2,0,0.3-0.2,0.4-0.3c0.9-1.8,1.8-3.6,2.6-5.4v0l0.7-1.4l0.9-1.8 l0.5-1.1l0,0l-0.4-0.2l1-2l0.5-1l0.2-0.4c0.1-0.3,0.3-0.6,0.4-0.9c0,0,0-0.1,0-0.1c0,0,0,0-0.1-0.1c-0.1,0-0.2-0.1-0.2-0.1l-0.1,0 l-0.4-0.2l0,0c0,0,0,0,0,0.1l-0.4,0.8c-0.3,0.6-0.6,1.3-1,1.9c-0.2,0.4-0.4,0.7-0.5,1.1l-0.2,0.4l-0.1,0h0l-0.2-0.1l0,0l-0.1-0.1 l-2.1,4.2l-3.3,6.6l0.1,0h0c0.1,0,0.1,0,0.2,0h0C15.2,60.4,15.2,60.4,15.4,60.4C15.3,60.4,15.3,60.4,15.4,60.4L15.4,60.4z M17.6,47.8L17.6,47.8L17.6,47.8L17.6,47.8c-0.1,0.1-0.1,0.1-0.1,0.1l-3.9,5.7l-0.8,1.2l-0.1,0.1L12.5,55l-1.4,2.1l0,0 c-0.1,0.1-0.1,0.1,0,0.2l0.1,0.1c0.4,0.4,0.8,0.8,1.1,1.1l0,0c0,0,0.1,0.1,0.1,0.1l3.3-4.7l3.4-5l-0.3-0.2l-0.1-0.1 c0.8-1.2,1.7-2.5,2.8-4l-0.2-0.1h0c-0.1-0.1-0.3-0.2-0.4-0.3l0,0c-0.1,0-0.1-0.1-0.1-0.1s0,0-0.1,0.1l0,0l0,0v0l0,0l-0.7,1l-0.1,0.1 L18,47.9c0,0,0,0,0,0c0,0-0.1,0.1-0.1,0.1l-0.2-0.2L17.6,47.8z M40.2,44L40.2,44l-0.4,0.3l-0.3,0.2l2.8,4l-0.3,0.2l0,0l-0.1,0.1 l4.3,6.2l0.1,0.1l2.4,3.4l1.4-1.4l-0.4-0.6l-6.1-8.8l-0.1,0.1l0,0L42.9,48l-0.3-0.5L40.2,44L40.2,44z M35.9,46.3 C35.8,46.3,35.8,46.3,35.9,46.3l-0.1,0l-0.1,0c-0.1,0-0.1,0-0.2,0.1c-0.1,0-0.1,0-0.2,0.1c-0.1,0-0.2,0.1-0.3,0.1l0,0c0,0,0,0,0,0.1 l0.5,1.7l0.5,1.7l0.1,0.3c0.1,0.2,0.1,0.4,0.2,0.7c0,0.1,0,0.1,0,0.1s0,0-0.1,0l-0.1,0l-0.1,0c-0.1,0-0.1,0-0.1,0.1s0,0.1,0,0.1 l0.2,0.6l0,0c0.1,0.4,0.3,0.8,0.4,1.2c0,0.1,0.1,0.2,0.2,0.3c0.9,0.9,1.8,1.8,2.6,2.6c0,0,0.1,0.1,0.1,0.1c0,0,0,0,0,0.1 c0,0,0-0.1,0-0.2v0c-0.4-1.4-0.9-2.8-1.3-4.2l-0.1-0.3c-0.1-0.3-0.2-0.6-0.3-0.9l0,0c0-0.1,0-0.1-0.1-0.1c0,0-0.1,0-0.1,0 c-0.1,0-0.1,0-0.2,0.1l0,0c0,0-0.1,0-0.1,0c0,0,0,0-0.1-0.1l0-0.1l0-0.1c-0.4-1.4-0.9-2.8-1.3-4.2l0,0 C35.9,46.4,35.9,46.3,35.9,46.3L35.9,46.3z M21.3,56.4C21.3,56.4,21.3,56.4,21.3,56.4C21.3,56.4,21.3,56.4,21.3,56.4L21.3,56.4 L21.3,56.4L21.3,56.4L21.3,56.4C21.4,56.4,21.4,56.3,21.3,56.4l1.1-1.1c0.6-0.6,1.1-1.1,1.7-1.7c0.1-0.1,0.1-0.1,0.1-0.2 c0.1-0.4,0.3-0.9,0.4-1.3l0.1-0.4c0,0,0-0.1,0-0.1c0-0.1,0.1-0.1,0-0.2c0-0.1-0.1-0.1-0.2-0.1c0,0-0.1,0-0.1,0l0,0 c-0.1,0-0.1,0-0.1-0.2l1.2-3.7l0.2-0.5c0,0,0-0.1,0-0.1l0-0.1l-0.2-0.1L25,46.3c-0.4,1.1-0.7,2.2-1.1,3.3l0,0.1l-0.4,1.2l-0.2-0.1 l0,0l-0.1,0c0,0-0.1,0-0.1,0c0,0,0,0-0.1,0.1c-0.6,1.8-1.1,3.5-1.7,5.3c0,0,0,0,0,0C21.3,56.3,21.3,56.3,21.3,56.4L21.3,56.4z M15.2,45.7c0,0-0.1,0-0.1,0.1l0,0c-0.1,0.2-0.3,0.3-0.4,0.5l-6.9,7.4l0,0c0,0-0.1,0.1-0.1,0.1l0.4,0.5L9,55.2l3.9-4.2l0.7-0.7 l3-3.2l-0.2-0.2l-0.2-0.1l2.8-3l0.5-0.6l-0.4-0.3l0,0l-0.3-0.3l-3.1,3.3L15.5,46L15.4,46v0c0-0.1-0.1-0.1-0.1-0.2L15.2,45.7 C15.2,45.8,15.2,45.7,15.2,45.7z M42,42.4l-0.4,0.4l-0.3,0.3l1.4,1.5l1.9,2.1l-0.3,0.3L44.3,47l7.6,8.2l0.8-0.8l0.5-0.5l-2.1-2.3 l-0.9-0.9l-4.6-4.9c-0.1,0-0.1,0.1-0.2,0.2c0,0.1-0.1,0.1-0.2,0.1l0,0l0,0l0,0c0,0-0.1-0.1-0.1-0.1l-2.9-3.1 C42.2,42.6,42.1,42.5,42,42.4L42,42.4z M30,47.2C30,47.2,30,47.3,30,47.2C30,47.3,30,47.3,30,47.2C30,47.3,30,47.4,30,47.4s0,0,0,0 v3.9v0.7h0.9c0,0,0,0,0.1,0c0,0,0,0,0-0.1c0,0,0,0,0-0.1s0,0,0,0v-3.9v-0.5c0,0,0,0,0-0.1s0-0.1,0-0.1c0,0,0,0,0-0.1c0,0,0,0,0,0 L30,47.2L30,47.2z M33.4,47c0,0-0.1,0-0.1,0h0c-0.2,0-0.4,0.1-0.6,0.1h0c-0.1,0-0.1,0-0.1,0s0,0.1,0,0.1c0,0.2,0.1,0.4,0.1,0.6 c0,0.2,0.1,0.3,0.1,0.5l0,0.3l0.3,2.1l0.2,1.1v0c0,0.1,0,0.1,0.1,0.1c0,0,0,0,0,0l0.2,0c0.2,0,0.3-0.1,0.5-0.1c0,0,0.1,0,0.1,0 c0,0,0-0.1,0-0.1c0-0.3-0.1-0.6-0.1-0.8c-0.1-0.8-0.2-1.6-0.4-2.3c0-0.2,0-0.3-0.1-0.5v0c0-0.3-0.1-0.6-0.1-0.8 C33.5,47,33.5,47,33.4,47L33.4,47z M27.5,47C27.4,47,27.4,47,27.5,47c-0.1,0.4-0.2,0.7-0.2,1v0c0,0.2-0.1,0.3-0.1,0.5 c-0.1,0.6-0.2,1.2-0.3,1.8L26.8,51v0c0,0.2-0.1,0.4-0.1,0.6v0c0,0,0,0.1,0,0.1c0,0,0,0,0.1,0c0.2,0,0.3,0.1,0.5,0.1h0l0.2,0 c0,0,0,0,0,0c0.1,0,0.1-0.1,0.1-0.1c0-0.3,0.1-0.6,0.1-0.9c0-0.2,0.1-0.3,0.1-0.5l0.2-1.2l0.2-1.2l0-0.3c0-0.2,0.1-0.4,0.1-0.6 c0,0,0-0.1,0-0.1c0,0-0.1,0-0.1,0C28,47.1,27.7,47,27.5,47C27.5,47,27.5,47,27.5,47L27.5,47z M13.1,43.4c-0.1,0-0.1,0-0.1,0.1 c0,0,0,0-0.1,0.1c-2.8,2.3-5.6,4.5-7.8,6.2l-0.8,0.6l0,0l-0.1,0.1l0.9,0.9l0.5,0.5l4.7-3.8l4.1-3.2L14,44.4l1.3-1l2.5-2 c-0.2-0.2-0.4-0.5-0.6-0.7l-2.8,2.3l-1,0.8l0-0.1l-0.1-0.1c0,0,0,0,0-0.1C13.3,43.4,13.2,43.4,13.1,43.4 C13.2,43.4,13.2,43.4,13.1,43.4L13.1,43.4z M43.6,40.6l-0.1,0.2l0,0L43,41.3l3.8,3.1l-0.2,0.2l0,0l-0.1,0.1c0.1,0,0.1,0.1,0.1,0.1 l2.7,2.2l2.5,2l2.5,2l0.1,0.1l0.8,0.6c0.1,0,0.1,0.1,0.1,0.1s0.1,0,0.1-0.1l0.3-0.3l0,0l0.8-0.8l0,0c0,0,0.1-0.1,0.1-0.1l-4.2-3.3 l-0.6-0.5l-4.1-3.3c0,0.1-0.1,0.1-0.1,0.2c0,0.1-0.1,0.1-0.2,0.2l-2-1.6l-0.3-0.2L43.6,40.6z M11.5,40.7c0,0-0.1,0-0.1,0l-0.1,0 c-2.5,1.5-5,2.9-7.5,4.4l-0.2,0.1l-2.5,1.5l0,0c0,0,0,0-0.1,0c0,0-0.1,0.1,0,0.1c0,0,0,0,0,0c0,0,0,0.1,0,0.1l0,0 c0.2,0.5,0.6,0.9,0.9,1.2l0,0c0.1,0.1,0.1,0.1,0.1,0.1c0,0,0.1,0,0.1,0l0,0l4.7-2.7l1.6-0.9l3.8-2.2l0,0l0,0c0,0,0.1-0.1,0.1-0.1 c0-0.1-0.1-0.1-0.1-0.2c-0.1-0.1-0.1-0.2-0.1-0.2l1.8-1.1l0.5-0.3l1.9-1.1l-0.1-0.1l0,0L16,38.7c0-0.1-0.1-0.1-0.1-0.1 c0,0-0.1,0-0.1,0l-0.7,0.4L15,39.1l-0.3,0.2l-2.1,1.2l-0.2,0.1l-0.6,0.4l0-0.1c0,0-0.1-0.1-0.1-0.1l0,0 C11.5,40.7,11.5,40.7,11.5,40.7L11.5,40.7z M44.9,38.6L44.9,38.6l-0.2,0.3l-0.3,0.5l3.5,2l0.8,0.4l-0.1,0.2v0l-0.2,0.2l0.1,0l0,0 l0.1,0.1l4.6,2.7l4.6,2.7L58,48c0.2,0.1,0.4,0.2,0.6,0.3c0,0,0.1,0,0.1,0c0,0,0.1,0,0.1,0c0.4-0.4,0.7-0.8,1-1.3v0 c0.1-0.2,0.1-0.2-0.1-0.3l-8.2-4.8l-1.9-1.1l-0.2-0.1c0,0.1-0.1,0.1-0.1,0.2c0,0.1-0.1,0.1-0.1,0.2c0,0,0,0,0,0h0L47,39.8l-0.3-0.2 L44.9,38.6C45,38.6,44.9,38.6,44.9,38.6L44.9,38.6L44.9,38.6z M10.2,37.8C10.2,37.8,10.2,37.8,10.2,37.8c-0.1,0-0.1,0-0.1,0l0,0 l-1.8,0.7l-3.7,1.5c-0.1,0-0.2,0.1-0.2,0.2l-1.1,1.1l-0.1,0.1l-1.2,1.2c-0.1,0.1-0.2,0.2-0.3,0.3c-0.1,0.1-0.2,0.3-0.3,0.4l6-2.4 l0.3-0.1l3.4-1.4c0-0.1-0.1-0.2-0.1-0.2c0-0.1-0.1-0.2-0.1-0.3L11,39l2.7-1.1l1.4-0.6l0.1-0.1h0c0.1-0.1,0.1-0.1,0.1-0.2L15,36.5 l0,0c0-0.1,0-0.1-0.1-0.1c0,0-0.1,0-0.1,0l-0.4,0.2l-0.1,0l-3.9,1.6h-0.1l0-0.1C10.3,38,10.3,37.9,10.2,37.8 C10.3,37.8,10.2,37.8,10.2,37.8z M50.1,39L50.1,39C50.1,39,50.1,39,50.1,39C50.1,39.1,50.1,39.1,50.1,39L50.1,39l0,0.2v0 c0,0.1-0.1,0.1-0.1,0.2c0,0,0,0.1,0,0.1c0,0,0,0,0.1,0c0,0,0,0,0,0l0,0c3.6,1.5,6.5,2.6,9.3,3.7l0,0c0,0,0.1,0,0.1,0c0,0,0,0,0,0 c-0.1-0.2-0.3-0.4-0.5-0.6l-0.7-0.7l-0.2-0.2c-0.6-0.6-1.1-1.1-1.7-1.7c-0.1-0.1-0.2-0.2-0.3-0.2c-1.1-0.5-2.3-0.9-3.4-1.4l-1-0.4 l-0.4-0.1l-0.7-0.3c0,0-0.1,0-0.1,0c0,0,0,0-0.1,0.1s0,0.1-0.1,0.2v0l0,0.1h0l0,0l0,0c0,0,0,0,0,0l-1-0.4l-2-0.8L46,36.4l0,0 c0,0,0,0-0.1,0c0,0,0,0-0.1,0.1c-0.1,0.2-0.1,0.4-0.2,0.6l-0.1,0.2c0,0,0.1,0.1,0.1,0.1l0,0c0.8,0.3,1.5,0.6,2.3,0.9 c0.5,0.2,0.9,0.4,1.4,0.6L50.1,39C50,39,50,39,50.1,39L50.1,39L50.1,39z M9.5,35.1C9.4,35.1,9.4,35.1,9.5,35.1 c-0.1,0.1-0.1,0.1-0.1,0.1c-0.6,0.6-1.3,1.3-1.8,1.8l0,0c0,0-0.1,0.1-0.1,0.1h0h0c0.8-0.2,1.5-0.4,2.2-0.5c0.1,0,0.1,0,0.1-0.1v0 c0,0,0-0.1,0-0.1c0-0.1-0.1-0.2,0-0.3c0,0,0,0,0,0c0,0,0,0,0,0l0,0h0c0,0,0,0,0,0l0.7-0.2l1.8-0.4l1-0.2h0l0.3-0.1l0.7-0.2 c0.1,0,0.1,0,0.1-0.2c0-0.2-0.1-0.4-0.1-0.6c0-0.1,0-0.2-0.1-0.2c0,0-0.1,0-0.1,0l-1,0.2c-0.9,0.2-1.9,0.5-2.9,0.7 c-0.1,0-0.1,0-0.2,0C9.9,35,9.7,35.1,9.5,35.1L9.5,35.1C9.5,35.1,9.5,35.1,9.5,35.1L9.5,35.1L9.5,35.1z M46.5,34l-0.1,0.4l-0.1,0.4 c0,0.1,0,0.1,0.1,0.2l0.9,0.2l2.6,0.6c0.3,0.1,0.6,0.1,1,0.2l0.2,0c0,0.1,0,0.2,0,0.2c0,0,0,0.1,0,0.1v0c0,0.1,0,0.1,0.1,0.2 l0.6,0.1h0c0.4,0.1,0.9,0.2,1.3,0.3c0,0,0,0,0.1,0c0.1,0,0.1,0,0.2,0c0,0,0.1,0,0.1,0l-0.1,0c0,0-0.1-0.1-0.1-0.1 c-0.5-0.5-1.1-1.1-1.7-1.7c-0.1-0.1-0.2-0.1-0.3-0.2c-0.9-0.2-1.9-0.4-2.8-0.7l-1.3-0.3l-0.2,0C46.8,34,46.7,34,46.5,34L46.5,34z M14,31.5L14,31.5c-0.3,0-0.6,0-0.9,0.1l-0.6,0l-0.8,0.1h0l-0.9,0.1l-0.2,0c-0.4,0-0.8,0.1-1.3,0.1c0,0-0.1,0-0.1,0c0,0,0,0.1,0,0.1 c0,0.1,0,0.2,0,0.3v0c0,0.2,0,0.3,0,0.5c0,0.1,0,0.1,0.1,0.1c0,0,0,0,0.1,0l0.4,0c0.6,0,1.2-0.1,1.8-0.1c0.9-0.1,1.7-0.1,2.5-0.2 c0.1,0,0.1,0,0.1,0c0,0,0-0.1,0-0.1c0,0,0,0,0-0.1c0,0,0,0,0,0c0-0.1,0-0.1,0-0.2C14.1,31.9,14.1,31.8,14,31.5 C14.1,31.5,14,31.5,14,31.5L14,31.5z M46.9,31.5C46.8,31.5,46.8,31.5,46.9,31.5c-0.1,0.2-0.1,0.3-0.1,0.3c0,0.2,0,0.3,0,0.5 c0,0,0,0,0,0.1c0,0,0,0,0.1,0c0.1,0,0.3,0,0.4,0h0l0.1,0l0.5,0l0.1,0l1,0.1c0.7,0.1,1.3,0.1,1.8,0.1l0.4,0l0.4,0h0 c0,0,0.1,0,0.1-0.1c0-0.1,0-0.2,0-0.3c0-0.1,0-0.1,0-0.2l0,0c0,0,0,0,0-0.1c0,0,0-0.1,0-0.1c0-0.1,0-0.1,0-0.1s0,0-0.1,0h0 c-0.1,0-0.2,0-0.2,0h0l-0.2,0l-1.8-0.1l-0.6,0h0l-0.1,0l-0.5,0l-0.5,0l-0.1,0C47.4,31.5,47.2,31.5,46.9,31.5L46.9,31.5z M9.3,28.5 c-0.1,0-0.1,0-0.1,0.1c0,0.1,0,0.2,0,0.3c0,0.2,0,0.4,0,0.5l5,0.4l0-0.2c0-0.2,0-0.5,0.1-0.7c0,0,0-0.1,0-0.1c0,0-0.1,0-0.1,0 c-0.1,0-0.3,0-0.4,0h0h0l-1.7-0.1c-0.6,0-1.2-0.1-1.8-0.1l-0.3,0h0C9.6,28.6,9.4,28.6,9.3,28.5L9.3,28.5z M51.6,28.5L51.6,28.5 c-0.2,0-0.3,0-0.4,0h0l-0.2,0l-0.8,0.1l-0.2,0l-1.2,0.1c-0.7,0.1-1.4,0.1-2,0.2c0,0-0.1,0-0.1,0c0,0,0,0.1,0,0.1 c0,0.2,0,0.3,0.1,0.5v0c0,0.1,0,0.1,0,0.2c0,0.1,0,0.1,0.1,0.1c0,0,0,0,0.1,0c0.3,0,0.7-0.1,1.1-0.1l0.8-0.1c0.3,0,0.6,0,0.9-0.1 l0.8-0.1c0.3,0,0.6,0,0.9-0.1h0c0.2,0,0.2,0,0.2-0.3c0,0,0-0.1,0-0.1c0-0.1,0-0.3,0-0.4C51.7,28.6,51.6,28.5,51.6,28.5L51.6,28.5z M9.6,26.2L9.6,26.2L9.6,26.2c0.1,0,0.1,0,0.2,0l0,0l2.8,0.7l0.6,0.1l0.1,0c0.3,0.1,0.7,0.2,1,0.2c0,0,0,0,0.1,0c0,0,0.1,0,0.1-0.1 c0-0.2,0.1-0.4,0.1-0.6l0.1-0.2l-2.4-0.6l-2.5-0.6c0-0.1,0-0.1,0-0.2c0-0.1,0-0.2,0-0.2l-1.3-0.3l-0.2,0l-0.9-0.2l1.8,1.8l0.1,0.1 L9.6,26.2C9.5,26.3,9.5,26.3,9.6,26.2C9.5,26.3,9.5,26.2,9.6,26.2L9.6,26.2L9.6,26.2z M51.1,25.3C51,25.3,51,25.3,51.1,25.3 L51.1,25.3L51.1,25.3c-0.1,0-0.1,0-0.1,0l-1,0.2h0c-1,0.2-2.1,0.5-3.2,0.7c0,0-0.1,0-0.1,0h0c-0.1,0-0.2,0.1-0.4,0.1l0.1,0.3 c0,0.2,0.1,0.3,0.1,0.5c0,0.1,0,0.1,0.1,0.1c0,0,0.1,0,0.1,0h0l0.4-0.1l4.2-1l0,0c0,0,0.1,0,0.1,0h0c0,0,0,0,0,0.1c0,0,0,0,0,0.1 c0.4-0.4,1.9-1.9,2-2l-0.4,0.1l-0.1,0l-1,0.2l-0.3,0.1l0,0l-0.4,0.1c-0.1,0-0.1,0-0.1,0s0,0.1,0,0.1l0,0 C51,25.1,51.1,25.2,51.1,25.3C51.1,25.3,51.1,25.3,51.1,25.3L51.1,25.3z M10.4,23.2L10.4,23.2l1.1,0.4l0.5,0.2l2,0.8l0.2,0.1l0,0 c0.2,0.1,0.5,0.2,0.7,0.3c0,0,0,0,0.1,0c0,0,0.1,0,0.1-0.1c0.1-0.2,0.2-0.5,0.3-0.7c0,0,0,0,0-0.1c0,0,0,0,0,0l-0.1,0l-3.5-1.4 l-0.7-0.3l0,0l-0.3-0.1l0-0.1l0.1-0.3l-4.9-2L1.3,18c0.1,0.2,0.3,0.5,0.5,0.7l0.5,0.5c0.7,0.7,1.4,1.4,2,2c0.1,0.1,0.2,0.1,0.2,0.2 c1.1,0.4,2.2,0.9,3.3,1.3l1.2,0.5l0.5,0.2l0.5,0.2c0-0.1,0.1-0.2,0.1-0.2C10.4,23.3,10.4,23.2,10.4,23.2L10.4,23.2z M59.5,18 L59.5,18c-0.1,0-0.1,0-0.1,0l0,0l-8.1,3.2l-0.4,0.2l-0.1,0c-0.3,0.1-0.5,0.2-0.8,0.3c0,0-0.1,0-0.1,0.1c0,0,0,0.1,0,0.1 c0,0.1,0.1,0.1,0.1,0.2l0,0.1l-2.3,0.9l-2.4,1c0.1,0.3,0.2,0.6,0.4,0.9l4.5-1.8l0.1-0.1l0,0c0,0,0,0,0,0c0,0.1,0,0.1,0.1,0.2l0,0.1 l0,0c0,0.1,0,0.1,0.1,0.1c0,0,0.1,0,0.1,0l0.1,0l2.3-0.9l0.1-0.1c1-0.4,2-0.8,3-1.2c0.1,0,0.2-0.1,0.3-0.2c0.5-0.5,1-1,1.5-1.5l0,0 l0.1-0.1l0.9-0.9c0.1-0.1,0.2-0.2,0.2-0.2C59.4,18.3,59.5,18.2,59.5,18L59.5,18z M11.8,20.3L11.8,20.3 C11.8,20.3,11.8,20.3,11.8,20.3c0.1,0,0.1,0,0.1,0.1l0,0l4,2.4l0,0c0,0,0.1,0.1,0.1,0.1l0.1-0.2c0.1-0.2,0.2-0.3,0.3-0.5 c0,0,0-0.1,0-0.1c0,0,0,0-0.1-0.1c-0.2-0.1-0.4-0.2-0.6-0.4l-0.3-0.2l-2.4-1.4l-1-0.6l0-0.1c0,0,0-0.1,0.1-0.1 c0.1-0.1,0.1-0.1,0.1-0.2s-0.1-0.1-0.2-0.1l-3.3-1.9l-1.1-0.6L4,14.2l-1-0.6l0,0l-0.8-0.5l0,0l0,0c0,0,0,0-0.1,0c0,0-0.1,0-0.1,0 c-0.4,0.4-0.7,0.8-1,1.3l0,0C1,14.6,1,14.6,1.1,14.7l0,0l5.1,3l5.1,3l0,0c0,0,0,0,0.1,0c0,0,0,0,0.1,0c0,0,0,0,0.1-0.1 s0.1-0.1,0.1-0.2S11.7,20.4,11.8,20.3C11.7,20.4,11.7,20.3,11.8,20.3L11.8,20.3z M58.7,13.1C58.7,13.1,58.7,13.1,58.7,13.1 c-0.1,0-0.1,0.1-0.2,0.1l-0.1,0l-8.5,5l-0.1,0.1l-1.5,0.9c0,0.1,0.1,0.1,0.1,0.2c0,0.1,0.1,0.1,0.1,0.2l-1.7,1l-0.1,0l-2.6,1.5 l0.1,0.1v0c0.1,0.2,0.2,0.4,0.4,0.6c0,0,0,0.1,0.1,0.1c0,0,0,0,0.1,0c0,0,0,0,0.1,0l0,0l0,0l3.4-2l0.6-0.3l0.1,0l0.2-0.1l0.2,0.3 l0,0l0.1,0.1l0,0h0l0,0l0.1,0l3.4-2l1.7-1l5.1-3l0,0c0,0,0,0,0,0c0,0,0,0,0,0c0,0,0,0,0-0.1c0,0,0,0,0,0c0,0,0,0,0,0 C59.5,14,59.2,13.5,58.7,13.1C58.7,13.1,58.7,13.1,58.7,13.1L58.7,13.1z M13.5,17.7L13.5,17.7l3.2,2.5l0.4,0.3l0.4,0.3 c0,0,0,0,0.1,0c0,0,0,0,0.1,0c0.1-0.2,0.2-0.3,0.4-0.5l0,0l0.2-0.2l-3.3-2.7l-0.2-0.1L14.1,17l0.2-0.2l0.1-0.1c0,0-0.1-0.1-0.1-0.1 l-0.4-0.4l0,0l-3.1-2.5L9,12.3L5.7,9.7l0,0c0,0-0.1-0.1-0.1-0.1s-0.1,0-0.1,0.1l0,0l-1,1l0,0l-0.1,0.1L4.2,11l1.6,1.3L6.7,13 l6.4,5.2l0.2-0.2l0,0L13.5,17.7L13.5,17.7z M55.2,9.6c0,0-0.1,0-0.1,0.1l-2.6,2.1l-0.5,0.4l-4.7,3.8c-0.2,0.2-0.4,0.3-0.6,0.5l0,0 l-0.1,0.1l0.1,0.1l0.2,0.2l0,0c0,0,0,0-0.1,0.1l-1.8,1.5l-0.9,0.7l-0.3,0.2h0c-0.3,0.2-0.5,0.4-0.8,0.6c0,0-0.1,0.1-0.1,0.1 c0,0,0,0.1,0,0.1c0.1,0.1,0.2,0.3,0.4,0.4l0.2,0.2l0.2-0.2l0.3-0.2l3.5-2.8l0.3,0.4l0,0l0.1,0l2.7-2.1l1.9-1.5l4.2-3.3 c0.1-0.1,0.1-0.1,0.1-0.1s0,0,0-0.1c0,0,0,0,0,0c-0.4-0.4-0.7-0.7-1.1-1.1L55.2,9.6C55.3,9.6,55.3,9.6,55.2,9.6L55.2,9.6z M51.9,6.3 C51.9,6.3,51.8,6.3,51.9,6.3l-0.1,0.1l-0.6,0.7l-6.7,7.2c0,0-0.1,0.1-0.1,0.1l0,0l-0.1,0.1l0.3,0.2l0,0l0.1,0l-0.3,0.4l-2.6,2.8 l-0.5,0.6l0.2,0.2l0.5,0.4l1.4-1.5l0.2-0.2l1.9-2l0.2,0.2l0.2,0.2l4.3-4.7l3.2-3.5l-0.5-0.5l0,0l0,0L52,6.3L51.9,6.3 C51.9,6.3,51.9,6.3,51.9,6.3L51.9,6.3z M15.6,15.4L15.6,15.4C15.6,15.4,15.6,15.4,15.6,15.4C15.6,15.4,15.6,15.4,15.6,15.4 L15.6,15.4L15.6,15.4c0.1,0.1,0.1,0.1,0.1,0.1l2.8,3l0.1,0.1l0.1,0.1c0.1,0.1,0.2,0.2,0.3,0.4c0,0,0.1,0,0.1,0c0,0,0.1,0,0.1,0 c0.1-0.1,0.2-0.2,0.3-0.3l0,0l0,0l0.2-0.2l0,0c0,0,0.1-0.1,0.1-0.1l-2.1-2.2l-1.4-1.5c0.1-0.1,0.2-0.2,0.3-0.3l0,0l0,0l-3.7-4 L9.1,6.4l0,0v0c0,0-0.1-0.1-0.1-0.1c0,0,0,0-0.1,0c0,0-0.1,0-0.1,0c0,0,0,0-0.1,0.1l0,0L8.5,6.6L7.8,7.4l0,0c-0.1,0.1-0.1,0.1,0,0.2 c0,0,0,0,0.1,0.1l0,0l4.4,4.7l2.2,2.4l0.3,0.3l0.1,0.1l0.5,0.5l0.1-0.1c0-0.1,0.1-0.1,0.2-0.2c0,0,0,0,0,0 C15.5,15.4,15.5,15.4,15.6,15.4L15.6,15.4z M17.9,13.4L17.9,13.4l2.9,4.2l0.4-0.3l0,0l0.3-0.2l-1.2-1.8l-1.7-2.4l0.2-0.1l0.2-0.1 l-3-4.3l-3.8-5.5l-0.4,0.4l0,0c-0.3,0.3-0.5,0.5-0.8,0.8c0,0-0.1,0.1,0,0.1c0,0,0,0,0,0c0,0,0,0,0,0l0,0l3,4.4l0.1,0.2l3.2,4.6l0,0 c0,0,0,0,0,0.1s0,0,0.1,0c0,0,0,0,0.1,0C17.7,13.5,17.8,13.5,17.9,13.4L17.9,13.4L17.9,13.4L17.9,13.4z M48.4,2.9l-2.4,3.4l-4.4,6.3 l0.2,0.1l0,0l0.2,0.1L39.2,17l0.3,0.2l0.1,0l0.4,0.3l2-3l0.9-1.2l0.1,0.1c0.1,0.1,0.2,0.1,0.2,0.2c0,0,0,0,0.1,0c0,0,0.1,0,0.1-0.1 c0,0,0,0,0,0l0,0c2.1-3.1,4.2-6.1,6.3-9.2l0,0c0,0,0-0.1,0-0.1L49,3.5L49,3.4l-0.1-0.1L48.4,2.9L48.4,2.9L48.4,2.9z M20.6,11.7 L20.6,11.7l1.3,2.6l0.2,0.3l0.8,1.7l0.7-0.3c0.1,0,0.1,0,0.1-0.1s0-0.1,0-0.1L23.2,15l0,0c-0.2-0.5-0.4-0.9-0.7-1.4 c-0.2-0.5-0.5-1-0.7-1.5v0l-0.4-0.7c0,0,0,0,0-0.1l0.1,0l0.1,0l0.2-0.1l0-0.1c0,0,0-0.1,0-0.1l-1-2l-0.1-0.1 c-1.2-2.4-2.4-4.9-3.6-7.3c-0.1-0.2-0.3-0.4-0.6-0.4c-0.1,0-0.1,0-0.2,0c-0.1,0-0.2,0-0.3-0.1h-0.9l0,0c0,0,0,0,0,0c0,0,0,0,0,0 c-0.1,0-0.3,0-0.4,0.1l0,0.1c0,0,0,0.1,0.1,0.1l4.3,8.7c0.3,0.6,0.6,1.2,0.9,1.8c0,0.1,0.1,0.1,0.1,0.1c0,0,0.1,0,0.1,0 c0,0,0.1,0,0.1-0.1C20.5,11.8,20.5,11.8,20.6,11.7L20.6,11.7z M44.7,1L44.7,1C44.7,1,44.7,1,44.7,1L44.7,1c-0.2,0-0.4,0.1-0.5,0.1 l-0.2,0c-0.1,0-0.3,0.1-0.3,0.3c-1.1,2.3-2.3,4.7-3.4,6.9l-0.7,1.4L39.5,10L39,11c0,0.1,0,0.1,0,0.1s0,0,0.1,0.1l0.2,0.1l0,0l0.1,0 l0,0.1c0,0,0,0.1,0,0.1L38.5,13l-0.1,0.1l-0.3,0.6l-0.3,0.7l-0.7,1.4c0,0.1-0.1,0.1,0,0.1s0,0,0.1,0.1l0.4,0.2l0.2,0.1 c0,0,0.1,0,0.1,0c0,0,0.1,0,0.1-0.1c0.2-0.5,0.5-0.9,0.7-1.4v0l0.9-1.8l0.6-1.3l0.5,0.2l2.3-4.7l3-6.1c0,0,0,0-0.1-0.1l0,0 c-0.1,0-0.1,0-0.2,0c-0.1,0-0.2,0-0.2,0L44.7,1L44.7,1z M39.5,5L39.5,5L39.5,5C39.5,5.1,39.5,5.1,39.5,5l-0.8,0.8l0,0 c-0.6,0.6-1.3,1.3-1.9,1.9C36.7,7.9,36.6,8,36.6,8l0,0.1v0c-0.2,0.5-0.3,1.1-0.5,1.6c0,0,0,0,0,0.1c0,0.1,0,0.1-0.1,0.2 c0.1,0,0.1,0.1,0.2,0.1c0.1,0,0.1,0,0.2,0.1c-0.3,1-0.6,1.9-0.9,2.9l-0.6,2l0.9,0.3l1.2-3.7l0-0.1l0.3-1.1h0c0.1,0,0.2,0.1,0.3,0.1 c0,0,0.1,0,0.1,0c0,0,0.1,0,0.1-0.1v0c0,0,0,0,0,0l0.7-2.1l0.7-2.1c0.1-0.3,0.2-0.6,0.3-0.9v0L39.5,5L39.5,5L39.5,5z M23.5,10.5 L23.5,10.5C23.5,10.5,23.5,10.5,23.5,10.5C23.5,10.6,23.5,10.6,23.5,10.5c0.1,0.1,0.1,0.1,0.1,0.1c0,0,0,0,0,0v0l0,0.1 c0.3,0.9,0.6,1.8,0.8,2.7l0.1,0.4v0c0.1,0.5,0.3,0.9,0.4,1.4c0,0.1,0,0.1,0.1,0.1c0,0,0,0,0.1,0c0.2-0.1,0.3-0.1,0.5-0.1l0.2-0.1 c0.1,0,0.1,0,0.1-0.1s0-0.1,0-0.1c-0.3-0.9-0.6-1.9-0.9-2.8c-0.2-0.6-0.4-1.3-0.6-1.9c0.1,0,0.1,0,0.2-0.1c0.1,0,0.2,0,0.2-0.1 c0,0,0-0.1,0-0.1v0l-0.1-0.3c-0.2-0.5-0.3-1.1-0.5-1.6c0-0.1-0.1-0.2-0.2-0.3c-0.5-0.5-1-1-1.5-1.5l-0.1-0.1l0,0l-1-1l0,0 c0,0-0.1-0.1-0.1-0.1c0.6,1.9,1.2,3.8,1.8,5.6L23.5,10.5L23.5,10.5z M27.5,9.6C27.5,9.6,27.5,9.6,27.5,9.6c-0.3,0-0.5,0.1-0.7,0.1 c0,0-0.1,0-0.1,0c0,0,0,0.1,0,0.1c0,0.2,0.1,0.5,0.1,0.7c0,0.1,0,0.3,0.1,0.4c0.2,1,0.3,2,0.5,3l0,0.1l0,0.1c0,0.2,0.1,0.4,0.1,0.6 v0c0,0,0,0.1,0.1,0.1c0,0,0,0,0,0l0.2,0l0.1,0l0.5-0.1c0,0,0,0,0.1,0c0,0,0,0,0-0.1c0,0,0-0.1,0-0.1c0-0.1,0-0.1,0-0.2 c-0.1-0.8-0.2-1.6-0.4-2.4l-0.1-0.5C27.7,10.8,27.7,10.2,27.5,9.6C27.6,9.6,27.5,9.6,27.5,9.6L27.5,9.6z M33.3,9.6 C33.3,9.6,33.2,9.6,33.3,9.6c-0.1,0.3-0.1,0.5-0.2,0.7v0c0,0.1,0,0.2,0,0.3l-0.2,1.2l-0.2,1.1c-0.1,0.4-0.1,0.7-0.2,1.1l-0.1,0.7 l0.3,0c0.2,0,0.4,0.1,0.6,0.1c0,0,0,0,0,0c0.1,0,0.1,0,0.1-0.1c0.1-0.4,0.1-0.8,0.2-1.1l0-0.3l0.2-1.3l0-0.1c0.1-0.5,0.2-1,0.2-1.5 c0-0.1,0-0.2,0-0.3s0-0.2,0-0.3c0,0,0-0.1,0-0.1c0,0,0,0-0.1,0C33.8,9.6,33.6,9.6,33.3,9.6L33.3,9.6L33.3,9.6z M30,9.4 C30,9.4,29.9,9.4,30,9.4C29.9,9.4,29.9,9.4,30,9.4c-0.1,0.1-0.1,0.1-0.1,0.2c0,0.8,0,1.5,0,2.3v0.1c0,0.8,0,1.6,0,2.4c0,0,0,0,0,0 s0,0,0,0.1c0,0,0,0.1,0,0.1c0,0,0.1,0,0.1,0h0.4h0.3c0,0,0,0,0.1,0c0,0,0,0,0-0.1c0,0,0,0,0-0.1s0,0,0,0v-2.4v-0.8 c0-0.5,0-1.1,0-1.6c0,0,0-0.1,0-0.2c0,0,0-0.1,0-0.1c0,0,0,0,0,0L30,9.4z"></path> </svg> 