<?xml version="1.0" encoding="UTF-8"?> <svg xmlns="http://www.w3.org/2000/svg" id="Layer_1" viewBox="0 0 97.14 84"><defs><style>.cls-1{fill:#010101;}</style></defs><rect class="cls-1" x="7.73" y="39.55" width="25.87" height="1.5"></rect><rect class="cls-1" x=".7" y="52.65" width="25.87" height="1.5"></rect><rect class="cls-1" x="7.73" y="65.74" width="25.87" height="1.5"></rect><path class="cls-1" d="M66.3,83.54c-16.62,0-30.14-13.52-30.14-30.14s13.52-30.14,30.14-30.14,30.14,13.52,30.14,30.14-13.52,30.14-30.14,30.14Zm0-58.78c-15.79,0-28.64,12.85-28.64,28.64s12.85,28.64,28.64,28.64,28.64-12.85,28.64-28.64-12.85-28.64-28.64-28.64Z"></path><path class="cls-1" d="M70.68,51.72c0-2.42-1.96-4.39-4.39-4.39s-4.39,1.96-4.39,4.39c0,1.87,1.17,3.46,2.81,4.09v7.79h3.15v-7.79c1.64-.63,2.81-2.22,2.81-4.09Z"></path><g><path class="cls-1" d="M45.87,27.96c-.26,0-.52-.11-.71-.29-.19-.19-.29-.44-.29-.71s.11-.52,.29-.71c.37-.37,1.04-.37,1.41,0,.19,.19,.29,.44,.29,.71s-.11,.52-.29,.71c-.19,.19-.44,.29-.71,.29Z"></path><path class="cls-1" d="M45.86,22.66c-.55,0-1-.46-.99-1.01h0c0-.55,.46-.99,1.01-.99h0c.55,0,.99,.46,.99,1.01h0c0,.55-.45,.99-1,.99h-.01Zm39.86-1.03h0c0-.55,.43-1.01,.99-1.01h0c.55,0,1.01,.43,1.01,.99h0c0,.55-.43,1.01-.99,1.01h-.01c-.55,0-.99-.44-1-.99Zm-39.38-4.25c-.53-.15-.84-.7-.7-1.23h0c.15-.53,.7-.84,1.23-.7h0c.53,.15,.84,.7,.7,1.23h0c-.12,.44-.52,.73-.96,.73h0c-.09,0-.18-.01-.27-.04Zm38.66-.73c-.15-.53,.16-1.08,.69-1.23h0c.53-.15,1.08,.16,1.23,.69h0c.15,.53-.16,1.08-.69,1.23h0c-.09,.03-.18,.04-.27,.04h0c-.44,0-.84-.29-.96-.73Zm-36.84-4.24c-.48-.28-.64-.89-.35-1.37h0c.28-.48,.89-.63,1.37-.35h0c.48,.28,.64,.89,.35,1.37h0c-.19,.32-.52,.49-.86,.49h0c-.17,0-.35-.04-.51-.14Zm34.86-.39c-.28-.47-.12-1.09,.35-1.37h0c.47-.28,1.09-.12,1.37,.35h0c.28,.48,.12,1.09-.35,1.37h0c-.16,.09-.33,.14-.51,.14h0c-.34,0-.68-.18-.86-.49Zm-31.81-3.95c-.39-.39-.39-1.03,0-1.42h0c.39-.39,1.03-.39,1.42,0h0c.39,.39,.39,1.03,0,1.41h0c-.19,.19-.45,.29-.7,.29h0c-.26,0-.52-.1-.71-.3Zm28.72-.02c-.39-.39-.4-1.02-.01-1.41h0c.39-.39,1.02-.4,1.42-.01h0c.39,.39,.4,1.02,0,1.41h0c-.2,.2-.45,.3-.71,.3h0c-.25,0-.51-.1-.7-.29Zm-24.66-3.39c-.28-.48-.11-1.09,.37-1.36h0c.48-.28,1.09-.11,1.36,.37h0c.28,.48,.11,1.09-.37,1.37h0c-.16,.09-.33,.13-.5,.13h0c-.35,0-.68-.18-.87-.5Zm20.65,.35c-.48-.28-.65-.89-.37-1.36h0c.27-.48,.89-.65,1.36-.37h0c.48,.27,.65,.89,.37,1.36h0c-.18,.32-.52,.5-.87,.5h0c-.17,0-.34-.04-.49-.13Zm-15.86-2.61c-.14-.53,.18-1.08,.71-1.22h0c.53-.14,1.08,.17,1.22,.71h0c.14,.53-.18,1.08-.71,1.22h0c-.09,.02-.17,.03-.26,.03h0c-.44,0-.85-.3-.97-.74Zm11.21,.7h0c-.53-.14-.85-.69-.71-1.22h0c.14-.53,.69-.85,1.22-.71h0c.53,.14,.85,.69,.71,1.22h0c-.12,.45-.52,.74-.97,.74h0c-.08,0-.17-.01-.25-.03Zm-5.99-1.64c0-.55,.45-1,1-1h0c.55,0,1,.45,1,1h0c0,.55-.45,1-1,1h0c-.55,0-1-.45-1-1Z"></path><path class="cls-1" d="M86.72,27.96c-.26,0-.52-.11-.71-.29-.19-.19-.29-.44-.29-.71s.11-.52,.29-.71c.37-.37,1.04-.37,1.42,0,.19,.19,.29,.44,.29,.71s-.11,.52-.29,.71-.44,.29-.71,.29Z"></path></g></svg> 