<?xml version="1.0" encoding="UTF-8"?> <svg xmlns="http://www.w3.org/2000/svg" width="62" height="76" viewBox="0 0 62 76"><path id="Subtraction_7" data-name="Subtraction 7" d="M62,76H0V0H62V76ZM30.96,3.376A27.124,27.124,0,0,0,19.938,5.695,28,28,0,0,0,10.98,12a29.344,29.344,0,0,0-6.015,9.323A30.167,30.167,0,0,0,2.765,32.7a.461.461,0,0,0,.162.352L21.514,48.933a20.814,20.814,0,0,0-2.489.973,11.655,11.655,0,0,0-3.733,2.627A5.1,5.1,0,0,0,13.86,55.92v7.922a5.1,5.1,0,0,0,1.432,3.387,14.238,14.238,0,0,0,6.268,3.617,31.686,31.686,0,0,0,9.5,1.374A28.933,28.933,0,0,0,43.1,69.855a11.647,11.647,0,0,0,3.733-2.627,5.1,5.1,0,0,0,1.431-3.387V55.92a5.1,5.1,0,0,0-1.431-3.387,14.245,14.245,0,0,0-6.268-3.616L40.5,48.9l-.046-.013L58.992,33.049a.459.459,0,0,0,.162-.352,30.165,30.165,0,0,0-2.2-11.372A29.341,29.341,0,0,0,50.938,12,28,28,0,0,0,41.98,5.695,27.119,27.119,0,0,0,30.96,3.376Zm.1,67.933c-.478,0-.983-.012-1.544-.037v-7.03l.361.017c.385.019.782.038,1.184.038.476,0,.981-.012,1.544-.037v7.011C32.013,71.3,31.523,71.309,31.06,71.309Zm2.455-.086h0V64.2c1.05-.072,2.089-.191,3.089-.354v7c-1.033.175-2.071.3-3.088.37Zm-4.91-.01h0c-1.054-.074-2.093-.2-3.088-.364V63.843c1.084.177,2.094.3,3.089.366v7Zm-4-.523h0a25.437,25.437,0,0,1-3.088-.825V62.907l.008,0,.035.012a27.147,27.147,0,0,0,3.046.751v7.015Zm12.91,0h0V63.692a26.851,26.851,0,0,0,3.089-.785v6.96l-.122.042c-.065.023-.131.046-.2.067a25.762,25.762,0,0,1-2.767.708ZM20.606,69.542h0c-.435-.169-.824-.336-1.189-.51a13.547,13.547,0,0,1-1.9-1.084V61.11a17.325,17.325,0,0,0,3.09,1.483v6.947Zm20.909,0h0V62.585c.627-.233,1.13-.44,1.581-.653A15.277,15.277,0,0,0,44.6,61.1v6.844a15.167,15.167,0,0,1-3.088,1.591ZM16.605,67.245h0a7.75,7.75,0,0,1-.633-.621,4.186,4.186,0,0,1-1.2-2.781V58.632a6.559,6.559,0,0,0,.521.674,9.256,9.256,0,0,0,1.353,1.213H16.6v6.726Zm28.909,0V60.52h-.047a9.145,9.145,0,0,0,1.362-1.213,6.675,6.675,0,0,0,.52-.674v5.209a4.186,4.186,0,0,1-1.2,2.781,7.513,7.513,0,0,1-.634.617ZM31.06,63.386c-.492,0-1-.012-1.544-.036-.246-.011-.491-.029-.729-.046l-.182-.013c-1.042-.073-2.081-.2-3.089-.365l-.131-.022c-.258-.042-.525-.086-.78-.137a25.432,25.432,0,0,1-3.089-.825l-.016-.005c-.3-.1-.608-.2-.895-.317-.415-.161-.816-.332-1.191-.509a10.865,10.865,0,0,1-3.444-2.41,3.821,3.821,0,0,1,0-5.56,13.426,13.426,0,0,1,5.866-3.355c.121-.039.248-.075.371-.11l.13-.037,8.322,7.112a.462.462,0,0,0,.6,0L39.629,49.6a20.657,20.657,0,0,1,3.077,1.133,10.846,10.846,0,0,1,3.443,2.41,3.821,3.821,0,0,1,0,5.56,12.091,12.091,0,0,1-4.635,2.915c-.29.113-.6.224-.911.33l-.121.042c-.065.023-.131.047-.2.068a25.98,25.98,0,0,1-2.768.707c-.295.059-.6.116-.911.167-1.021.173-2.06.3-3.089.37-.286.02-.592.036-.911.049C32.042,63.374,31.537,63.386,31.06,63.386Zm-.1-7.974v0L27.365,48.65a34.415,34.415,0,0,1,3.694-.2h.025a34.18,34.18,0,0,1,3.479.179l-3.6,6.778Zm1.554-.951h0l3.033-5.708a29.532,29.532,0,0,1,3,.555Zm-3.108,0-5.988-5.118a29.045,29.045,0,0,1,2.968-.57l3.022,5.686Zm-6.83-5.837L4.44,33.126l.269-.011c.706-.028,1.436-.057,2.171-.057a59.925,59.925,0,0,1,11.748,1.119l7.3,13.74a29.027,29.027,0,0,0-3.354.706Zm16.8-.029h0a29.15,29.15,0,0,0-3.375-.7l7.289-13.714a59.923,59.923,0,0,1,11.748-1.119c.735,0,1.465.029,2.171.057l.269.011-18.1,15.468Zm-12.466-.8h0L19.636,34.107a59.982,59.982,0,0,1,11.33-1.049,60.006,60.006,0,0,1,11.317,1.047L35.014,47.784a33.408,33.408,0,0,0-8.1.011Zm-7.532-14.58h0q0-.093-.006-.186c-.007-.2-.014-.4-.014-.6-.008-9.856,5.571-19.178,11.6-27.785,6.03,8.606,11.607,17.929,11.6,27.785,0,.188-.006.379-.012.564V33q0,.106-.007.212a60.978,60.978,0,0,0-11.575-1.077,60.865,60.865,0,0,0-11.586,1.08Zm24.086-.005h0q0-.091.006-.183c.007-.2.014-.4.014-.6C43.477,22.353,37.893,12.966,31.86,4.324a26.628,26.628,0,0,1,18.41,8.317,28.381,28.381,0,0,1,5.737,8.821,29.249,29.249,0,0,1,2.211,10.754c-1.123-.054-2.163-.081-3.18-.081a61.147,61.147,0,0,0-11.573,1.074Zm-25.01,0h0A61.147,61.147,0,0,0,6.881,32.135c-1.009,0-2.05.026-3.181.081A29.271,29.271,0,0,1,5.911,21.462a28.375,28.375,0,0,1,5.737-8.821A26.636,26.636,0,0,1,30.059,4.324a90.29,90.29,0,0,0-8.092,13.55A34.755,34.755,0,0,0,18.435,32.43c0,.2.007.4.014.6q0,.091.006.183Z" fill="#fff"></path></svg> 