<?xml version="1.0" encoding="UTF-8"?> <svg xmlns="http://www.w3.org/2000/svg" id="Layer_1" viewBox="0 0 72 71"><defs><style>.cls-1{fill:#fff;}</style></defs><path id="Subtraction_7" class="cls-1" d="M72,71H0V0H72V71h0Zm-36.62-14.82s-.05,0-.06,.02c-.02,.02-.02,.05-.02,.08v4.21h1.97v-4.16s0-.03,0-.05c0-.03,0-.06-.02-.08-.02-.02-.05-.03-.08-.02h-.19c-.07,0-.13,0-.19,.01h-.01s-.05,0-.07-.02c-.02-.02-.02-.05-.02-.08v-4.15c0-.06,0-.11-.02-.16h-.76s-.06,0-.08,.02c-.02,.03-.02,.06-.02,.09,0,.03,0,.06,0,.09v4.01s0,.06,0,.09c0,.03,0,.06-.02,.08-.02,.02-.05,.03-.08,.02h-.34Zm-3.25-.42c-.06,0-.07,.05-.08,.09-.03,.19-.06,.39-.09,.58l-.11,.68c-.08,.54-.17,1.08-.25,1.61-.07,.43-.14,.86-.2,1.28-.01,.03,0,.07,0,.1,.02,.02,.05,.03,.08,.03,.65,.09,1.29,.16,1.78,.22h.02s.07-.02,.08-.08c.01-.11,.03-.22,.05-.33l.02-.14,.32-2.07,.06-.4c.06-.38,.12-.76,.18-1.13,.01-.07,.01-.11,0-.13s-.05-.02-.12-.03h-.1c-.06-.02-.12-.03-.18-.03-.03,0-.06,0-.09-.03-.02-.03-.02-.07,0-.1,.04-.23,.07-.45,.11-.67,.02-.13,.04-.25,.06-.37,.06-.38,.12-.76,.18-1.15,.06-.38,.12-.76,.18-1.15,.04-.27,.09-.55,.13-.81,.02-.04,0-.08-.04-.1-.01,0-.02,0-.04,0-.19-.03-.44-.06-.69-.11h-.03c-.05,0-.07,.03-.08,.09-.02,.14-.04,.28-.06,.42l-.02,.12-.2,1.26-.21,1.31c-.06,.4-.11,.71-.16,1.01-.01,.08-.04,.11-.09,.11-.02,0-.04,0-.06-.01-.05-.01-.11-.03-.16-.04-.05,0-.1-.02-.15-.03-.02,0-.03,0-.05,0h0Zm7.1-4.26h0l-.3,.05c-.17,.03-.33,.05-.5,.08-.02,0-.04,.01-.06,.03-.01,.02-.02,.05,0,.08,.02,.11,.03,.22,.05,.34l.03,.19,.19,1.2c.11,.73,.23,1.47,.34,2.2,0,.03,.01,.07,.02,.1,.03,.07,.03,.14,0,.21-.04,.06-.13,.07-.21,.07-.04,0-.07,0-.11,0-.15,.02-.15,.02-.13,.18,.03,.21,.06,.43,.1,.64l.03,.16,.05,.32c.11,.68,.21,1.36,.32,2.05,.02,.1,.03,.21,.05,.31,.03,.17,.05,.34,.08,.51,.02,.11,.02,.13,.1,.13h.07c.12-.01,.25-.02,.38-.04,.47-.06,.95-.11,1.45-.2-.12-.77-.24-1.54-.35-2.3v-.02c-.11-.69-.21-1.37-.32-2.06-.09,.01-.18,.03-.26,.05-.11,.03-.22,.05-.33,.06-.22-1.44-.44-2.88-.67-4.33h0Zm-10.12,3.37s-.06,.02-.07,.07c-.03,.11-.07,.22-.1,.33-.02,.07-.05,.14-.07,.21l-.37,1.18h0c-.26,.82-.52,1.66-.78,2.48-.03,.09-.03,.13-.02,.15s.04,.03,.09,.04h.04c.51,.15,1.01,.27,1.61,.41,.04,.01,.07,.02,.11,.02,.06,0,.07-.04,.1-.14,.16-.52,.33-1.04,.49-1.56l.25-.78c.18-.56,.36-1.13,.54-1.69,.02-.06,.03-.1,.02-.12s-.04-.03-.1-.05l-.31-.1-.06-.02s0-.07,0-.1l.38-1.18,.5-1.57c.12-.39,.24-.77,.36-1.15,.02-.08,.04-.12,.02-.15s-.05-.04-.12-.06l-.14-.04c-.14-.04-.28-.08-.42-.13-.03-.01-.07-.02-.1-.03-.03,0-.04,.03-.06,.09v.04s-.39,1.2-.39,1.2v.03s-.38,1.18-.38,1.18l-.51,1.58c-.12-.03-.23-.07-.34-.11l-.09-.04s-.04,0-.07,0Zm12.46-3.99s-.09,.02-.13,.03l-.52,.17c-.08,.02-.12,.04-.13,.06s0,.07,.02,.14l.29,.91,.02,.07,.26,.84c.13,.41,.26,.83,.39,1.24l.29,.94-.32,.1c-.08,.02-.12,.04-.13,.06s0,.06,.02,.13l1.27,4.03c.03,.1,.04,.14,.1,.14,.04,0,.07,0,.11-.02,.63-.15,1.15-.28,1.61-.41,.08-.02,.12-.03,.13-.06s0-.06-.02-.14v-.02l-1.27-4.02-.04-.13s0-.02,0-.03c0-.04-.03-.08-.06-.11l-.38,.14-.15,.05v-.03s-.04-.05-.04-.08l-.38-1.2-.38-1.21-.23-.73-.23-.73c-.04-.11-.05-.14-.1-.14Zm-15.28,2.68h0l-1.92,3.9-.03,.06-.27,.55,.1,.04,.05,.02c.53,.21,1.03,.4,1.52,.57l.04,.02s.08,.03,.13,.04c.03,0,.04-.02,.07-.08,.01-.02,.02-.05,.04-.08,.58-1.19,1.17-2.37,1.75-3.56l.09-.19,.2-.4c-.07-.05-.15-.09-.23-.12-.04-.02-.08-.03-.11-.05-.07-.03-.1-.05-.11-.08s0-.06,.04-.13l1.5-3.03,.07-.14c.08-.16,.16-.32,.23-.47h0s.03-.06,.02-.09c-.01-.02-.03-.04-.05-.05-.17-.08-.34-.16-.51-.24h-.02s-.19-.1-.19-.1l-.02,.03s-.02,.04-.03,.06l-1.4,2.84-.1,.2c-.1,.21-.21,.42-.31,.63-.02,.05-.05,.07-.08,.07-.02,0-.05-.01-.07-.02-.08-.05-.17-.09-.26-.14l-.14-.07Zm17.5-3.63s-.06,.01-.08,.03c-.12,.07-.24,.12-.35,.18h-.01s-.1,.06-.1,.06c-.1,.05-.16,.08-.17,.11s.01,.09,.06,.19l1.58,3.22c.04,.09,.09,.18,.13,.27l.09,.18-.12,.06c-.08,.04-.15,.07-.22,.1-.04,.02-.07,.04-.08,.06,0,.03,0,.07,.02,.1,.07,.13,.13,.27,.2,.4l.09,.18,.68,1.4,1.03,2.11c.05,.1,.07,.14,.12,.14,.04,0,.09-.02,.13-.03h0c.49-.17,.98-.36,1.47-.55l.08-.03c.08-.03,.11-.05,.12-.07s0-.05-.04-.12c-.01-.02-.03-.05-.04-.09-.44-.91-.9-1.84-1.33-2.73l-.42-.86-.22-.44h0s-.14-.28-.14-.28l-.16,.08h0l-.26,.14s-.06,.03-.09,.04c-.03,0-.04-.03-.07-.09l-1.21-2.47-.19-.39c-.13-.25-.26-.52-.38-.78-.03-.06-.06-.09-.1-.09h0Zm-20.06,2.04s-.06,.03-.09,.07c-.16,.24-.33,.48-.49,.71l-.06,.09-1.2,1.73-1.2,1.73c-.05,.07-.07,.11-.07,.13s.05,.05,.12,.09c.49,.27,.99,.52,1.49,.75,.04,.02,.08,.04,.13,.05,.04,0,.06-.03,.11-.1l1.03-1.5,.73-1.05,.39-.57,.02-.03,.64-.93c.04-.05,.06-.08,.05-.11s-.03-.04-.09-.08l-.22-.14h0s-.11-.08-.11-.08l.02-.03,.06-.08,.97-1.4,.97-1.4,.16-.23h0c.07-.11,.14-.21,.21-.31,.02-.02,.03-.05,.03-.07,0-.02-.02-.04-.04-.05-.17-.11-.35-.23-.52-.35l-.14-.09s-.07,.06-.09,.09l-.02,.03-.86,1.24-.03,.04-.83,1.2-.14,.2c-.15,.21-.3,.43-.45,.65-.03,.04-.05,.06-.08,.06-.03,0-.05-.01-.07-.03-.04-.03-.08-.06-.12-.08-.05-.03-.11-.07-.16-.11-.02-.02-.04-.03-.06-.04h0Zm22.13-3.33l-.58,.4-.04,.03c-.05,.03-.08,.05-.08,.07s.02,.05,.06,.11l.02,.03c.55,.8,1.1,1.6,1.65,2.39l.58,.84v.02s.12,.16,.12,.16c-.06,.05-.13,.1-.19,.13-.08,.04-.15,.09-.21,.15l.53,.77c.77,1.12,1.57,2.29,2.36,3.44,.04,.06,.07,.08,.11,.08,.03,0,.06-.01,.09-.03,.21-.11,.42-.21,.63-.32l.5-.25c.12-.06,.23-.12,.35-.18h0l.18-.1-3.1-4.52-.14,.1-.35,.24-.93-1.35-1.53-2.21h0Zm-24.55,1.44s-.06,.02-.07,.05c-.01,.02-.03,.04-.05,.05l-.03,.03v.02s-.05,.03-.05,.03c-.9,.97-1.81,1.94-2.71,2.91l-.58,.62h0s-.56,.61-.56,.61c.02,.04,.05,.07,.09,.09l.03,.02c.46,.31,.94,.62,1.44,.91,.04,.03,.08,.05,.12,.06,.03,0,.06-.03,.12-.1l.04-.04,3.64-3.9,.02-.03s.06-.07,.07-.11c-.05-.05-.11-.1-.17-.14-.08-.06-.15-.12-.22-.19l1.97-2.1,.11-.12,.92-.99-.29-.27h0s-.35-.33-.35-.33l-1.05,1.12-.02,.02-1.98,2.11-.13-.11c-.07-.06-.14-.12-.21-.18-.02-.03-.05-.05-.08-.05h0Zm26.36-2.99c-.13,.14-.28,.27-.41,.4-.07,.07-.15,.14-.23,.21l.7,.75,2.3,2.48-.22,.17-.17,.13,.04,.05s.03,.04,.05,.06l.71,.76,.06,.07,.76,.82,.05,.06,2.1,2.26c.06,.07,.09,.1,.13,.1,.05,0,.09-.03,.13-.06,.37-.23,.66-.42,.93-.59,.13-.08,.26-.17,.4-.26l.23-.15-.41-.45-3.65-3.93-.27,.23-.19,.16-1.52-1.64-1.53-1.64Zm-28.61,.87s-.05,.02-.1,.06c-1.62,1.3-3.24,2.59-4.85,3.89l-.03,.02s-.06,.05-.07,.09l.04,.04s.05,.04,.07,.06l.29,.22c.35,.27,.69,.54,1.04,.81l.03,.03h0c.05,.04,.07,.06,.1,.06s.06-.02,.11-.07l.03-.02,1.9-1.52,.04-.03,1.86-1.49,.97-.78c-.05-.06-.11-.12-.17-.17-.07-.06-.14-.14-.2-.22,1.11-.88,2.29-1.83,3.62-2.89l-.35-.43-.2-.25c-.07,.05-.12,.09-.17,.13l-2.17,1.73-1.2,.95c-.08,.07-.13,.1-.17,.1s-.08-.04-.15-.12c-.05-.05-.1-.1-.15-.15s-.08-.07-.11-.07h0Zm30.21-2.63s-.04,.01-.06,.04c-.11,.14-.23,.29-.34,.43h0s-.15,.19-.15,.19l3.62,2.9c-.05,.07-.11,.13-.17,.19-.06,.05-.12,.11-.17,.18h.01s.07,.07,.07,.07l4.1,3.3,.22,.18c.12,.1,.27,.21,.4,.32,.03,.03,.06,.04,.1,.05,.03,0,.06-.01,.08-.04,.54-.41,1.02-.78,1.52-1.19l-1.98-1.6-3.1-2.5c-.06,.05-.11,.11-.16,.16-.08,.09-.17,.18-.27,.26l-.04-.03s-.05-.04-.07-.05l-.05-.04h0s-3.35-2.69-3.35-2.69l-.04-.03s-.06-.04-.08-.07c-.02-.02-.05-.03-.08-.02h0Zm-32.32,.26s-.06,.02-.08,.04l-.04,.03-5.9,3.45h-.02s-.07,.05-.08,.09l.04,.05s.07,.08,.11,.11l.37,.34,.02,.02c.28,.26,.56,.52,.84,.78,.03,.04,.07,.06,.12,.06,.04,0,.08-.02,.12-.04,1.11-.65,2.25-1.32,3.34-1.96l.04-.02,2.33-1.36h.03s.07-.06,.09-.1c-.05-.06-.1-.12-.15-.17-.07-.07-.13-.15-.19-.23l.04-.03s.07-.05,.11-.07l3.86-2.24,.13-.07,.05-.03s.09-.05,.13-.08c.02,0,.03-.02,.04-.04,0-.02,0-.05-.02-.06-.08-.13-.16-.26-.23-.38l-.18-.29s-.09,.03-.12,.05l-.03,.02-.03,.02-4.01,2.33s-.06,.04-.09,.06c-.06,.06-.14,.09-.22,.11h-.03c-.07-.02-.13-.09-.18-.17-.02-.03-.05-.07-.07-.1l-.03-.03c-.05-.05-.06-.07-.09-.07h0Zm33.62-2.29l-.29,.5-.15,.26,2.95,1.72,1.45,.85-.29,.33-.02,.02-.03,.03,.03,.02s.04,.03,.06,.04l1.8,1.06c1.33,.78,2.66,1.56,3.99,2.35,.03,.02,.06,.03,.09,.03,.04,0,.07-.02,.1-.05,.17-.16,.35-.32,.52-.48,.14-.13,.28-.25,.41-.38l.11-.1c.13-.11,.25-.23,.36-.36-.03-.04-.07-.07-.12-.09l-.03-.02-4.78-2.81c-.37-.22-.75-.44-1.12-.66-.03-.02-.06-.03-.09-.04-.03,0-.06,.02-.09,.07-.03,.05-.07,.1-.11,.14l-.06,.07c-.07,.09-.1,.13-.15,.13-.05-.01-.11-.03-.15-.07l-3.46-2.02-.59-.34h-.02s-.3-.19-.3-.19Zm-35.66-.33s-.07,.01-.1,.03c-.57,.23-1.15,.47-1.72,.69h0l-.4,.16-4.87,1.96h-.04s-.08,.05-.11,.08h0s0,.02,0,.02c.38,.44,.78,.88,1.17,1.29l.15,.16s.06,.05,.1,.05c.02,0,.04,0,.06-.02,.04-.02,.08-.04,.12-.05l1.98-.79,.09-.04c1.51-.6,3.01-1.2,4.52-1.81l.08-.03c.08-.02,.15-.06,.21-.11l-.27-.36-.08-.1,5.35-2.13-.08-.19c-.08-.19-.15-.37-.22-.55-.02-.04-.03-.06-.06-.06-.01,0-.03,0-.04,.01-.02,0-.04,.02-.06,.02h-.03s-.61,.25-.61,.25c-1.48,.59-2.97,1.18-4.45,1.77-.03,.01-.07,.03-.1,.05-.06,.04-.13,.06-.21,.07-.01,0-.03,0-.04,0-.08-.02-.12-.1-.17-.17-.02-.04-.04-.07-.07-.11,0,0,0,0-.01-.02-.02-.07-.05-.1-.1-.1h0Zm36.69-1.84s-.05,.03-.08,.1c-.04,.11-.09,.22-.13,.33h0s-.09,.23-.09,.23q-.05,.13,.08,.19h.03s.03,.02,.03,.02c1.67,.67,3.34,1.34,5.01,2.01h.04s.09,.05,.11,.09l-.08,.11-.23,.3s.06,.06,.11,.07h.03s4.24,1.72,4.24,1.72l1.35,.54,.3,.12c.31,.12,.63,.25,.94,.38,.03,.01,.06,.02,.09,.02,.05,0,.09-.03,.12-.07,.06-.07,.12-.14,.19-.2,.04-.04,.08-.09,.12-.13l.72-.79,.3-.33-.08-.04s-.08-.04-.12-.05l-5.83-2.34-.29-.11h-.01c-.28-.12-.57-.23-.86-.35-.03-.01-.05-.02-.08-.02-.05,0-.08,.02-.12,.08-.03,.04-.06,.08-.09,.12-.03,.04-.06,.08-.09,.13-.03,.06-.07,.08-.11,.08-.03,0-.06-.01-.09-.03-.01,0-.02-.01-.03-.01h-.02s-3.78-1.53-3.78-1.53c-.5-.2-1-.4-1.49-.6-.03-.01-.06-.02-.1-.03h0Zm-38.67-1.14s-.07,0-.11,.02l-4.64,1.09-3.56,.83h-.02s-.08,.02-.11,.05v.03s.01,.02,.02,.02c.3,.41,.62,.81,.92,1.2l.28,.36c.03,.05,.09,.08,.15,.08,.03,0,.07,0,.1-.01l8.04-1.88h.02s.06-.01,.07-.06l-.05-.07-.28-.43,.03-.02s.02-.01,.04-.02l3.92-.91,1.24-.29,1.2-.28c.08-.02,.12-.03,.13-.05s0-.07-.01-.15l-.03-.12c-.03-.14-.07-.29-.1-.43-.02-.1-.03-.13-.08-.13-.03,0-.07,0-.1,.02l-2.17,.51-.35,.08-2.73,.64-.48,.11c-.3,.07-.61,.14-.92,.22-.02,0-.05,0-.07,.01-.05,0-.1-.03-.11-.08-.03-.05-.06-.1-.09-.15l-.04-.06c-.06-.09-.07-.11-.12-.11h0Zm39.37-1.21s-.07,.03-.08,.09c-.04,.21-.09,.43-.15,.64-.01,.03-.01,.06,0,.09,.02,.02,.05,.04,.08,.04h.07s1.79,.43,1.79,.43h.04c1.33,.32,2.67,.64,4,.95l.15,.03c.15,.03,.3,.07,.44,.12l-.2,.31-.12,.19s.09,.05,.14,.05h0l.78,.18,.6,.14c2.23,.53,4.41,1.04,6.6,1.56,.03,0,.06,.01,.09,.01,.08,0,.15-.04,.18-.11,.2-.27,.42-.55,.62-.82,.13-.17,.25-.33,.38-.49l.04-.05c.06-.07,.11-.15,.15-.23l-.1-.03c-.07-.02-.14-.04-.21-.05h-.03s-.03-.01-.03-.01l-7.73-1.82s-.07-.02-.11-.03c-.06-.02-.13-.04-.2-.04-.02,0-.04,0-.06,0-.09,.02-.13,.12-.17,.21-.02,.03-.03,.07-.05,.1-.04,.06-.08,.1-.14,.1-.02,0-.05,0-.07,0-1.59-.38-3.2-.76-4.76-1.12h-.01l-1.02-.24-.31-.07-.56-.13s-.04,0-.06-.01h0Zm-41.35-2.26s-.05,0-.09,0h-.02l-.31,.02c-.45,.04-.92,.08-1.39,.11l-1.01,.08h-.01c-.4,.03-.81,.06-1.21,.09l-1.76,.14-1.42,.11c-.56,.04-1.12,.08-1.68,.12l-.57,.04h-.02c-.05,0-.1,.01-.15,.05l.13,.21c.1,.16,.19,.32,.29,.48,.2,.32,.41,.64,.61,.95h0l.07,.11h0c.03,.06,.06,.11,.13,.11,0,0,.02,0,.02,0,.1-.01,.21-.02,.31-.03h.14s.9-.08,.9-.08h.05l1.28-.1,.79-.06h0c.31-.02,.62-.05,.92-.07l1.22-.1h.02c.49-.04,.98-.08,1.47-.11,.77-.06,1.55-.12,2.24-.17h.02s.08-.02,.1-.05l-.17-.31v-.02s-.15-.25-.15-.25l1.6-.12,.91-.07,.78-.06h.03l.82-.06,.83-.06,1.54-.12,.29-.02c.38-.03,.82-.06,1.24-.09,.03,0,.07-.01,.09-.03,.02-.03,.02-.06,.02-.09-.02-.23-.03-.45-.05-.66,0-.07-.03-.1-.09-.1h-.03c-.39,.03-.78,.06-1.16,.09l-.74,.05c-.53,.04-1.06,.08-1.59,.12h-.07s-.72,.06-.72,.06l-.98,.07h-.06l-.58,.04-.55,.04h-.01c-.55,.04-1.12,.08-1.68,.14-.04,0-.07,0-.1,0-.17,.01-.33-.1-.37-.27-.04-.1-.06-.13-.14-.13h0Zm41.71-.24c-.07,0-.1,.03-.1,.12,0,.16-.02,.32-.03,.48h0c0,.05,0,.1-.01,.14h0c0,.07,0,.1,0,.11s.04,.02,.1,.02c1.05,.08,1.92,.15,2.73,.22,.6,.05,1.2,.1,1.81,.14l.58,.05,1.88,.14,.82,.06h.02c.07,0,.14,.02,.21,.04l-.06,.11-.26,.47h.16s.23,.02,.23,.02l1.13,.09,1.13,.09,.9,.07h.03l.67,.05,2.13,.17h.13s.58,.06,.58,.06l.6,.05,.53,.04h.01c.39,.03,.79,.06,1.19,.09h.03c.07,0,.14-.04,.17-.1l.03-.04c.34-.53,.7-1.08,1.03-1.64v-.02s.05-.05,.02-.09l-.4-.03h-.03l-1.12-.09-.64-.05c-.35-.03-.7-.05-1.05-.08-.44-.03-.89-.07-1.33-.11h-.04l-.8-.06-.72-.05h-.04l-.92-.07-.81-.06h-.01c-.47-.04-.96-.08-1.44-.11-.03,0-.07,0-.1-.02-.04-.01-.08-.02-.12-.02-.04,0-.07,0-.1,.03-.08,.08-.13,.17-.16,.27-.02,.1-.11,.16-.21,.15h-.05c-.41-.04-.83-.07-1.24-.1h-.13s-.78-.07-.78-.07h-.02c-.31-.02-.61-.05-.92-.07-1.08-.08-1.98-.15-2.81-.22-.21-.02-.42-.04-.64-.05h0l-.51-.04-.56-.04h-.01c-.21-.02-.42-.03-.63-.05l-.03-.02Zm-41.52-2.38h.03s.05,0,.08,0h.05l.6,.05,1.21,.1,.76,.06h.02l.8,.06,2.28,.18,.59,.05h.01l.58,.05,.44,.04h0c.36,.03,.73,.06,1.1,.09h.02c.07,0,.09-.04,.09-.1,0-.16,.02-.33,.03-.48v-.14s.01-.04,.01-.05c0-.04,0-.06,0-.08s-.06-.02-.15-.03c-.26-.03-.52-.05-.78-.06h-.01l-.29-.02-.42-.03h-.01c-.42-.03-.85-.06-1.28-.1l-1.12-.09h-.03l-1.45-.11c-.53-.04-1.08-.08-1.6-.12l-.61-.05c-.17-.01-.34-.03-.52-.04h-.07c.03-.08,.06-.15,.1-.21,.04-.06,.07-.13,.1-.2-.02-.02-.06-.03-.09-.03h-.02l-.89-.07h-.01l-.6-.05-2.28-.18-.55-.04h-.02l-1.01-.08-.7-.06-1.58-.12-.2-.02c-.48-.04-.97-.08-1.46-.12h-.04c-.08,0-.16,.04-.19,.11-.15,.25-.31,.5-.46,.75l-.28,.45c-.08,.13-.16,.26-.24,.4l-.1,.16h.04s.03,.02,.05,.02h0l.97,.08,.28,.02,1.92,.15,.94,.07,.72,.05,1.49,.12h.04l.68,.05,.47,.04c.26,.02,.53,.04,.79,.07l.45,.03c.26,.02,.53,.04,.8,.06h.03c.07,0,.13-.04,.15-.1,.03-.07,.07-.15,.11-.22s.07-.14,.1-.2,.06-.1,.11-.1Zm59.02-2.02h-.03c-.15,.01-.3,.02-.44,.03l-.31,.02-.42,.03-1.2,.09-1.12,.09h-.02l-1.17,.09-.8,.06h-.04l-.8,.06-.51,.04c-.6,.05-1.22,.09-1.82,.14-.08,0-.16,.01-.24,.02-.19,0-.38,.03-.57,.06l.18,.34,.05,.09h-.11s-.19,.02-.19,.02l-.56,.04c-.7,.05-1.43,.11-2.15,.17l-.96,.07h-.02l-.79,.06-1.75,.13h-.04l-1.13,.08-.26,.02-.27,.02q-.12,.01-.12,.13c.01,.18,.03,.36,.04,.53v.11c.01,.09,.02,.11,.08,.11h.07l.44-.03,.86-.06,1.6-.12h.02l.78-.06h.02l1.56-.12,.41-.03h.05l.68-.05c.69-.05,1.4-.11,2.09-.17h.02c.06,0,.11,.03,.12,.09,.03,.06,.06,.12,.09,.18s.07,.14,.1,.21c.02,.07,.09,.12,.17,.12h.04c.25-.02,.5-.04,.75-.06l.23-.02,.69-.05h.02l.95-.07,.96-.08h.02l1.3-.1,.95-.07h0l.72-.07c.95-.07,1.92-.15,2.86-.22h.06s.07,0,.1-.03h0s0-.03,0-.04c-.33-.56-.67-1.11-1.08-1.75-.03-.05-.09-.08-.14-.07h0Zm-3.26-4.55c-.08,0-.16,.02-.23,.04h-.01l-3.83,.9-.15,.03-3.23,.76-.46,.11-.35,.08c.03,.07,.06,.13,.11,.19,.04,.06,.08,.12,.1,.19-.01,.02-.03,.03-.06,.03h-.01l-2.27,.53-2.27,.53-.91,.21-.09,.02-1.03,.24c-.13,.03-.13,.04-.1,.16l.04,.17c.03,.15,.07,.3,.1,.45,.01,.06,.03,.1,.07,.1,.02,0,.04,0,.05-.01,.02,0,.04-.01,.06-.01h.04s2.77-.65,2.77-.65l.11-.02,2.7-.63,.59-.14,.59-.14s.07-.02,.11-.02c.05,0,.07,.03,.13,.12l.04,.07c.05,.08,.1,.17,.15,.25,.03,.06,.07,.12,.14,.12,.03,0,.06,0,.08-.02,0,0,.01,0,.02,0h.01l4.13-.96,4.13-.96h0s.07-.02,.09-.05c-.01-.04-.03-.07-.06-.1l-.02-.03c-.32-.43-.65-.87-.99-1.31-.13-.18-.18-.24-.28-.24Zm-53.78,3.11s.05,0,.08,.01c1.74,.41,3.5,.83,5.21,1.23h0l.73,.17,.5,.11,.5,.12c.02-.07,.03-.14,.05-.21,.04-.17,.08-.34,.12-.5,.02-.08,.03-.11,.01-.14s-.05-.03-.11-.04h-.02s-3.91-.92-3.91-.92h0l-1.93-.45-.63-.15-.15-.04c.03-.07,.07-.14,.11-.2,.04-.05,.07-.1,.09-.16-.03-.03-.06-.05-.1-.05h-.02l-.55-.13h-.02c-.38-.09-.75-.18-1.12-.27l-1.64-.39-.11-.02c-1.51-.36-3.07-.72-4.62-1.09-.03,0-.05-.01-.08-.01-.08,0-.14,.04-.18,.11-.23,.31-.47,.62-.7,.92l-.33,.43s-.06,.09-.1,.14l-.07,.1,.24,.06h0l6.69,1.58,.75,.18h.06s.64,.17,.64,.17c.04,0,.07,.02,.11,.02,.05,0,.07-.03,.12-.12,.02-.04,.05-.08,.07-.12,.05-.07,.09-.15,.13-.22s.08-.12,.14-.12h0Zm50.58-6.91s-.07,.01-.1,.02c-.66,.27-1.32,.53-1.96,.79l-.83,.33h-.03c-1.35,.55-2.69,1.09-4.03,1.63-.01,0-.03,0-.04,.01-.05,0-.09,.03-.11,.08,.03,.05,.06,.09,.1,.13,.05,.06,.09,.12,.12,.18l-.04,.02-.06,.03-1.72,.68h-.03s-1.32,.54-1.32,.54h-.02c-.74,.3-1.48,.6-2.22,.89-.12,.05-.12,.05-.07,.17l.08,.21c.04,.11,.09,.22,.13,.33,.03,.09,.05,.13,.09,.13,.04,0,.08-.02,.12-.04l2.45-.98,.17-.07,1.06-.42,.69-.27,.09-.04h.03s.98-.4,.98-.4c.04-.02,.08-.03,.12-.04,.04,0,.06,.03,.12,.11l.05,.07c.07,.09,.14,.19,.2,.29,.03,.05,.06,.08,.1,.08,.02,0,.05,0,.07-.02,.02-.01,.04-.02,.06-.02h.03s1.77-.72,1.77-.72l4.8-1.92,.32-.13,.26-.11v-.02s-.01-.01-.01-.01c0,0,0-.02-.01-.02l-.3-.33c-.32-.36-.65-.73-.97-1.1-.03-.04-.07-.06-.12-.07Zm-48.62,3.9s.08,.02,.12,.04l4.5,1.8,.36,.14,.64,.26h.01s.04,.02,.06,.03c.02,0,.04-.02,.06-.05l.15-.37h0s.12-.31,.12-.31c0-.02,0-.04,0-.06,0-.02-.02-.03-.04-.03l-.06-.02-.05-.02-4.89-1.96-.43-.18-.05-.02,.13-.18,.09-.13s-.05-.05-.08-.06h-.02s-.64-.27-.64-.27h-.03s-.78-.33-.78-.33l-2.08-.84-.13-.05-3.22-1.29s-.08-.03-.13-.04c-.04,0-.06,.03-.12,.09l-.15,.16c-.16,.18-.34,.36-.5,.55-.15,.16-.29,.33-.44,.5l-.21,.24,.45,.18,.53,.22,2.34,.94,2.34,.94,.57,.23c.32,.13,.66,.26,.99,.4,.03,.01,.06,.02,.09,.02,.05,0,.08-.03,.12-.09,.05-.09,.11-.17,.18-.25l.06-.09c.07-.08,.09-.11,.13-.11h0Zm45.4-7.13s-.05,.02-.07,.03c-.02,.01-.04,.03-.07,.04-1.88,1.1-3.8,2.22-5.69,3.33l-.04,.02s-.09,.05-.12,.09c.03,.05,.06,.09,.1,.13,.05,.05,.09,.1,.12,.17l-1.04,.61h-.02s-3.51,2.05-3.51,2.05l.12,.21c.1,.17,.19,.32,.27,.47,.02,.04,.04,.06,.07,.06,.02,0,.05-.01,.06-.02,.02-.02,.05-.03,.07-.04h.01c.89-.53,1.78-1.05,2.68-1.57l.85-.5h.02s.86-.51,.86-.51h.02s.08-.06,.12-.07c.02,0,.04,.02,.06,.05,.01,.02,.03,.04,.05,.06,.12,.13,.2,.24,.28,.34,.02,.04,.06,.06,.1,.07,.03,0,.06-.02,.09-.04,.02-.01,.03-.02,.05-.03l.03-.02,.27-.16,.1-.06,4.73-2.77c.3-.18,.61-.36,.92-.54-.02-.05-.06-.09-.1-.13l-.03-.02c-.37-.37-.77-.74-1.22-1.16l-.04-.04c-.05-.05-.08-.07-.1-.07h0Zm-43.36,4.46s.05,.02,.08,.04l.06,.04,2.54,1.49,.08,.04,.99,.58,.95,.56,.13-.22h0c.09-.16,.18-.31,.27-.46,.01-.02,.02-.04,.02-.07,0-.02-.02-.03-.04-.04-.02-.01-.05-.03-.07-.04l-.03-.02-4.26-2.49-.03-.02s-.08-.05-.11-.09l.07-.08,.15-.18s-.05-.06-.08-.07h-.02s-1.92-1.14-1.92-1.14c-1.28-.75-2.56-1.51-3.85-2.26-.03-.02-.07-.03-.1-.04-.05,0-.09,.03-.12,.06l-.14,.13c-.35,.33-.71,.66-1.06,1-.02,.02-.04,.03-.06,.05-.05,.04-.1,.09-.13,.15l.03,.02s.08,.05,.11,.07l2.21,1.3,2.21,1.3,.31,.18c.4,.23,.8,.47,1.21,.71,.03,.02,.06,.03,.1,.04,.04,0,.07-.02,.1-.07,.08-.11,.17-.22,.26-.32l.05-.05s.07-.07,.09-.07h0Zm40.09-7.2s-.05,.02-.1,.06l-.03,.03-1.17,.93-.05,.04-2.59,2.08-.71,.57h-.01s-.3,.25-.3,.25l.2,.16,.1,.08-1.9,1.51-1.94,1.55,.16,.2c.1,.13,.2,.24,.29,.36l.03,.04s.05,.07,.08,.07,.05-.02,.11-.07h0s.58-.47,.58-.47h.02s.03-.04,.03-.04l.57-.45,.06-.05,2.39-1.91,.03-.02s.07-.05,.09-.05,.05,.02,.09,.07l.02,.02c.13,.13,.23,.24,.32,.34,.02,.02,.04,.04,.07,.04,.03,0,.05-.02,.07-.04,.02-.01,.03-.03,.05-.04l.03-.02,4.9-3.91,.02-.02s.06-.05,.06-.09c-.46-.38-.94-.77-1.43-1.14l-.05-.04s-.06-.05-.08-.05h0Zm-37.94,4.83s.06,.02,.11,.07l1.51,1.21,1.44,1.16,.22,.17c.17,.14,.35,.28,.52,.42,.02,.02,.04,.03,.07,.03,.02,0,.04-.01,.07-.05,.11-.14,.21-.27,.33-.41l.17-.21-.03-.02-3.77-3.02,.12-.12,.15-.15-.4-.32h-.01s-.43-.35-.43-.35l-.58-.47-3.38-2.72c-.06-.05-.09-.08-.12-.08s-.06,.02-.11,.06c-.44,.34-.91,.7-1.38,1.09l-.02,.02s-.06,.05-.05,.09l2.5,2.02,2.58,2.07c.16-.15,.29-.28,.41-.4,.06-.06,.09-.08,.12-.08Zm34.59-7.12s-.08,.04-.17,.13l-.62,.67c-1,1.07-2,2.15-3,3.22-.01,.02-.03,.03-.04,.04-.05,.04-.08,.09-.11,.14l.05,.04,.25,.21-.41,.44-.8,.86-.47,.5c-.47,.5-.95,1.01-1.42,1.51-.04,.04-.05,.07-.05,.09s.02,.05,.06,.08c.12,.1,.23,.2,.33,.31l.12,.12s.07,.07,.1,.07,.05-.02,.09-.07l.79-.84h.01s1.24-1.34,1.24-1.34l.31-.33h.01c.23-.25,.46-.5,.69-.75,.02-.03,.06-.05,.09-.06,.04,0,.07,.02,.09,.05,.1,.09,.2,.18,.31,.28l.12,.1,3.18-3.41,.92-.99c-.46-.32-.95-.64-1.49-.98-.05-.04-.11-.07-.18-.08Zm-32.31,4.98h.01l.95,1.02,1.08,1.16,.3,.32h.01c.25,.28,.5,.55,.75,.83,.02,.03,.05,.05,.09,.06,.03,0,.05-.02,.09-.05,.1-.1,.2-.2,.31-.29l.14-.12c.06-.05,.08-.08,.08-.11s-.02-.05-.08-.11l-.78-.83-.02-.02c-.63-.68-1.26-1.35-1.9-2.03l-.09-.1c-.1-.1-.19-.2-.27-.31,.1-.08,.19-.16,.3-.25l-.51-.55-.03-.02c-.37-.4-.73-.79-1.1-1.18l-1.09-1.17-1.08-1.17c-.06-.06-.09-.1-.12-.1-.05,.01-.1,.03-.14,.07-.5,.31-.99,.63-1.44,.94h-.02s-.05,.05-.06,.08l.02,.03s.04,.05,.06,.07l3.35,3.61,.02,.02,.21,.22,.06,.07c.08,.09,.16,.18,.24,.26,.05,.05,.08,.08,.1,.08s.06-.03,.11-.08l.11-.1c.07-.06,.13-.11,.19-.17l.02-.02s.06-.05,.1-.05Zm28.85-6.91s-.06,.03-.12,.13c-.5,.73-1.01,1.46-1.51,2.19h0s-.35,.51-.35,.51c-.32,.46-.64,.92-.95,1.38-.08,.11-.07,.11,.03,.18h0s.05,.03,.07,.05c.06,.03,.11,.07,.16,.12l-1.1,1.58-1.5,2.17,.57,.39h.01s.13,.1,.13,.1c.04-.02,.07-.06,.09-.1l.02-.03c.45-.64,.89-1.28,1.34-1.92l.27-.39c.27-.38,.54-.78,.81-1.17,.06-.09,.09-.12,.12-.12s.04,.02,.08,.04l.06,.04,.26,.18h0l.14,.1,1.16-1.68,.13-.19,1.84-2.67-.05-.03-.05-.03c-.44-.24-.94-.5-1.51-.78l-.06-.03s-.05-.02-.08-.02h0Zm-26.42,5h0l1.77,2.56,.08,.12,.76,1.1,.44-.3,.28-.19-.03-.05s-.03-.05-.05-.07l-.63-.92-.02-.03c-.57-.83-1.14-1.65-1.71-2.48-.02-.02-.03-.04-.05-.06-.04-.05-.09-.1-.08-.16s.07-.09,.13-.12c.02-.01,.05-.02,.07-.04l.03-.02s.07-.04,.07-.07-.02-.06-.07-.12c-.33-.48-.65-.95-.98-1.42l-.68-1h0s0-.02,0-.02c-.38-.55-.75-1.1-1.13-1.64l-.02-.03c-.04-.06-.06-.09-.08-.09-.02,0-.05,.01-.07,.03l-.06,.03c-.28,.14-.55,.27-.83,.42-.18,.09-.35,.18-.53,.28h0l-.27,.14,1.61,2.35,1.5,2.19,.55-.39h0Zm22.84-6.5s-.04,.02-.07,.09l-.02,.05c-.42,.85-.84,1.7-1.25,2.55h0s-.31,.64-.31,.64l-.12,.26h0c-.11,.23-.22,.46-.33,.67-.02,.03-.03,.06-.02,.1,0,.02,.03,.04,.08,.06l.06,.03c.08,.03,.16,.07,.22,.12v.03s-.04,.06-.04,.06h0c-.31,.64-.63,1.28-.94,1.91l-.49,1-.49,1c-.06,.12-.06,.12,.06,.18l.22,.11,.33,.16s.07,.03,.1,.04c.03,0,.05-.03,.09-.11,.25-.52,.51-1.03,.76-1.55l.02-.03,.49-.99c.23-.46,.46-.92,.69-1.4h0s.57,.29,.57,.29l.02-.04s.04-.07,.06-.1l.84-1.7,.44-.89,.11-.22c.24-.49,.48-.98,.72-1.48,.03-.06,.04-.09,.03-.11s-.04-.04-.1-.06c-.63-.26-1.12-.45-1.58-.61h-.03s-.07-.03-.1-.04h0Zm-20.22,4.92s.05,.03,.08,.1l.67,1.35,.04,.08,.62,1.27c.23,.47,.41,.83,.57,1.17,0,0,0,.02,.01,.03,.01,.03,.03,.07,.07,.07,.02,0,.04,0,.05-.02,.22-.11,.44-.21,.65-.31,.02,0,.04-.02,.05-.04,0-.02,0-.04,0-.06l-.02-.05-.02-.05-.38-.77h0c-.31-.65-.63-1.29-.94-1.92l-.2-.41-.41-.84c.04-.05,.1-.09,.16-.11l.05-.02h0c.09-.04,.14-.06,.15-.09s0-.06-.04-.12l-.02-.05-.58-1.18h0s-.72-1.49-.72-1.49c-.1-.2-.2-.4-.3-.6h0c-.13-.27-.25-.53-.38-.79-.02-.05-.05-.09-.1-.09-.03,0-.05,0-.07,.02-.18,.07-.37,.14-.55,.21h0c-.12,.04-.24,.09-.36,.14-.21,.08-.41,.16-.62,.24l-.2,.08,.08,.16,.08,.16,.66,1.36,.66,1.36,.17,.35c.17,.35,.34,.69,.51,1.04,.04,.08,.06,.11,.09,.11,.04,0,.07-.02,.1-.04l.13-.07c.06-.03,.12-.07,.18-.1,.03-.02,.07-.04,.11-.04h0Zm16.55-5.98c-.07,0-.08,.05-.13,.18l-.41,1.28v.02c-.27,.84-.54,1.69-.81,2.53,0,.02-.02,.05-.03,.08-.03,.06-.05,.12-.04,.19,.02,.06,.09,.07,.16,.09,.03,0,.07,.01,.1,.02h0s.02,0,.03,0c.03,0,.07,.01,.09,.04,.02,.03,0,.07,0,.12-.06,.19-.13,.39-.19,.58l-.08,.26c-.34,1.06-.7,2.19-1.07,3.34h0c-.02,.08-.03,.11-.02,.12s.03,.02,.06,.03h.04c.16,.07,.31,.11,.47,.17l.11,.03s.07,.02,.11,.03c.04,0,.05-.04,.08-.13l.27-.86h0c.18-.56,.35-1.12,.53-1.67l.18-.57c.12-.38,.24-.77,.37-1.15h.03s.07,.01,.11,.03h.01s.09,.04,.13,.06c.07,.03,.15,.05,.22,.09,.02,.01,.04,.02,.06,.02,.03,0,.06-.03,.07-.08,0-.01,0-.02,.01-.03,0,0,0-.01,0-.02,.44-1.38,.87-2.77,1.31-4.15,.03-.11,.04-.15,.03-.17s-.04-.02-.08-.03l-.07-.02c-.58-.17-1.07-.29-1.54-.39h0s-.1-.02-.15-.03Zm-13.68,4.7h0l.02,.07s.02,.06,.03,.08l.43,1.35h0s.56,1.77,.56,1.77c.07,.23,.15,.47,.22,.7l.11,.34v.02s.02,.07,.07,.07c.01,0,.03,0,.04,0,.16-.05,.31-.1,.47-.15h0l.23-.07s.04-.01,.05-.03c0-.02,0-.04,0-.05,0-.02-.01-.04-.02-.06s0-.03-.01-.05l-.72-2.27-.55-1.73c-.04-.13-.06-.2-.04-.24s.09-.07,.23-.11h.03c.13-.05,.13-.05,.09-.19l-.63-2-.37-1.16-.28-.89c-.03-.09-.04-.12-.09-.12-.03,0-.06,0-.09,.02-.54,.12-1.09,.26-1.65,.42-.07,.02-.11,.03-.12,.05s0,.06,.02,.13l.48,1.52,.49,1.55c.11,.35,.22,.71,.33,1.06,.04,.12,.05,.17,.1,.17,.05,0,.09-.02,.13-.04h.01s.08-.03,.12-.04c.09-.04,.19-.07,.29-.09h0Zm9.85-5.35c-.06,0-.09,.03-.1,.1-.02,.13-.04,.26-.06,.38l-.02,.14c-.06,.39-.12,.78-.18,1.17-.06,.4-.12,.79-.18,1.18l-.09,.59c-.04,.24-.08,.48-.11,.73h.1c.09,.03,.17,.04,.24,.05s.1,.02,.12,.04,.01,.05,0,.13c-.06,.38-.12,.75-.18,1.13h0s-.09,.59-.09,.59c-.11,.7-.22,1.41-.33,2.11l-.02,.11h0c-.02,.17-.05,.32-.07,.48h0s0,.06,0,.09c.01,.02,.03,.02,.05,.03,.2,.03,.42,.07,.71,.11h.03c.05,0,.07-.03,.08-.09,.1-.62,.19-1.25,.29-1.85l.09-.57,.1-.63h0c.07-.46,.14-.91,.21-1.37,.01-.09,.02-.11,.07-.11,.03,0,.05,0,.08,.01,.12,.02,.23,.05,.34,.07l.12,.02v-.03s.02-.03,.03-.04c.06-.4,.13-.8,.19-1.2,.06-.4,.13-.8,.19-1.2,.09-.57,.18-1.14,.27-1.71,.02-.1,.02-.15,0-.18s-.06-.03-.15-.05c-.6-.09-1.19-.16-1.69-.22h-.04Zm-6.83,4.51s.05,.03,.06,.11c.06,.36,.11,.72,.17,1.08,.11,.68,.21,1.35,.31,2.03l.04,.28,.03,.2c.04,.27,.08,.55,.12,.82,0,.06,.02,.09,.08,.09,.02,0,.03,0,.04,0,.22-.04,.45-.07,.62-.09h.05s.06,0,.08-.02,.02-.06,0-.15c-.03-.21-.07-.42-.1-.63h0c-.03-.2-.06-.39-.09-.58-.09-.58-.18-1.16-.27-1.74l-.13-.87c-.03-.22-.07-.45-.1-.69l.14-.02c.09-.01,.17-.02,.25-.03,.03,0,.06-.01,.08-.03,.02-.03,.02-.06,0-.09-.01-.08-.03-.17-.04-.26,0-.05-.01-.1-.02-.15l-.2-1.3c-.07-.43-.13-.86-.2-1.3-.06-.4-.11-.75-.16-1.06-.01-.08-.04-.12-.11-.12-.01,0-.03,0-.04,0-.07,.01-.15,.02-.22,.03h-.09c-.46,.06-.93,.12-1.42,.2-.03,0-.06,.01-.08,.03-.01,.02-.02,.05,0,.08,.02,.09,.03,.18,.04,.27,0,.06,.02,.12,.03,.18h0v.02c.13,.86,.27,1.71,.4,2.57l.03,.22c.05,.29,.09,.59,.14,.88,.02,.1,.02,.13,.07,.13,.03,0,.06,0,.09-.01,.11-.02,.22-.04,.31-.06,.03,0,.06,0,.1,0h0Zm3.21-.36h0s.05,0,.07,.02c.02,.02,.02,.05,.02,.08v2.89c0,.37,0,.76-.01,1.14,0,.13,0,.26,0,.4v.19h.89v-4.71c.05,0,.1,0,.15,0,.07,0,.14,0,.21,0,.05,0,.1,0,.15,0,.02-.03,.03-.06,.03-.1h0c0-.18,0-.36,0-.53s0-.31,0-.46c0-.7,0-1.41,0-2.1v-.98c0-.05,0-.11,.01-.16h-2.01c.01,.05,.02,.11,.01,.16v3.06c0,.38,0,.7,0,.98,0,.04,0,.07,.02,.1,.02,.02,.05,.03,.07,.02h.02c.07,0,.13,0,.2,0h.15Z"></path></svg> 