<?xml version="1.0" encoding="UTF-8"?> <svg xmlns="http://www.w3.org/2000/svg" width="88" height="88" viewBox="0 0 88 88"><g id="Group_1122" data-name="Group 1122" transform="translate(-27.743 655.89)"><circle id="Ellipse_12" data-name="Ellipse 12" cx="44" cy="44" r="44" transform="translate(27.743 -655.891)" fill="#ff9866"></circle><g id="Group_1124" data-name="Group 1124" transform="translate(52.472 -632.818)"><g id="Group_1123" data-name="Group 1123" transform="translate(0)"><g id="Group_1122-2" data-name="Group 1122" transform="translate(0 14.348)"><circle id="Ellipse_13" data-name="Ellipse 13" cx="5.336" cy="5.336" r="5.336" transform="translate(0 4.084) rotate(-22.5)" fill="#fff"></circle></g><path id="Path_3890" data-name="Path 3890" d="M226.438-520.034l-21.046-.016a10.642,10.642,0,0,0-10.66,10.369.28.28,0,0,0,.28.284l21.046.013v0a10.642,10.642,0,0,0,10.66-10.369A.28.28,0,0,0,226.438-520.034Z" transform="translate(-193.097 520.05)" fill="#fff"></path><path id="Path_3891" data-name="Path 3891" d="M195.013-332.239l21.046-.016a10.642,10.642,0,0,1,10.66,10.369.28.28,0,0,1-.28.284l-21.046.013v0a10.642,10.642,0,0,1-10.66-10.369A.28.28,0,0,1,195.013-332.239Z" transform="translate(-193.097 364.153)" fill="#fff"></path></g></g></g></svg> 