<?xml version="1.0" encoding="UTF-8"?> <svg xmlns="http://www.w3.org/2000/svg" width="88" height="88" viewBox="0 0 88 88"><g id="Group_1121" data-name="Group 1121" transform="translate(-27.743 -27.744)"><circle id="Ellipse_10" data-name="Ellipse 10" cx="44" cy="44" r="44" transform="translate(27.743 27.744)" fill="#ff9866"></circle><g id="Group_1119" data-name="Group 1119" transform="translate(43.224 50.822)"><g id="Group_1118" data-name="Group 1118" transform="translate(0 14.297)"><circle id="Ellipse_11" data-name="Ellipse 11" cx="5.316" cy="5.316" r="5.316" transform="translate(0 4.069) rotate(-22.5)" fill="#fff"></circle></g><path id="Path_3887" data-name="Path 3887" d="M160.07,163.63l-20.971-.016a10.6,10.6,0,0,0-10.622,10.332.279.279,0,0,0,.279.283l20.971.013v0a10.6,10.6,0,0,0,10.622-10.332A.279.279,0,0,0,160.07,163.63Z" transform="translate(-126.848 -163.614)" fill="#fff"></path><path id="Path_3888" data-name="Path 3888" d="M128.757,350.753l20.971-.016a10.6,10.6,0,0,1,10.622,10.332.279.279,0,0,1-.279.284l-20.971.013v0a10.6,10.6,0,0,1-10.622-10.332A.279.279,0,0,1,128.757,350.753Z" transform="translate(-126.848 -318.953)" fill="#fff"></path></g><g id="Group_1120" data-name="Group 1120" transform="translate(83.791 59.936)"><path id="Path_3889" data-name="Path 3889" d="M371.991,235.038v3.046H357.718c.269-5.017,2.717-7.465,6.091-9.585,2.269-1.433,4.479-2.568,4.479-5.166,0-1.881-.926-3.105-2.9-3.105-2.837,0-3.255,2.3-3.225,4.15l-3.7-.567c-.03-3.165,1.792-6.539,7.047-6.539,3.912,0,6.45,2.269,6.45,6.151,0,3.553-2.239,5.285-5.315,7.2-2.24,1.374-4.061,2.478-4.569,4.419Z" transform="translate(-357.718 -217.271)" fill="#fff"></path></g></g></svg> 