<?xml version="1.0" encoding="UTF-8"?> <svg xmlns="http://www.w3.org/2000/svg" width="88" height="88" viewBox="0 0 88 88"><g id="Group_1127" data-name="Group 1127" transform="translate(-28.744 654.46)"><circle id="Ellipse_15" data-name="Ellipse 15" cx="44" cy="44" r="44" transform="translate(28.744 -654.46)" fill="#e42058"></circle><g id="Group_1127-2" data-name="Group 1127" transform="translate(51.597 -629.92)"><path id="Path_3893" data-name="Path 3893" d="M204.635-415.875l-21.054-.016a10.646,10.646,0,0,0-10.664,10.373.28.28,0,0,0,.28.285l21.054.013v0a10.646,10.646,0,0,0,10.664-10.373A.28.28,0,0,0,204.635-415.875Z" transform="translate(-171.281 431.874)" fill="#fff"></path><path id="Path_3894" data-name="Path 3894" d="M215.305-509.973l-31.725-.016a10.646,10.646,0,0,0-10.664,10.373.28.28,0,0,0,.28.285l31.725.013v0a10.646,10.646,0,0,0,10.664-10.373A.28.28,0,0,0,215.305-509.973Z" transform="translate(-171.281 509.989)" fill="#fff"></path><circle id="Ellipse_16" data-name="Ellipse 16" cx="5.335" cy="5.335" r="5.335" transform="translate(0 34.346) rotate(-22.5)" fill="#fff"></circle></g></g></svg> 