<?xml version="1.0" encoding="UTF-8"?> <svg xmlns="http://www.w3.org/2000/svg" id="Layer_1" viewBox="0 0 92.15 84"><defs><style>.cls-1{fill:#010101;}</style></defs><path class="cls-1" d="M88.27,27.48L70.45,.75c-.14-.21-.37-.33-.62-.33H22.32c-.25,0-.48,.13-.62,.33L3.88,27.48c-.18,.27-.17,.61,.03,.87l41.57,54.93c.14,.19,.36,.3,.6,.3s.46-.11,.6-.3L88.24,28.35c.19-.25,.2-.6,.03-.87Zm-42.2,54.11L5.42,27.87,22.72,1.92h46.71l17.3,25.95-40.65,53.72Z"></path><path class="cls-1" d="M9.66,28.89c-.26,0-.52-.11-.71-.29-.19-.19-.29-.44-.29-.71s.11-.52,.29-.71c.37-.37,1.04-.37,1.41,0,.19,.19,.29,.44,.29,.71s-.11,.52-.29,.71c-.19,.18-.44,.29-.71,.29Z"></path><path class="cls-1" d="M76.71,27.9c0-.55,.45-1,1-1h0c.55,0,1,.45,1,1h0c0,.55-.45,1-1,1h0c-.55,0-1-.45-1-1Z"></path><path class="cls-1" d="M71.48,27.9c0-.55,.45-1,1-1h0c.55,0,1,.45,1,1h0c0,.55-.45,1-1,1h0c-.55,0-1-.45-1-1Z"></path><path class="cls-1" d="M66.24,27.9c0-.55,.45-1,1-1h0c.55,0,1,.45,1,1h0c0,.55-.45,1-1,1h0c-.55,0-1-.45-1-1Z"></path><path class="cls-1" d="M60.84,27.9c0-.55,.45-1,1-1h0c.55,0,1,.45,1,1h0c0,.55-.45,1-1,1h0c-.55,0-1-.45-1-1Z"></path><path class="cls-1" d="M55.77,27.9c0-.55,.45-1,1-1h0c.55,0,1,.45,1,1h0c0,.55-.45,1-1,1h0c-.55,0-1-.45-1-1Z"></path><path class="cls-1" d="M50.54,27.9c0-.55,.45-1,1-1h0c.55,0,1,.45,1,1h0c0,.55-.45,1-1,1h0c-.55,0-1-.45-1-1Z"></path><path class="cls-1" d="M45.3,27.9c0-.55,.45-1,1-1h0c.55,0,1,.45,1,1h0c0,.55-.45,1-1,1h0c-.55,0-1-.45-1-1Z"></path><path class="cls-1" d="M40.07,27.9c0-.55,.45-1,1-1h0c.55,0,1,.45,1,1h0c0,.55-.45,1-1,1h0c-.55,0-1-.45-1-1Z"></path><path class="cls-1" d="M34.83,27.9c0-.55,.45-1,1-1h0c.55,0,1,.45,1,1h0c0,.55-.45,1-1,1h0c-.55,0-1-.45-1-1Z"></path><path class="cls-1" d="M29.6,27.9c0-.55,.45-1,1-1h0c.55,0,1,.45,1,1h0c0,.55-.45,1-1,1h0c-.55,0-1-.45-1-1Z"></path><path class="cls-1" d="M24.36,27.9c0-.55,.45-1,1-1h0c.55,0,1,.45,1,1h0c0,.55-.45,1-1,1h0c-.55,0-1-.45-1-1Z"></path><path class="cls-1" d="M19.13,27.9c0-.55,.45-1,1-1h0c.55,0,1,.45,1,1h0c0,.55-.45,1-1,1h0c-.55,0-1-.45-1-1Z"></path><path class="cls-1" d="M13.89,27.9c0-.55,.45-1,1-1h0c.55,0,1,.45,1,1h0c0,.55-.45,1-1,1h0c-.55,0-1-.45-1-1Z"></path><path class="cls-1" d="M82.95,28.89c-.26,0-.52-.11-.71-.29-.19-.19-.29-.44-.29-.71s.11-.52,.29-.71c.05-.05,.1-.09,.15-.12,.05-.04,.11-.07,.17-.09,.06-.02,.12-.04,.19-.06,.33-.07,.67,.04,.9,.27,.19,.19,.29,.44,.29,.71s-.11,.52-.29,.71c-.19,.18-.44,.29-.71,.29Z"></path><g><path class="cls-1" d="M32.91,24.19c-.26,0-.52-.11-.71-.29-.19-.19-.29-.44-.29-.71s.11-.52,.29-.71c.37-.37,1.04-.37,1.42,0,.19,.19,.29,.44,.29,.71s-.11,.52-.29,.71-.44,.29-.71,.29Z"></path><g><path class="cls-1" d="M35.64,19.15c-.46-.31-.58-.93-.27-1.39h0c.31-.46,.93-.58,1.39-.27h0c.46,.31,.58,.93,.27,1.39h0c-.19,.29-.51,.44-.83,.44h0c-.19,0-.39-.06-.56-.17Z"></path><path class="cls-1" d="M38.93,14.27c-.46-.31-.58-.93-.27-1.39h0c.31-.46,.93-.58,1.39-.27h0c.46,.31,.58,.93,.27,1.39h0c-.19,.29-.51,.44-.83,.44h0c-.19,0-.39-.05-.56-.17Z"></path><path class="cls-1" d="M42.22,9.4c-.46-.31-.58-.93-.27-1.39h0c.31-.46,.93-.58,1.39-.27h0c.46,.31,.58,.93,.27,1.39h0c-.19,.29-.51,.44-.83,.44h0c-.19,0-.39-.06-.56-.17Z"></path></g><path class="cls-1" d="M46.07,4.7c-.26,0-.52-.11-.71-.29-.19-.19-.29-.44-.29-.71s.11-.52,.29-.71c.37-.37,1.04-.37,1.41,0,.19,.19,.29,.44,.29,.71s-.11,.52-.29,.71c-.19,.19-.44,.29-.71,.29Z"></path></g><g><path class="cls-1" d="M59.24,24.19c-.26,0-.52-.11-.71-.29s-.29-.44-.29-.71,.11-.52,.29-.71c.37-.37,1.04-.37,1.42,0,.19,.19,.29,.44,.29,.71s-.11,.52-.29,.71c-.19,.19-.44,.29-.71,.29Z"></path><g><path class="cls-1" d="M55.12,18.88c-.31-.46-.19-1.08,.27-1.39h0c.46-.31,1.08-.19,1.39,.27h0c.31,.46,.19,1.08-.27,1.39h0c-.17,.12-.37,.17-.56,.17h0c-.32,0-.64-.15-.83-.44Z"></path><path class="cls-1" d="M51.83,14c-.31-.46-.19-1.08,.27-1.39h0c.46-.31,1.08-.19,1.39,.27h0c.31,.46,.19,1.08-.27,1.39h0c-.17,.12-.37,.17-.56,.17h0c-.32,0-.64-.15-.83-.44Z"></path><path class="cls-1" d="M48.54,9.13c-.31-.46-.19-1.08,.27-1.39h0c.46-.31,1.08-.19,1.39,.27h0c.31,.46,.19,1.08-.27,1.39h0c-.17,.12-.37,.17-.56,.17h0c-.32,0-.64-.15-.83-.44Z"></path></g><path class="cls-1" d="M46.07,4.7c-.26,0-.52-.11-.71-.29-.19-.19-.29-.44-.29-.71s.11-.52,.29-.71c.37-.37,1.04-.37,1.41,0,.19,.19,.29,.44,.29,.71s-.11,.52-.29,.71c-.19,.19-.44,.29-.71,.29Z"></path></g><path class="cls-1" d="M43.74,76.39c-.16-.53,.15-1.09,.68-1.24h0c.53-.16,1.08,.15,1.24,.68h0c.16,.53-.14,1.09-.67,1.24h0c-.09,.03-.19,.04-.29,.04h0c-.43,0-.83-.28-.96-.72Z"></path><path class="cls-1" d="M42.33,71.6c-.16-.53,.15-1.09,.68-1.24h0c.53-.16,1.09,.15,1.24,.68h0c.16,.53-.15,1.08-.68,1.24h0c-.09,.03-.19,.04-.28,.04h0c-.43,0-.83-.28-.96-.72Z"></path><path class="cls-1" d="M40.91,66.8c-.16-.53,.14-1.09,.67-1.24h0c.53-.16,1.09,.15,1.24,.68h0c.16,.53-.15,1.09-.68,1.24h0c-.09,.03-.19,.04-.28,.04h0c-.43,0-.83-.28-.96-.72Z"></path><path class="cls-1" d="M39.49,62.01c-.16-.53,.15-1.09,.68-1.24h0c.53-.16,1.09,.15,1.24,.68h0c.16,.53-.14,1.09-.67,1.24h0c-.09,.03-.19,.04-.29,.04h0c-.43,0-.83-.28-.96-.72Z"></path><path class="cls-1" d="M38.07,57.21c-.16-.53,.15-1.09,.68-1.24h0c.53-.16,1.09,.15,1.24,.68h0c.16,.53-.15,1.09-.68,1.24h0c-.09,.03-.19,.04-.28,.04h0c-.43,0-.83-.28-.96-.72Z"></path><path class="cls-1" d="M36.65,52.42c-.16-.53,.15-1.09,.67-1.24h0c.53-.16,1.09,.15,1.24,.67h0c.16,.53-.15,1.09-.68,1.24h0c-.09,.03-.19,.04-.28,.04h0c-.43,0-.83-.28-.96-.72Z"></path><path class="cls-1" d="M35.23,47.62c-.16-.53,.15-1.09,.68-1.24h0c.53-.16,1.09,.15,1.24,.68h0c.16,.53-.15,1.08-.67,1.24h0c-.09,.03-.19,.04-.28,.04h0c-.43,0-.83-.28-.96-.72Z"></path><path class="cls-1" d="M33.82,42.83c-.16-.53,.15-1.09,.68-1.24h0c.53-.16,1.09,.15,1.24,.68h0c.16,.53-.15,1.09-.67,1.24h0c-.1,.03-.19,.04-.28,.04h0c-.43,0-.83-.28-.96-.72Z"></path><path class="cls-1" d="M32.4,38.03c-.16-.53,.15-1.08,.67-1.24h0c.53-.16,1.09,.15,1.24,.68h0c.16,.53-.15,1.09-.68,1.24h0c-.09,.03-.19,.04-.28,.04h0c-.43,0-.83-.28-.96-.72Z"></path><path class="cls-1" d="M30.98,33.24c-.16-.53,.15-1.09,.68-1.24h0c.53-.16,1.09,.15,1.24,.68h0c.16,.53-.15,1.08-.68,1.24h0c-.09,.03-.19,.04-.28,.04h0c-.43,0-.83-.28-.96-.72Z"></path><path class="cls-1" d="M28.14,23.65c-.16-.53,.15-1.09,.68-1.24h0c.53-.16,1.09,.15,1.24,.68h0c.16,.53-.15,1.09-.68,1.24h0c-.09,.03-.19,.04-.28,.04h0c-.43,0-.83-.28-.96-.72Z"></path><path class="cls-1" d="M26.73,18.86c-.16-.53,.15-1.09,.68-1.24h0c.53-.16,1.08,.15,1.24,.68h0c.16,.53-.15,1.09-.68,1.24h0c-.09,.03-.19,.04-.28,.04h0c-.43,0-.83-.28-.96-.72Z"></path><path class="cls-1" d="M25.31,14.06c-.16-.53,.15-1.09,.68-1.24h0c.53-.16,1.09,.15,1.24,.68h0c.16,.53-.15,1.09-.68,1.24h0c-.09,.03-.19,.04-.28,.04h0c-.43,0-.83-.28-.96-.72Z"></path><path class="cls-1" d="M23.89,9.27c-.16-.53,.15-1.08,.67-1.24h0c.53-.16,1.09,.14,1.24,.67h0c.16,.53-.15,1.09-.68,1.24h0c-.09,.03-.19,.04-.28,.04h0c-.43,0-.83-.28-.96-.72Z"></path><path class="cls-1" d="M22.47,4.47c-.16-.53,.15-1.09,.67-1.24h0c.53-.16,1.09,.15,1.24,.68h0c.16,.53-.15,1.09-.68,1.24h0c-.09,.03-.19,.04-.29,.04h0c-.43,0-.83-.28-.96-.72Z"></path><path class="cls-1" d="M47.16,77.07c-.53-.16-.83-.71-.68-1.24h0c.16-.53,.71-.83,1.24-.68h0c.53,.16,.83,.71,.67,1.24h0c-.13,.44-.53,.72-.96,.72h0c-.09,0-.19-.01-.28-.04Z"></path><path class="cls-1" d="M48.58,72.27c-.53-.16-.83-.71-.68-1.24h0c.16-.53,.71-.83,1.24-.68h0c.53,.16,.83,.71,.68,1.24h0c-.13,.43-.53,.72-.96,.72h0c-.09,0-.19-.01-.28-.04Z"></path><path class="cls-1" d="M50,67.48c-.53-.16-.83-.71-.68-1.24h0c.16-.53,.71-.83,1.24-.68h0c.53,.16,.83,.71,.67,1.24h0c-.13,.43-.53,.72-.96,.72h0c-.09,0-.19-.01-.28-.04Z"></path><path class="cls-1" d="M51.42,62.68c-.53-.16-.83-.71-.68-1.24h0c.16-.53,.71-.83,1.24-.68h0c.53,.16,.83,.71,.67,1.24h0c-.13,.44-.53,.72-.96,.72h0c-.09,0-.19-.01-.28-.04Z"></path><path class="cls-1" d="M52.83,57.89c-.53-.16-.83-.71-.67-1.24h0c.16-.53,.71-.83,1.24-.68h0c.53,.16,.83,.71,.68,1.24h0c-.13,.43-.53,.72-.96,.72h0c-.09,0-.19-.01-.28-.04Z"></path><path class="cls-1" d="M54.25,53.09c-.53-.16-.83-.71-.67-1.24h0c.16-.53,.71-.83,1.24-.67h0c.53,.16,.83,.71,.67,1.24h0c-.13,.44-.53,.72-.96,.72h0c-.09,0-.19-.01-.29-.04Z"></path><path class="cls-1" d="M55.67,48.3c-.53-.16-.83-.71-.68-1.24h0c.16-.53,.71-.83,1.24-.68h0c.53,.16,.83,.71,.68,1.24h0c-.13,.43-.53,.72-.96,.72h0c-.09,0-.19-.01-.28-.04Z"></path><path class="cls-1" d="M57.09,43.5c-.53-.16-.83-.71-.67-1.24h0c.16-.53,.71-.83,1.24-.68h0c.53,.16,.83,.71,.68,1.24h0c-.13,.44-.53,.72-.96,.72h0c-.09,0-.19-.01-.28-.04Z"></path><path class="cls-1" d="M58.51,38.71c-.53-.16-.83-.71-.68-1.24h0c.16-.53,.71-.83,1.24-.68h0c.53,.16,.83,.71,.67,1.24h0c-.13,.44-.53,.72-.96,.72h0c-.09,0-.19-.01-.28-.04Z"></path><path class="cls-1" d="M59.93,33.92c-.53-.16-.83-.71-.68-1.24h0c.16-.53,.71-.83,1.24-.68h0c.53,.16,.83,.71,.67,1.24h0c-.13,.43-.53,.72-.96,.72h0c-.09,0-.19-.01-.28-.04Z"></path><path class="cls-1" d="M62.76,24.33c-.53-.16-.83-.71-.68-1.24h0c.16-.53,.71-.83,1.24-.68h0c.53,.16,.83,.71,.68,1.24h0c-.13,.44-.53,.72-.96,.72h0c-.09,0-.19-.01-.28-.04Z"></path><path class="cls-1" d="M64.18,19.53c-.53-.16-.83-.71-.68-1.24h0c.16-.53,.71-.83,1.24-.68h0c.53,.16,.83,.71,.67,1.24h0c-.13,.44-.53,.72-.96,.72h0c-.09,0-.19-.01-.28-.04Z"></path><path class="cls-1" d="M65.6,14.74c-.53-.16-.83-.71-.67-1.24h0c.16-.53,.71-.83,1.24-.68h0c.53,.16,.83,.71,.68,1.24h0c-.13,.43-.53,.72-.96,.72h0c-.09,0-.19-.01-.28-.04Z"></path><path class="cls-1" d="M67.02,9.94c-.53-.16-.83-.71-.67-1.24h0c.16-.53,.71-.83,1.24-.67h0c.53,.16,.83,.71,.68,1.24h0c-.13,.44-.53,.72-.96,.72h0c-.09,0-.19-.01-.29-.04Z"></path><path class="cls-1" d="M68.43,5.15c-.53-.16-.83-.71-.68-1.24h0c.16-.53,.71-.83,1.24-.68h0c.53,.16,.83,.71,.67,1.24h0c-.13,.43-.53,.72-.96,.72h0c-.09,0-.19-.01-.28-.04Z"></path></svg> 