<?xml version="1.0" encoding="UTF-8"?> <svg xmlns="http://www.w3.org/2000/svg" id="Layer_1" viewBox="0 0 84 84"><defs><style>.cls-1{fill:#010101;}</style></defs><rect class="cls-1" x="41.25" y="22.84" width="1.5" height="17.77"></rect><path class="cls-1" d="M43.11,46.4c0-.61-.5-1.11-1.11-1.11s-1.11,.5-1.11,1.11,.5,1.11,1.11,1.11,1.11-.5,1.11-1.11Z"></path><path class="cls-1" d="M39.4,59.47c-.55,0-1,.45-1,1s.45,1,1,1,1-.45,1-1-.45-1-1-1Z"></path><path class="cls-1" d="M34.1,59.47c-.55,0-1,.45-1,1s.45,1,1,1,1-.45,1-1-.45-1-1-1Z"></path><path class="cls-1" d="M28.8,59.47c-.55,0-1,.45-1,1s.45,1,1,1,1-.45,1-1-.45-1-1-1Z"></path><path class="cls-1" d="M23.49,59.47c-.55,0-1,.45-1,1s.45,1,1,1,1-.45,1-1-.45-1-1-1Z"></path><path class="cls-1" d="M18.19,59.47h-.03c-.55,0-1,.44-1,.99,0,.55,.44,1,1,1.01h0s.03,0,.04,0c.55,0,1-.45,1-1s-.45-1-1-1Z"></path><path class="cls-1" d="M14.04,57.82c-.4-.38-1.03-.37-1.42,.03-.38,.4-.37,1.03,.03,1.41,.19,.19,.44,.28,.69,.28s.52-.1,.72-.31c.38-.4,.37-1.03-.03-1.41h0Z"></path><path class="cls-1" d="M11.13,52.83c-.55,.03-.97,.5-.94,1.05,.03,.53,.47,.95,1,.95,.02,0,.04,0,.05,0,.55-.03,.97-.5,.94-1.05-.03-.55-.5-.97-1.05-.94Z"></path><path class="cls-1" d="M13.63,49.38c.28-.48,.12-1.09-.36-1.37-.48-.28-1.09-.12-1.37,.36-.28,.48-.12,1.09,.36,1.37,.16,.09,.33,.14,.51,.14,.34,0,.68-.18,.86-.49Z"></path><path class="cls-1" d="M15.96,43.44c-.48-.28-1.09-.12-1.37,.35-.28,.48-.12,1.09,.36,1.37,.16,.09,.33,.14,.51,.14,.34,0,.68-.18,.86-.49,.28-.48,.12-1.09-.36-1.37Z"></path><path class="cls-1" d="M17.64,40.59c.16,.09,.33,.14,.51,.14,.34,0,.68-.18,.86-.49,.28-.48,.12-1.09-.36-1.37-.48-.28-1.09-.12-1.37,.35-.28,.48-.12,1.09,.36,1.37Z"></path><path class="cls-1" d="M65.82,40.66c.17,0,.35-.04,.51-.14,.48-.28,.63-.89,.35-1.37-.28-.48-.89-.64-1.37-.36-.48,.28-.64,.89-.36,1.37,.19,.32,.52,.49,.86,.49Z"></path><path class="cls-1" d="M21.34,34.29c-.48-.28-1.09-.12-1.37,.36-.28,.48-.12,1.09,.36,1.37,.16,.09,.33,.14,.51,.14,.34,0,.68-.18,.86-.49,.28-.48,.12-1.09-.35-1.37Z"></path><path class="cls-1" d="M63.13,36.09c.17,0,.35-.04,.5-.14,.48-.28,.64-.89,.36-1.37-.28-.48-.89-.63-1.37-.35s-.63,.89-.36,1.37c.19,.32,.52,.49,.86,.49Z"></path><path class="cls-1" d="M24.02,29.71c-.48-.28-1.09-.12-1.37,.36-.28,.48-.12,1.09,.36,1.37,.16,.09,.33,.14,.5,.14,.34,0,.68-.18,.86-.49,.28-.48,.12-1.09-.36-1.37Z"></path><path class="cls-1" d="M60.45,31.51c.17,0,.35-.04,.51-.14,.48-.28,.64-.89,.36-1.37-.28-.48-.89-.64-1.37-.36-.48,.28-.64,.89-.35,1.37,.19,.32,.52,.49,.86,.49Z"></path><path class="cls-1" d="M26.71,25.14c-.48-.28-1.09-.12-1.37,.36-.28,.48-.12,1.09,.36,1.37,.16,.09,.33,.14,.51,.14,.34,0,.68-.18,.86-.49,.28-.48,.12-1.09-.35-1.37Z"></path><path class="cls-1" d="M57.76,26.94c.17,0,.35-.04,.5-.14,.48-.28,.64-.89,.36-1.37-.28-.48-.89-.64-1.37-.36-.48,.28-.63,.89-.36,1.37,.19,.32,.52,.49,.86,.49Z"></path><path class="cls-1" d="M29.4,20.57c-.48-.28-1.09-.12-1.37,.36-.28,.48-.12,1.09,.36,1.37,.16,.09,.33,.14,.5,.14,.34,0,.68-.18,.86-.49,.28-.48,.12-1.09-.36-1.37Z"></path><path class="cls-1" d="M55.07,22.37c.17,0,.35-.04,.51-.14,.48-.28,.63-.89,.35-1.37-.28-.48-.89-.64-1.37-.36-.48,.28-.64,.89-.35,1.37,.19,.32,.52,.49,.86,.49Z"></path><path class="cls-1" d="M32.08,15.99c-.48-.28-1.09-.12-1.37,.35-.28,.48-.12,1.09,.35,1.37,.16,.09,.33,.14,.51,.14,.34,0,.68-.18,.86-.49,.28-.48,.12-1.09-.35-1.37Z"></path><path class="cls-1" d="M52.39,17.79c.17,0,.35-.04,.51-.14,.48-.28,.64-.89,.36-1.37-.28-.48-.89-.63-1.37-.36-.48,.28-.64,.89-.36,1.37,.19,.32,.52,.49,.86,.49Z"></path><path class="cls-1" d="M34.77,11.42c-.48-.28-1.09-.12-1.37,.36-.28,.48-.12,1.09,.36,1.37,.16,.09,.33,.14,.5,.14,.34,0,.68-.18,.86-.49,.28-.48,.12-1.09-.36-1.37Z"></path><path class="cls-1" d="M49.7,13.22c.17,0,.35-.04,.51-.14,.48-.28,.63-.89,.36-1.37-.28-.48-.89-.63-1.37-.35s-.63,.89-.36,1.37c.19,.32,.52,.49,.86,.49Z"></path><path class="cls-1" d="M36.47,7.14c-.4,.38-.41,1.02-.03,1.41,.2,.2,.46,.31,.72,.31s.5-.09,.69-.28c.4-.38,.41-1.02,.03-1.42-.38-.4-1.02-.41-1.41-.03Z"></path><path class="cls-1" d="M46.78,8.81c.27,0,.53-.1,.73-.31,.38-.4,.36-1.04-.04-1.41-.4-.38-1.03-.36-1.41,.04-.38,.4-.36,1.04,.04,1.41,.19,.18,.44,.27,.69,.27Z"></path><path class="cls-1" d="M41.96,6.93h0c.55,0,1-.45,1-1.01,0-.55-.45-1-1.01-.99-.55,0-1,.45-.99,1.01,0,.55,.45,.99,1,.99Z"></path><path class="cls-1" d="M62.25,42.88c-10.86,0-19.7,8.84-19.7,19.7s8.84,19.7,19.7,19.7,19.7-8.84,19.7-19.7-8.84-19.7-19.7-19.7Zm0,37.89c-10.03,0-18.2-8.16-18.2-18.2s8.16-18.2,18.2-18.2,18.2,8.16,18.2,18.2-8.16,18.2-18.2,18.2Z"></path><polygon class="cls-1" points="63.2 71.1 63.18 53 61.68 53 61.7 71.17 53.37 62.84 52.31 63.9 62.42 74.01 72.37 64.05 71.31 62.99 63.2 71.1"></polygon></svg> 