<?xml version="1.0" encoding="UTF-8"?> <svg xmlns="http://www.w3.org/2000/svg" id="Layer_1" viewBox="0 0 80 80"><path d="m72,72.38v-3.18H8v3.18h-3.97v4.18h71.94v-4.18h-3.97Zm-63.01-2.18h62.01v2.18H9v-2.18Zm-3.97,5.36v-2.18h69.94v2.18H5.03Z"></path><path d="m75.47,20.33h-3.47v-3.18h-.37l-20.23-10.8c-2.91-2.93-6.94-4.75-11.4-4.75-4.46,0-8.49,1.82-11.4,4.75l-20.23,10.8h-.37v3.18h-3.97v4.18h71.94v-4.18h-.5Zm-5.97-3.18h-13.48c-.1-3.26-1.16-6.27-2.93-8.76l16.41,8.76ZM40,2.6c4.16,0,7.92,1.68,10.64,4.41,2.61,2.61,4.25,6.19,4.38,10.14h-30.05c.13-3.96,1.77-7.53,4.38-10.14,2.73-2.72,6.48-4.41,10.64-4.41Zm-13.1,5.79c-1.76,2.49-2.83,5.5-2.93,8.76h-13.48l16.41-8.76Zm-17.91,9.76h62.01v2.18H9v-2.18Zm-3.97,5.36v-2.18h69.94v2.18H5.03Z"></path><path d="m9.02,29.08c.2,0,.39-.08.53-.22.14-.14.22-.33.22-.53s-.08-.39-.22-.53c-.14-.14-.33-.22-.53-.22s-.39.08-.53.22c-.14.14-.22.33-.22.53s.08.39.22.53c.14.14.33.22.53.22Z"></path><circle cx="9.02" cy="51.28" r=".75"></circle><circle cx="9.02" cy="46.69" r=".75"></circle><circle cx="9.02" cy="32.92" r=".75"></circle><circle cx="9.02" cy="42.1" r=".75"></circle><circle cx="9.02" cy="37.51" r=".75"></circle><path d="m8.49,56.4c.14.14.33.22.53.22s.39-.08.53-.22c.14-.14.22-.33.22-.53s-.08-.39-.22-.53c-.14-.14-.33-.22-.53-.22s-.39.08-.53.22c-.14.14-.22.33-.22.53s.08.39.22.53Z"></path><path d="m70.45,56.4c.14.14.33.22.53.22s.39-.08.53-.22c.14-.14.22-.33.22-.53s-.08-.39-.22-.53c-.14-.14-.33-.22-.53-.22s-.39.08-.53.22c-.14.14-.22.33-.22.53s.08.39.22.53Z"></path><circle cx="70.98" cy="42.1" r=".75"></circle><circle cx="70.98" cy="51.28" r=".75"></circle><circle cx="70.98" cy="37.51" r=".75"></circle><circle cx="70.98" cy="46.69" r=".75"></circle><circle cx="70.98" cy="32.92" r=".75"></circle><path d="m70.98,29.08c.2,0,.39-.08.53-.22.14-.14.22-.33.22-.53s-.08-.39-.22-.53c-.14-.14-.33-.22-.53-.22s-.39.08-.53.22c-.14.14-.22.33-.22.53s.08.39.22.53c.14.14.33.22.53.22Z"></path><path d="m66.26,62.95c0,.84.22,1.69.69,2.46.89,1.46,2.45,2.27,4.04,2.27.84,0,1.69-.22,2.46-.69,1.46-.89,2.27-2.45,2.27-4.04,0-.84-.22-1.69-.69-2.46-.89-1.46-2.45-2.27-4.04-2.27-.84,0-1.69.22-2.46.69-1.46.89-2.27,2.45-2.27,4.04Zm4.72-3.73c1.26,0,2.48.63,3.19,1.79.37.61.55,1.28.55,1.94,0,1.26-.63,2.48-1.79,3.19-.61.37-1.28.55-1.94.55-1.26,0-2.48-.63-3.19-1.79-.37-.61-.55-1.28-.55-1.94,0-1.26.63-2.48,1.79-3.19.61-.37,1.28-.55,1.94-.55Z"></path><path d="m64,59.5c.14.14.33.22.53.22s.39-.08.53-.22c.14-.14.22-.33.22-.53s-.08-.39-.22-.53c-.14-.14-.33-.22-.53-.22s-.39.08-.53.22c-.14.14-.22.33-.22.53s.08.39.22.53Z"></path><path d="m49.67,42.76c-.31.28-.33.75-.05,1.06.28.31.75.33,1.06.05.31-.28.33-.75.05-1.06s-.75-.33-1.06-.05Z"></path><path d="m53.26,46.68c-.31.28-.33.75-.05,1.06s.75.33,1.06.05c.31-.28.33-.75.05-1.06-.28-.31-.75-.33-1.06-.05Z"></path><path d="m56.85,50.59c-.31.28-.33.75-.05,1.06.28.31.75.33,1.06.05.31-.28.33-.75.05-1.06s-.75-.33-1.06-.05Z"></path><path d="m60.43,54.5c-.31.28-.33.75-.05,1.06s.75.33,1.06.05c.31-.28.33-.75.05-1.06-.28-.31-.75-.33-1.06-.05Z"></path><path d="m46.6,38.66c-.2,0-.39.08-.53.22-.14.14-.22.33-.22.53s.08.39.22.53c.14.14.33.22.53.22s.39-.08.53-.22c.14-.14.22-.33.22-.53s-.08-.39-.22-.53c-.14-.14-.33-.22-.53-.22Z"></path><path d="m4.98,60.48c-.47.77-.69,1.62-.69,2.46,0,1.59.81,3.15,2.27,4.04.77.47,1.62.69,2.46.69,1.59,0,3.15-.81,4.04-2.27.47-.77.69-1.62.69-2.46,0-1.59-.81-3.15-2.27-4.04-.77-.47-1.62-.69-2.46-.69-1.59,0-3.15.81-4.04,2.27Zm4.04-1.27c.66,0,1.33.18,1.94.55,1.15.7,1.79,1.93,1.79,3.19,0,.66-.18,1.33-.55,1.94-.7,1.15-1.93,1.79-3.19,1.79-.66,0-1.33-.18-1.94-.55-1.15-.7-1.79-1.93-1.79-3.19,0-.66.18-1.33.55-1.94.7-1.15,1.93-1.79,3.19-1.79Z"></path><path d="m14.94,58.44c-.14.14-.22.33-.22.53s.08.39.22.53c.14.14.33.22.53.22s.39-.08.53-.22c.14-.14.22-.33.22-.53s-.08-.39-.22-.53c-.14-.14-.33-.22-.53-.22s-.39.08-.53.22Z"></path><path d="m19.61,55.56c.28-.31.26-.78-.05-1.06-.31-.28-.78-.26-1.06.05-.28.31-.26.78.05,1.06.31.28.78.26,1.06-.05Z"></path><path d="m23.2,51.65c.28-.31.26-.78-.05-1.06-.31-.28-.78-.26-1.06.05s-.26.78.05,1.06c.31.28.78.26,1.06-.05Z"></path><path d="m30.37,43.82c.28-.31.26-.78-.05-1.06-.31-.28-.78-.26-1.06.05s-.26.78.05,1.06c.31.28.78.26,1.06-.05Z"></path><path d="m26.79,47.74c.28-.31.26-.78-.05-1.06-.31-.28-.78-.26-1.06.05-.28.31-.26.78.05,1.06.31.28.78.26,1.06-.05Z"></path><path d="m33.94,39.94c.14-.14.22-.33.22-.53s-.08-.39-.22-.53c-.14-.14-.33-.22-.53-.22s-.39.08-.53.22c-.14.14-.22.33-.22.53s.08.39.22.53c.14.14.33.22.53.22s.39-.08.53-.22Z"></path><path d="m35.28,63.06c0,.16.01.32.03.49.01.09.03.18.05.27.02.11.04.23.07.34.02.09.06.17.08.26.04.11.07.23.12.34.03.08.07.15.11.23.06.12.12.24.18.35.02.03.03.05.04.08h0s.06.09.09.13c.07.1.13.2.21.29.06.07.12.14.18.21.07.08.14.16.22.24.08.08.15.15.23.22.07.06.14.12.21.18.09.07.19.14.29.21.05.03.09.07.13.09.03.02.05.03.08.04.11.07.23.13.35.18.08.04.15.07.23.11.11.05.23.08.34.12.09.03.17.06.26.08.11.03.23.05.34.07.09.02.17.04.26.05.16.02.33.03.49.03.04,0,.08,0,.11,0,0,0,0,0,0,0,0,0,0,0,0,0,.04,0,.08,0,.11,0,.16,0,.33-.01.49-.03.09-.01.17-.03.26-.05.11-.02.23-.04.34-.07.09-.02.17-.06.26-.08.11-.04.23-.07.34-.12.08-.03.15-.07.23-.11.12-.06.24-.12.35-.18.03-.02.05-.03.08-.04.05-.03.09-.06.13-.09.1-.07.2-.13.29-.21.07-.06.14-.12.21-.18.08-.07.16-.14.24-.22.08-.08.15-.15.22-.23.06-.07.12-.14.18-.22.07-.09.14-.19.21-.29.03-.05.07-.09.09-.13h0s.03-.05.04-.08c.07-.12.13-.23.18-.35.04-.07.07-.15.11-.22.05-.11.08-.23.12-.34.03-.08.06-.17.08-.25.03-.11.05-.23.07-.35.02-.09.04-.17.05-.26.02-.17.03-.34.03-.52,0-.03,0-.06,0-.09,0,0,0,0,0,0,0,0,0,0,0,0,0-.05,0-.1,0-.14,0-.15-.01-.31-.03-.46-.01-.09-.04-.18-.05-.28-.02-.11-.04-.22-.07-.33-.02-.09-.06-.18-.09-.26-.04-.11-.07-.22-.12-.33-.03-.08-.07-.15-.11-.23-.06-.12-.11-.24-.18-.35-.02-.03-.03-.05-.04-.08-.03-.05-.06-.09-.09-.13-.07-.1-.13-.2-.21-.29-.06-.07-.12-.14-.18-.21-.07-.08-.14-.16-.22-.24-.08-.08-.15-.15-.23-.22-.07-.06-.14-.12-.22-.18-.09-.07-.19-.14-.29-.21-.05-.03-.09-.07-.13-.09-.03-.02-.05-.03-.08-.04-.11-.07-.23-.12-.35-.18-.08-.04-.15-.08-.23-.11-.11-.05-.22-.08-.33-.12-.09-.03-.17-.06-.26-.08-.11-.03-.22-.05-.34-.07-.09-.02-.18-.04-.27-.05-.16-.02-.32-.03-.48-.03-.04,0-.08,0-.12,0,0,0,0,0,0,0s0,0,0,0c-.04,0-.08,0-.12,0-.16,0-.32.01-.48.03-.09.01-.18.03-.27.05-.11.02-.23.04-.34.07-.09.02-.17.06-.26.08-.11.04-.23.07-.34.12-.08.03-.15.07-.23.11-.12.06-.23.11-.35.18-.03.02-.05.03-.08.04-.05.03-.09.06-.13.1-.1.07-.2.13-.29.21-.07.06-.15.12-.22.18-.08.07-.16.14-.23.22-.08.08-.15.16-.22.24-.06.07-.12.14-.18.21-.07.1-.14.19-.21.29-.03.05-.07.09-.09.13-.02.03-.03.05-.04.08-.07.11-.12.23-.18.35-.04.08-.07.15-.11.23-.05.11-.08.22-.12.34-.03.09-.06.17-.08.26-.03.11-.05.22-.07.34-.02.09-.04.18-.05.27-.02.16-.03.32-.03.49,0,.04,0,.08,0,.12,0,0,0,0,0,0s0,0,0,0c0,.04,0,.08,0,.12Zm1-.26c0-.11,0-.23.02-.34.01-.08.03-.16.05-.24.02-.08.03-.15.05-.23.02-.07.05-.15.07-.22.03-.09.06-.17.09-.26.02-.06.05-.12.08-.18.05-.09.09-.19.15-.28.03-.05.07-.11.1-.16.05-.08.11-.16.17-.24.04-.06.09-.11.14-.17.06-.06.11-.13.17-.19.06-.06.12-.12.19-.17.05-.05.11-.09.17-.14.08-.06.16-.11.24-.17.05-.04.11-.07.16-.1.09-.05.19-.1.28-.15.06-.03.12-.06.18-.08.08-.03.17-.06.26-.09.07-.02.14-.05.22-.07.08-.02.15-.03.23-.05.08-.02.16-.04.25-.05.11-.01.22-.02.34-.02.05,0,.09,0,.14,0,.05,0,.09,0,.14,0,.11,0,.22,0,.34.02.08.01.17.03.25.05.08.01.15.03.23.05.07.02.15.05.22.07.08.03.17.05.25.09.06.02.12.06.18.08.09.05.19.09.28.15.06.03.11.07.16.1.08.05.16.11.24.17.06.04.11.09.17.14.06.06.13.11.19.17.06.06.12.12.18.19.05.05.09.11.14.16.06.08.12.16.17.24.03.05.07.1.1.16.05.09.1.19.15.28.03.06.06.12.08.18.03.08.06.17.09.25.02.07.05.15.07.22.02.07.03.15.05.22.02.08.04.17.05.25.01.1.02.2.02.31,0,.06.01.11.01.17,0,.03,0,.07,0,.1,0,.12,0,.25-.02.37-.01.08-.03.16-.04.24-.02.08-.03.16-.05.24-.02.07-.05.14-.07.21-.03.09-.06.17-.09.26-.02.06-.05.12-.08.17-.05.1-.09.19-.15.28-.03.05-.07.11-.1.16-.05.08-.11.16-.17.24-.04.06-.09.11-.14.16-.06.06-.11.13-.17.19-.06.06-.12.12-.19.17-.05.05-.11.09-.17.14-.08.06-.16.11-.24.17-.05.04-.11.07-.16.1-.09.05-.19.1-.28.15-.06.03-.12.06-.18.08-.08.03-.17.06-.25.09-.07.02-.14.05-.22.07-.08.02-.15.03-.23.05-.08.02-.16.04-.24.05-.11.01-.23.02-.34.02-.05,0-.09,0-.14,0-.05,0-.09,0-.14,0-.11,0-.23,0-.34-.02-.08-.01-.16-.03-.24-.05-.08-.02-.16-.03-.23-.05-.07-.02-.14-.05-.22-.07-.09-.03-.17-.06-.25-.09-.06-.02-.12-.06-.18-.08-.09-.05-.19-.09-.28-.15-.06-.03-.11-.07-.16-.1-.08-.05-.16-.11-.24-.17-.06-.04-.11-.09-.17-.14-.06-.06-.13-.11-.19-.17-.06-.06-.12-.12-.17-.19-.05-.05-.09-.11-.14-.16-.06-.08-.12-.16-.17-.24-.03-.05-.07-.11-.1-.16-.05-.09-.1-.19-.15-.28-.03-.06-.06-.12-.08-.18-.04-.08-.06-.17-.09-.26-.02-.07-.05-.14-.07-.22-.02-.08-.03-.15-.05-.23-.02-.08-.04-.16-.05-.24-.01-.11-.02-.23-.02-.34,0-.05,0-.09,0-.14,0-.05,0-.09,0-.14Z"></path><path d="m40,29.08c.2,0,.39-.08.53-.22.14-.14.22-.33.22-.53s-.08-.39-.22-.53c-.14-.14-.33-.22-.53-.22s-.39.08-.53.22c-.14.14-.22.33-.22.53s.08.39.22.53c.14.14.33.22.53.22Z"></path><circle cx="40" cy="43.57" r=".75"></circle><circle cx="40" cy="48.64" r=".75"></circle><circle cx="40" cy="38.49" r=".75"></circle><circle cx="40" cy="33.41" r=".75"></circle><path d="m39.47,54.25c.14.14.33.22.53.22s.39-.08.53-.22c.14-.14.22-.33.22-.53s-.08-.39-.22-.53c-.14-.14-.33-.22-.53-.22s-.39.08-.53.22c-.14.14-.22.33-.22.53s.08.39.22.53Z"></path></svg> 