<?xml version="1.0" encoding="UTF-8"?> <svg xmlns="http://www.w3.org/2000/svg" id="Layer_1" data-name="Layer 1" viewBox="0 0 80 80"><defs><style> .cls-1 { fill: #fff; stroke-width: 0px; } </style></defs><path class="cls-1" d="M16.07,35.27c0-2.25-1.83-4.08-4.08-4.08-2.25,0-4.08,1.83-4.08,4.08,0,2.26,1.83,4.08,4.08,4.08,2.25,0,4.08-1.83,4.08-4.08ZM8.9,35.27c0-1.7,1.38-3.08,3.08-3.08,1.7,0,3.08,1.38,3.08,3.08,0,1.7-1.38,3.08-3.08,3.08-1.7,0-3.08-1.38-3.08-3.08Z"></path><path class="cls-1" d="M28.99,22.34c2.25,0,4.08-1.83,4.08-4.08,0-2.25-1.83-4.08-4.08-4.08-2.25,0-4.08,1.83-4.08,4.08,0,2.25,1.83,4.08,4.08,4.08ZM28.99,15.18c1.7,0,3.08,1.38,3.08,3.08,0,1.7-1.38,3.08-3.08,3.08-1.7,0-3.08-1.38-3.08-3.08,0-1.7,1.38-3.08,3.08-3.08Z"></path><path class="cls-1" d="M16.08,31.67c.13,0,.26-.05.35-.15s.15-.22.15-.35-.05-.26-.15-.35-.22-.15-.35-.15-.26.05-.35.15-.15.22-.15.35.05.26.15.35.22.15.35.15Z"></path><circle class="cls-1" cx="18.7" cy="28.55" r=".5"></circle><circle class="cls-1" cx="21.31" cy="25.94" r=".5"></circle><path class="cls-1" d="M23.92,23.83c.13,0,.26-.05.35-.15s.15-.22.15-.35-.05-.26-.15-.35-.22-.15-.35-.15-.26.05-.35.15-.15.22-.15.35.05.26.15.35.22.15.35.15Z"></path><path class="cls-1" d="M43.96,35.95c2.25,0,4.08-1.83,4.08-4.08,0-2.25-1.83-4.08-4.08-4.08-2.26,0-4.08,1.83-4.08,4.08,0,2.26,1.83,4.08,4.08,4.08ZM43.96,28.78c1.7,0,3.08,1.38,3.08,3.08,0,1.7-1.38,3.08-3.08,3.08-1.7,0-3.08-1.38-3.08-3.08,0-1.7,1.38-3.08,3.08-3.08Z"></path><path class="cls-1" d="M34.99,23.83c.13,0,.26-.05.35-.15s.15-.22.15-.35-.05-.26-.15-.35-.22-.15-.35-.15-.26.05-.35.15-.15.22-.15.35.05.26.15.35.22.15.35.15Z"></path><circle class="cls-1" cx="37.31" cy="25.65" r=".5"></circle><path class="cls-1" d="M39.63,28.47c.13,0,.26-.05.35-.15s.15-.22.15-.35-.05-.26-.15-.35-.22-.15-.35-.15-.26.05-.35.15-.15.22-.15.35.05.26.15.35.22.15.35.15Z"></path><path class="cls-1" d="M70.37,36.27c-.92-.93-2.18-1.42-3.42-1.42-.84,0-1.67.25-2.39.74-.77-.48-1.66-.74-2.54-.74-.84,0-1.67.25-2.39.74-.77-.48-1.66-.74-2.54-.74-.98,0-1.97.32-2.74,1-2.19,1.93-8.21,7.37-9.22,8.28h-18c-6.46,0-9.91,3.3-11.18,4.57-1.22,1.22-1.32,1.32-1.32,1.32l-4.59,4.59.15.15.4.4.15.15,4.59-4.59-.15-.15-.2-.2.35.35s.07-.07,1.32-1.32c1.23-1.22,4.37-4.27,10.47-4.28h20.45c.63,0,1.38.28,1.95.82.57.54.97,1.31.97,2.32,0,.11,0,.22-.01.33-.07.79-.3,1.34-.61,1.75-.46.62-1.11.94-1.67,1.1-.28.08-.53.12-.7.14l-.2.02h-.05s0,0,0,0h-14.9v1h14.9s.97,0,1.98-.48c.51-.24,1.03-.62,1.46-1.18.39-.52.67-1.21.78-2.06.25-.23.84-.78,1.65-1.53,3.25-3,9.97-9.2,11.76-10.77.57-.5,1.31-.75,2.08-.75.97,0,1.99.4,2.71,1.13.65.65.94,1.53.94,2.4,0,.93-.35,1.84-.88,2.37-.8.8-4.29,4.27-7.77,7.76-3.49,3.49-6.97,6.99-7.8,7.9-.78.85-1.74,1.77-2.86,2.47-1.13.7-2.41,1.18-3.87,1.18h-.15s0,0,0,0h-16.6c-.96,0-1.91.12-2.83.35-1.19.3-2.24.94-3.09,1.79l-2.89,2.86.15.15h0l.2.2.35.36,2.89-2.86c.74-.73,1.64-1.28,2.63-1.53.84-.21,1.71-.32,2.59-.32h16.76c1.69,0,3.16-.56,4.4-1.33,1.24-.77,2.26-1.76,3.07-2.64.79-.86,4.29-4.38,7.77-7.87,3.49-3.49,6.97-6.96,7.77-7.76.76-.77,1.17-1.9,1.17-3.07,0-1.09-.37-2.23-1.23-3.1ZM57.1,35.85c.58,0,1.18.14,1.71.41-2.41,2.16-7.82,7.15-9.24,8.46-.62-.39-1.31-.6-1.98-.6h-.96c.05-.05.09-.08.15-.13,2.08-1.87,6.45-5.82,8.24-7.39.57-.5,1.31-.75,2.08-.75ZM50.35,45.36c.21-.19.46-.43.78-.72,2.26-2.09,7.02-6.47,8.81-8.04.57-.5,1.31-.75,2.08-.75.58,0,1.18.14,1.72.41-2.58,2.31-9.9,9.06-12.31,11.29-.14-.89-.54-1.63-1.08-2.19Z"></path><path class="cls-1" d="M48.13,28.36c.13,0,.26-.05.35-.15s.15-.22.15-.35-.05-.26-.15-.35-.22-.15-.35-.15-.26.05-.35.15-.15.22-.15.35.05.26.15.35.22.15.35.15Z"></path><path class="cls-1" d="M54.78,19.78c-.19.2-.17.52.03.71s.52.17.71-.03.17-.52-.03-.71-.52-.17-.71.03Z"></path><path class="cls-1" d="M57.12,17.19c-.19.2-.17.52.03.71s.52.17.71-.03.17-.52-.03-.71-.52-.17-.71.03Z"></path><path class="cls-1" d="M53.18,23.03c.19-.2.17-.52-.03-.71s-.52-.17-.71.03-.17.52.03.71.52.17.71-.03Z"></path><path class="cls-1" d="M50.84,25.61c.19-.2.17-.52-.03-.71s-.52-.17-.71.03-.17.52.03.71.52.17.71-.03Z"></path><path class="cls-1" d="M59.48,14.59c-.09.09-.15.22-.15.35s.05.26.15.35.22.15.35.15.26-.05.35-.15.15-.22.15-.35-.05-.26-.15-.35-.22-.15-.35-.15-.26.05-.35.15Z"></path><polygon class="cls-1" points="63.06 11.99 63.25 20.59 64.25 20.57 64.04 10.97 54.58 11.18 54.6 12.18 63.06 11.99"></polygon></svg> 