<?xml version="1.0" encoding="UTF-8"?> <svg xmlns="http://www.w3.org/2000/svg" id="Layer_1" data-name="Layer 1" viewBox="0 0 80 80"><defs><style> .cls-1 { fill: #fff; stroke-width: 0px; } </style></defs><path class="cls-1" d="M24.21,23.64c-.09-.09-.22-.15-.35-.15s-.26.05-.35.15-.15.22-.15.35.05.26.15.35.22.15.35.15.26-.05.35-.15.15-.22.15-.35-.05-.26-.15-.35ZM28.44,28.58c-.09.09-.15.22-.15.35s.05.26.15.35.22.15.35.15.26-.05.35-.15.15-.22.15-.35-.05-.26-.15-.35-.22-.15-.35-.15-.26.05-.35.15ZM25.82,53.35c-.2.2-.2.51,0,.71s.51.2.71,0,.2-.51,0-.71-.51-.2-.71,0ZM50.98,28.2c-.09.09-.15.22-.15.35s.05.26.15.35.22.15.35.15.26-.05.35-.15.15-.22.15-.35-.05-.26-.15-.35-.22-.15-.35-.15-.26.05-.35.15ZM26.68,26.11c-.2-.2-.51-.2-.71,0s-.2.51,0,.71.51.2.71,0,.2-.51,0-.71ZM66.5,56.12c2.78-4.66,4.37-10.11,4.37-15.93,0-6.32-1.88-12.2-5.11-17.11l-.84.55c3.13,4.75,4.95,10.44,4.95,16.56,0,5.64-1.54,10.91-4.23,15.42l.86.51ZM56.71,17.05l-.04.25c-.04.25-.06.5-.06.74v.02s0,0,0,0h0s0,.02,0,.02c0,.25.03.49.06.74l.04.25.04.22.07.21c.05.16.1.31.15.46.05.13.11.26.17.38.06.13.13.26.21.38.08.13.16.25.24.37.08.11.17.22.25.33.1.11.19.22.3.32.1.1.21.2.31.29s.22.18.33.26c.12.08.24.16.36.24.13.08.26.14.39.21.12.06.25.12.38.17.15.06.31.11.47.16l.21.07.22.04.25.04c.25.04.5.06.74.06h.02s0,0,0,0h0s.02,0,.02,0c.25,0,.49-.03.74-.06l.25-.04.22-.04.21-.07c.16-.04.31-.09.46-.15.13-.05.26-.11.38-.17.13-.06.26-.13.38-.21.13-.08.25-.16.37-.24.11-.08.22-.17.33-.26.11-.09.22-.19.32-.29.1-.1.2-.21.29-.32.09-.11.18-.22.26-.33.08-.12.16-.24.24-.37.08-.13.14-.25.21-.39.06-.12.12-.25.17-.38.06-.15.11-.31.16-.46l.07-.21.04-.22.04-.25c.04-.25.06-.5.06-.74v-.02s0,0,0,0h0s0-.02,0-.02c0-.25-.03-.49-.06-.74l-.04-.25-.04-.22-.07-.21c-.05-.16-.1-.31-.16-.46-.05-.13-.11-.25-.17-.38-.06-.13-.13-.26-.21-.39s-.15-.25-.24-.37c-.08-.11-.17-.22-.26-.33-.09-.11-.19-.22-.29-.32-.1-.1-.21-.2-.32-.29-.11-.09-.22-.18-.33-.26-.12-.09-.24-.17-.37-.24-.12-.07-.25-.14-.38-.21-.12-.06-.25-.12-.38-.17-.15-.06-.3-.11-.46-.15l-.21-.07-.22-.04-.25-.04c-.25-.04-.5-.06-.74-.06h-.02s0,0,0,0h-.02c-.25,0-.49.03-.74.06l-.25.04-.22.04-.21.07c-.16.05-.31.1-.47.16-.13.05-.25.11-.38.17-.13.06-.26.13-.39.21-.12.07-.25.15-.36.24-.12.08-.23.17-.33.26s-.21.19-.31.29c-.1.1-.2.21-.3.32-.09.11-.17.21-.25.33-.09.12-.17.24-.24.37-.07.12-.14.25-.21.38-.06.12-.12.25-.17.38-.06.15-.11.31-.15.46l-.07.21-.04.22ZM57.6,18.04c0-.2.02-.4.05-.6l.04-.2c.02-.12.06-.23.09-.35.04-.13.08-.25.12-.37.04-.11.09-.21.14-.32.05-.1.1-.2.16-.3.06-.1.13-.21.2-.31l.2-.26c.08-.09.16-.18.24-.26l.25-.23c.09-.07.18-.14.27-.21.1-.07.2-.13.3-.2.1-.06.2-.11.31-.17.1-.05.21-.1.31-.14.12-.05.25-.09.37-.12.12-.03.23-.07.35-.09l.2-.04c.2-.03.39-.05.6-.05h.02s.02,0,.02,0c.2,0,.4.02.6.05l.2.04c.12.02.24.06.35.09.12.04.25.08.37.12.11.04.21.09.32.14.1.05.2.1.3.16.1.06.21.13.31.2l.26.2.26.24.24.26c.07.08.14.17.21.26.07.1.14.2.2.3.06.1.11.2.16.3.05.1.1.21.14.31.05.12.09.24.12.37.03.12.07.23.09.35l.04.2c.03.2.05.39.05.6v.02s0,.02,0,.02c0,.2-.02.4-.05.6l-.04.2c-.02.12-.06.23-.09.35-.04.13-.08.25-.12.37-.04.11-.09.21-.14.31-.05.1-.1.2-.16.3-.06.1-.13.2-.2.3-.07.09-.13.18-.21.26l-.24.26-.26.24c-.08.07-.17.14-.26.2-.1.07-.2.14-.3.2-.1.06-.2.11-.3.16-.1.05-.21.1-.32.14-.12.05-.24.09-.37.12-.12.03-.23.07-.35.09l-.2.04c-.2.03-.4.05-.6.05h-.02s-.02,0-.02,0c-.2,0-.4-.02-.6-.05l-.2-.04c-.12-.02-.23-.06-.35-.09-.13-.04-.25-.08-.37-.12-.11-.04-.21-.09-.31-.14-.1-.05-.21-.11-.31-.17-.1-.06-.2-.13-.3-.19-.09-.07-.18-.14-.27-.21l-.25-.23c-.08-.08-.17-.17-.24-.26l-.2-.26c-.07-.1-.14-.2-.2-.31-.06-.1-.11-.2-.16-.3-.05-.1-.1-.21-.14-.32-.05-.12-.09-.24-.12-.37-.03-.12-.07-.23-.09-.35l-.04-.2c-.03-.2-.05-.4-.05-.6v-.02s0-.02,0-.02ZM56.64,56.01c.13,0,.26-.05.35-.15s.15-.22.15-.35-.05-.26-.15-.35-.22-.15-.35-.15-.26.05-.35.15-.15.22-.15.35.05.26.15.35.22.15.35.15ZM33.94,10.55c1.86-.36,3.78-.55,5.75-.55,5.39,0,10.45,1.41,14.83,3.89.57.32,1.13.67,1.68,1.03l.55-.84c-.57-.37-1.15-.72-1.74-1.06-4.53-2.56-9.76-4.02-15.33-4.02-2.03,0-4.02.19-5.94.57-3.55.69-6.89,1.97-9.91,3.76l.51.86c2.92-1.72,6.15-2.97,9.59-3.63ZM54.52,53.4c.2-.2.2-.51,0-.71s-.51-.2-.71,0-.2.51,0,.71.51.2.71,0ZM54.06,25.82c-.2-.2-.51-.2-.71,0s-.2.51,0,.71.51.2.71,0,.2-.51,0-.71ZM56.58,23.8c0-.13-.05-.26-.15-.35s-.22-.15-.35-.15-.26.05-.35.15-.15.22-.15.35.05.26.15.35.22.15.35.15.26-.05.35-.15.15-.22.15-.35ZM67.04,60.62l-.04-.24-.04-.22-.07-.21c-.05-.16-.1-.31-.16-.46-.05-.13-.11-.25-.17-.38-.06-.13-.13-.26-.21-.39-.07-.12-.15-.24-.24-.36-.08-.12-.17-.23-.26-.34-.09-.11-.19-.21-.28-.31-.1-.1-.21-.2-.33-.3-.1-.09-.21-.17-.32-.25-.12-.09-.25-.17-.38-.25-.12-.07-.25-.14-.37-.2-.13-.06-.25-.12-.39-.17-.15-.06-.3-.11-.46-.15l-.22-.07-.22-.04-.25-.04c-.25-.04-.5-.06-.74-.06h-.02s0,0,0,0h0s-.02,0-.02,0c-.25,0-.49.03-.74.06l-.25.04-.22.04-.21.07c-.16.05-.31.1-.46.16-.13.05-.25.11-.38.17-.13.06-.26.13-.39.21-.13.07-.25.15-.36.24-.11.08-.22.17-.33.26-.11.09-.21.19-.32.29-.1.1-.2.21-.3.32-.09.11-.17.21-.25.33-.09.12-.17.24-.24.37-.07.12-.14.25-.2.38-.06.12-.12.25-.17.38-.06.15-.11.3-.15.46l-.07.21-.04.22-.04.25c-.04.25-.06.5-.06.75v.02s0,0,0,0h0s0,.02,0,.02c0,.25.03.5.06.75l.04.25.04.22.07.21c.05.16.1.31.16.46.05.13.11.26.17.38.06.13.13.26.21.38.08.13.15.25.24.37.08.11.17.22.26.33.09.11.19.22.29.32s.21.2.32.29c.11.09.22.18.33.26.12.08.24.16.37.24.12.07.25.14.38.21.12.06.25.12.38.17.15.06.31.11.46.16l.21.07.22.04.25.04c.25.04.5.06.75.06h.02s0,0,0,0h.02c.25,0,.5-.03.75-.06l.25-.04.22-.04.21-.07c.16-.05.31-.1.46-.16.13-.05.25-.11.38-.17.13-.06.26-.13.38-.21s.25-.15.37-.24c.11-.08.22-.17.33-.26.11-.09.22-.19.32-.29.1-.1.2-.21.29-.32.09-.11.17-.21.26-.33.09-.12.17-.24.24-.37.07-.12.14-.25.21-.38.06-.12.12-.25.17-.38.06-.15.11-.3.15-.46l.07-.21.04-.22.04-.24c.04-.25.06-.5.06-.75v-.02s0,0,0,0h0s0-.02,0-.02c0-.25-.03-.5-.06-.75ZM66.1,61.41c0,.2-.02.4-.05.6l-.04.2c-.02.12-.06.24-.09.35-.04.12-.08.25-.12.37-.04.11-.09.21-.14.32-.05.1-.1.2-.16.3-.06.1-.13.21-.2.3-.06.09-.13.18-.2.26l-.24.26-.26.24c-.08.07-.17.14-.26.2-.1.07-.2.14-.3.2-.1.06-.2.11-.3.16-.1.05-.21.1-.31.14-.12.05-.24.09-.37.12-.12.03-.23.07-.35.09l-.2.04c-.2.03-.4.05-.6.05h-.02s-.02,0-.02,0c-.2,0-.4-.02-.6-.05l-.2-.04c-.12-.02-.24-.06-.35-.09-.13-.04-.25-.08-.37-.12-.11-.04-.21-.09-.31-.14-.1-.05-.2-.1-.3-.16-.1-.06-.21-.13-.3-.2-.09-.06-.18-.13-.26-.21l-.26-.24-.24-.26c-.07-.08-.14-.17-.21-.26-.07-.1-.14-.2-.2-.3-.06-.1-.11-.2-.16-.3-.05-.1-.1-.21-.14-.31-.05-.12-.09-.24-.12-.37-.03-.12-.07-.23-.09-.35l-.04-.2c-.03-.2-.05-.4-.05-.6v-.02s0-.02,0-.02c0-.2.02-.4.05-.6l.04-.2c.02-.12.06-.24.09-.35.04-.12.08-.25.12-.37.04-.11.09-.21.14-.32.05-.1.1-.2.16-.3.06-.11.13-.21.2-.31l.2-.26c.08-.09.16-.18.24-.26l.26-.24c.08-.07.17-.14.26-.21.1-.07.2-.14.3-.2.1-.06.2-.11.3-.16.1-.05.21-.1.31-.14.12-.05.24-.09.37-.12.12-.03.23-.07.35-.09l.2-.04c.2-.03.39-.05.6-.05h.02s.02,0,.02,0c.2,0,.4.02.6.05l.2.04c.12.02.24.06.35.09.12.04.25.08.36.12.11.04.22.09.32.14.1.05.2.1.29.16.11.06.21.13.31.2l.26.2c.09.08.18.16.26.24l.24.26c.07.08.14.17.21.26.07.1.14.2.2.31.06.1.11.2.16.3.05.1.1.21.14.32.05.12.09.24.12.36.03.12.07.23.09.35l.04.2c.03.2.05.4.05.6v.02s0,.02,0,.02ZM23.8,55.58c-.13,0-.26.05-.35.15s-.15.22-.15.35.05.26.15.35.22.15.35.15.26-.05.35-.15.15-.22.15-.35-.05-.26-.15-.35-.22-.15-.35-.15ZM40,33.03c-3.85,0-6.97,3.12-6.97,6.97s3.12,6.97,6.97,6.97,6.97-3.12,6.97-6.97-3.12-6.97-6.97-6.97ZM37.63,38.38c-.83,0-1.5-.67-1.5-1.5s.67-1.5,1.5-1.5,1.5.67,1.5,1.5-.67,1.5-1.5,1.5ZM51.35,50.22c-.09.09-.15.22-.15.35s.05.26.15.35.22.15.35.15.26-.05.35-.15.15-.22.15-.35-.05-.26-.15-.35-.22-.15-.35-.15-.26.05-.35.15ZM42,70.28v1c5.51-.4,10.63-2.24,14.98-5.14l-.55-.83c-4.19,2.8-9.12,4.57-14.43,4.97ZM52.27,40c0-6.78-5.49-12.27-12.27-12.27-6.78,0-12.27,5.49-12.27,12.27,0,6.61,5.23,11.98,11.77,12.25v22.9c0,.28.22.5.5.5s.5-.22.5-.5v-22.9c6.54-.26,11.77-5.64,11.77-12.25ZM40,51.27c-3.11,0-5.93-1.26-7.97-3.3-2.04-2.04-3.3-4.86-3.3-7.97,0-3.11,1.26-5.93,3.3-7.97,2.04-2.04,4.86-3.3,7.97-3.3,3.11,0,5.93,1.26,7.97,3.3,2.04,2.04,3.3,4.86,3.3,7.97,0,3.11-1.26,5.93-3.3,7.97-2.04,2.04-4.86,3.3-7.97,3.3ZM14.07,56.15c-2.89-4.63-4.56-10.1-4.56-15.96,0-6.23,1.88-12.01,5.12-16.82l-.83-.56c-3.34,4.96-5.29,10.95-5.29,17.38,0,6.05,1.73,11.71,4.71,16.49l.85-.53ZM13.45,18.88l.04.24.04.22.07.21c.05.16.1.31.16.46.05.13.11.25.17.38.06.13.13.26.21.39.08.13.15.25.24.36.08.12.17.23.26.33.09.11.19.21.29.31s.21.2.32.3c.11.09.21.17.33.25.12.09.24.17.37.24.12.07.25.14.38.2.13.06.25.12.38.17.15.06.3.11.46.15l.22.07.22.04.25.04c.25.04.5.06.74.06h.02s0,0,0,0h0s.02,0,.02,0c.25,0,.49-.03.74-.06l.25-.04.22-.04.21-.07c.16-.05.31-.1.47-.16.13-.05.25-.11.38-.17.13-.06.26-.13.39-.21.12-.07.25-.15.36-.24.12-.08.23-.17.33-.26s.21-.19.31-.29c.1-.1.2-.21.3-.32.09-.11.17-.21.25-.33.09-.12.17-.24.24-.37.07-.12.14-.25.21-.38.06-.12.12-.25.17-.38.06-.15.11-.31.15-.46l.07-.21.04-.22.04-.25c.04-.25.06-.5.06-.74v-.02s0,0,0,0h0s0-.02,0-.02c0-.25-.03-.49-.06-.74l-.04-.25-.04-.22-.07-.21c-.05-.16-.1-.31-.15-.46-.05-.13-.11-.26-.17-.38-.06-.13-.13-.26-.21-.38-.08-.13-.16-.25-.24-.37-.08-.11-.17-.22-.25-.33-.1-.11-.19-.22-.3-.32-.1-.1-.21-.2-.31-.29s-.22-.18-.33-.26c-.12-.08-.24-.16-.36-.24-.13-.08-.26-.14-.39-.21-.12-.06-.25-.12-.38-.17-.15-.06-.31-.11-.47-.16l-.21-.07-.22-.04-.25-.04c-.25-.04-.5-.06-.74-.06h-.02s0,0,0,0h-.02c-.25,0-.49.03-.74.06l-.25.04-.22.04-.22.07c-.16.04-.31.09-.46.15-.13.05-.26.11-.39.17-.13.06-.25.13-.38.2-.13.08-.25.16-.38.25-.11.08-.22.16-.32.25-.11.1-.22.19-.33.3-.1.1-.19.2-.29.31-.09.11-.18.22-.26.34-.08.12-.16.24-.24.36-.08.13-.14.26-.21.39-.06.12-.12.25-.17.38-.06.15-.11.31-.16.46l-.07.21-.04.22-.04.24c-.04.25-.06.5-.06.75v.02s0,0,0,0h0s0,.02,0,.02c0,.25.03.5.06.75ZM14.39,18.1c0-.2.02-.4.05-.6l.04-.2c.02-.12.06-.24.09-.35.04-.13.08-.25.12-.37.04-.11.09-.21.14-.31.05-.1.1-.2.16-.3.06-.1.13-.21.2-.3.07-.09.13-.18.21-.26l.24-.26.26-.24.26-.2c.1-.07.2-.14.31-.2.1-.06.2-.11.3-.16.1-.05.21-.1.32-.14.12-.05.24-.09.37-.12.12-.03.23-.07.35-.09l.2-.04c.2-.03.4-.05.6-.05h.02s.02,0,.02,0c.2,0,.4.02.6.05l.2.04c.12.02.23.06.35.09.13.04.25.08.37.12.11.04.21.09.31.14.1.05.21.11.31.17.1.06.2.13.3.2.09.07.18.14.27.21l.25.23c.08.08.17.17.24.26l.2.26c.07.1.14.2.2.31.06.1.11.2.16.3.05.1.1.21.14.32.05.12.09.24.12.37.03.12.07.23.09.35l.04.2c.03.2.05.4.05.6v.02s0,.02,0,.02c0,.2-.02.4-.05.6l-.04.2c-.02.12-.06.23-.09.35-.04.13-.08.25-.12.37-.04.11-.09.21-.14.32-.05.1-.1.2-.16.3-.06.1-.13.21-.2.31l-.2.26c-.08.09-.16.18-.24.26l-.25.23c-.09.07-.18.14-.27.21-.1.07-.2.13-.3.19-.1.06-.2.11-.31.17-.1.05-.2.1-.31.14-.12.05-.25.09-.37.12-.11.03-.23.07-.35.09l-.2.04c-.2.03-.39.05-.6.05h-.02s-.02,0-.02,0c-.2,0-.4-.02-.6-.05l-.2-.04c-.12-.02-.24-.06-.35-.09-.12-.04-.25-.08-.37-.12-.11-.04-.21-.09-.32-.14-.1-.05-.2-.1-.3-.16-.1-.06-.21-.13-.31-.2l-.26-.2-.26-.24-.24-.26c-.07-.08-.14-.17-.21-.26-.07-.1-.14-.2-.2-.3-.06-.1-.11-.2-.16-.3-.05-.1-.1-.21-.14-.31-.05-.12-.09-.24-.12-.37-.03-.12-.07-.23-.09-.35l-.04-.2c-.03-.2-.05-.4-.05-.6v-.02s0-.02,0-.02ZM23.17,62.83l.04-.25c.04-.25.06-.5.06-.75v-.02s0,0,0,0h0s0-.02,0-.02c0-.25-.03-.5-.06-.75l-.04-.25-.04-.22-.07-.21c-.05-.16-.1-.31-.16-.46-.05-.13-.11-.25-.17-.38-.06-.13-.13-.26-.21-.39-.08-.13-.15-.25-.24-.37-.08-.11-.17-.22-.26-.33-.09-.11-.19-.21-.29-.32-.1-.1-.21-.2-.32-.29-.11-.09-.21-.17-.33-.26-.12-.09-.24-.17-.37-.24-.12-.07-.25-.14-.38-.21-.12-.06-.25-.12-.38-.17-.15-.06-.3-.11-.46-.15l-.21-.07-.22-.04-.25-.04c-.25-.04-.5-.06-.75-.06h-.02s0,0,0,0h-.02c-.25,0-.5.03-.74.06l-.25.04-.22.04-.21.07c-.16.05-.31.1-.46.15-.13.05-.26.11-.38.17-.13.06-.26.13-.38.21-.13.08-.25.16-.37.24-.11.08-.22.17-.33.26-.11.09-.22.19-.32.29s-.2.21-.29.32c-.09.11-.18.22-.26.33-.09.12-.17.24-.24.37-.07.12-.14.25-.21.38-.06.13-.12.25-.17.38-.06.15-.11.3-.15.46l-.07.22-.04.22-.04.24c-.04.25-.06.5-.06.75h0v.02h0s0,.02,0,.02c0,.25.03.5.06.75l.04.24.04.22.07.22c.04.16.09.31.15.46.05.13.11.26.17.38.06.13.13.25.2.38.08.13.16.25.24.37.08.11.17.22.25.33.09.11.19.22.29.32.1.1.21.2.32.29.11.09.22.18.33.26.12.09.24.16.37.24.12.07.25.14.38.21.12.06.25.12.38.17.15.06.31.11.46.15l.21.07.22.04.25.04c.25.04.5.06.74.06h.02s0,0,0,0h.02c.25,0,.5-.03.75-.06l.25-.04.22-.04.21-.07c.16-.05.31-.1.46-.15.13-.05.26-.11.38-.17.13-.06.25-.13.38-.2.13-.08.25-.16.37-.24.11-.08.22-.16.33-.25.11-.1.22-.19.32-.3.1-.1.2-.2.29-.31.09-.11.18-.22.26-.33.08-.12.16-.24.24-.36.08-.13.14-.25.21-.39.06-.12.12-.25.17-.38.06-.15.11-.31.16-.46l.07-.21.04-.22ZM22.28,61.84c0,.2-.02.4-.05.6l-.04.2c-.02.12-.06.24-.09.35-.04.13-.08.25-.12.37-.04.11-.09.21-.14.32-.05.1-.1.2-.16.3-.06.1-.13.21-.2.3-.06.09-.13.18-.2.26l-.24.26-.26.24-.26.2c-.1.07-.2.14-.31.2-.1.06-.2.11-.3.16-.1.05-.21.1-.32.14-.12.05-.24.09-.37.12-.12.03-.23.07-.35.09l-.2.04c-.2.03-.4.05-.6.05h-.02s-.02,0-.02,0c-.2,0-.4-.02-.6-.05l-.2-.04c-.12-.02-.24-.06-.35-.09-.12-.04-.25-.08-.37-.12-.11-.04-.21-.09-.32-.14-.1-.05-.2-.1-.3-.16-.1-.06-.21-.13-.3-.2-.09-.07-.18-.13-.26-.21l-.26-.24c-.08-.08-.16-.17-.24-.26l-.2-.26c-.07-.1-.14-.2-.2-.31-.06-.1-.11-.19-.16-.3-.05-.1-.1-.21-.14-.32-.05-.12-.09-.24-.12-.36-.03-.12-.07-.23-.09-.36l-.04-.2c-.03-.2-.05-.4-.05-.6v-.02s0-.02,0-.02c0-.2.02-.4.05-.6l.04-.2c.02-.12.06-.24.09-.36.04-.12.08-.25.12-.36.04-.11.09-.22.14-.32.05-.1.1-.2.16-.3.06-.11.13-.21.2-.31l.2-.26c.08-.09.16-.18.24-.26l.26-.24c.08-.07.17-.14.26-.21.1-.07.2-.14.3-.2.1-.06.2-.11.3-.16.1-.05.21-.1.32-.14.12-.05.24-.09.37-.12.12-.03.23-.07.35-.09l.2-.04c.2-.03.4-.05.6-.05h.02s.02,0,.02,0c.2,0,.4.02.6.05l.2.04c.12.02.24.06.35.09.12.04.25.08.37.12.11.04.21.09.32.14.1.05.2.1.3.16.1.06.21.13.31.2l.26.2.26.24.24.26c.07.08.14.17.2.26.07.1.14.2.2.3.06.1.11.2.16.3.05.1.1.21.14.32.05.12.09.24.12.37.03.12.07.23.09.35l.04.2c.03.2.05.4.05.6v.02s0,.02,0,.02ZM28.9,51.68c.09-.09.15-.22.15-.35s-.05-.26-.15-.35-.22-.15-.35-.15-.26.05-.35.15-.15.22-.15.35.05.26.15.35.22.15.35.15.26-.05.35-.15ZM23.07,66.58c4.37,2.76,9.48,4.45,14.96,4.73v-1c-5.29-.29-10.21-1.92-14.43-4.58l-.53.85Z"></path></svg> 