<?xml version="1.0" encoding="UTF-8"?> <svg xmlns="http://www.w3.org/2000/svg" id="Layer_1" data-name="Layer 1" viewBox="0 0 80 80"><defs><style> .cls-1 { fill: #fff; stroke-width: 0px; } </style></defs><path class="cls-1" d="M52.76,16.39c-2.72,2.72-2.72,7.14,0,9.86,2.72,2.72,7.14,2.72,9.86,0,2.72-2.72,2.72-7.14,0-9.86-2.72-2.72-7.14-2.72-9.86,0ZM59.28,18.5c-.59.59-1.54.59-2.12,0-.59-.59-.59-1.54,0-2.12.59-.59,1.54-.59,2.12,0s.59,1.54,0,2.12ZM66.37,30c4.79-4.79,4.79-12.56,0-17.35-4.79-4.79-12.56-4.79-17.35,0-.21.21-.4.43-.59.66-3.62-1.47-7.58-2.3-11.73-2.3-2.03,0-4.02.19-5.94.57-3.55.69-6.89,1.97-9.91,3.76l.51.86c2.92-1.72,6.15-2.97,9.59-3.63,1.86-.36,3.78-.55,5.75-.55,3.92,0,7.66.75,11.09,2.11-3.4,4.67-3.1,11.18.9,15.51l.71.71c4.32,3.98,10.78,4.3,15.44.96,1.31,3.38,2.05,7.05,2.05,10.89,0,5.64-1.54,10.91-4.23,15.42l.86.51c2.78-4.66,4.37-10.11,4.37-15.93,0-4.08-.8-7.96-2.22-11.53.25-.21.49-.42.72-.65ZM57.7,32.59c-2.89,0-5.77-1.1-7.97-3.3-2.2-2.2-3.3-5.08-3.3-7.97,0-2.89,1.1-5.77,3.3-7.97,2.2-2.2,5.08-3.3,7.97-3.3,2.89,0,5.77,1.1,7.97,3.3,2.2,2.2,3.3,5.08,3.3,7.97,0,2.89-1.1,5.77-3.3,7.97-2.2,2.2-5.08,3.3-7.97,3.3ZM16.01,59.43c-.4-.1-.8-.14-1.19-.14-2.28,0-4.34,1.55-4.9,3.86-.1.4-.14.8-.14,1.19,0,2.28,1.55,4.34,3.86,4.9.4.1.8.14,1.19.14,2.28,0,4.34-1.55,4.9-3.86.1-.4.14-.8.14-1.19,0-2.28-1.55-4.34-3.86-4.9ZM18.71,65.27c-.44,1.83-2.08,3.06-3.88,3.06-.31,0-.63-.04-.94-.11-1.83-.44-3.06-2.08-3.06-3.88,0-.31.04-.63.11-.94.44-1.83,2.08-3.06,3.88-3.06.31,0,.63.04.94.11,1.83.44,3.06,2.08,3.06,3.88,0,.31-.04.63-.11.94ZM14.08,25.12c.4.1.8.14,1.19.14,2.28,0,4.34-1.55,4.9-3.86.1-.4.14-.8.14-1.19,0-2.28-1.55-4.34-3.86-4.9-.4-.1-.8-.14-1.19-.14-2.28,0-4.34,1.55-4.9,3.86-.1.4-.14.8-.14,1.19,0,2.28,1.55,4.34,3.86,4.9ZM11.38,19.28c.44-1.83,2.08-3.06,3.88-3.06.31,0,.63.04.94.11,1.83.44,3.06,2.08,3.06,3.88,0,.31-.04.63-.11.94-.44,1.83-2.08,3.06-3.88,3.06-.31,0-.63-.04-.94-.11-1.83-.44-3.06-2.08-3.06-3.88,0-.31.04-.63.11-.95ZM61.94,59.77c-.94-.8-2.1-1.19-3.25-1.19-1.43,0-2.86.61-3.86,1.79-.8.94-1.19,2.1-1.19,3.25,0,1.43.61,2.86,1.79,3.86.94.8,2.1,1.19,3.24,1.19,1.43,0,2.86-.61,3.86-1.8.8-.94,1.19-2.1,1.19-3.24,0-1.43-.61-2.86-1.79-3.86ZM61.75,66.2c-.79.94-1.92,1.42-3.06,1.42-.91,0-1.82-.31-2.57-.94-.94-.79-1.42-1.92-1.42-3.06,0-.91.31-1.82.94-2.57.79-.94,1.92-1.42,3.06-1.42.91,0,1.82.31,2.57.94.94.79,1.42,1.92,1.42,3.06,0,.91-.31,1.82-.94,2.57ZM15.4,28.17c0-.14-.05-.27-.15-.37-.1-.1-.23-.15-.37-.15s-.27.05-.37.15c-.1.1-.15.23-.15.37s.05.27.15.37c.1.1.23.15.37.15s.27-.05.37-.15c.1-.1.15-.23.15-.37ZM13.88,53.46c.02-.29-.2-.53-.49-.55-.29-.02-.53.2-.55.49-.02.29.2.53.49.55.29.02.53-.2.55-.49ZM15.18,31.81c.02-.29-.2-.53-.49-.55-.29-.02-.53.2-.55.49-.02.29.2.53.49.55.29.02.53-.2.55-.49ZM14.96,35.42c.02-.29-.2-.53-.49-.55-.29-.02-.53.2-.55.49-.02.29.2.53.49.55.29.02.53-.2.55-.49ZM14.31,46.25c.02-.29-.2-.53-.49-.55-.29-.02-.53.2-.55.49-.02.29.2.53.49.55.29.02.53-.2.55-.49ZM14.75,39.03c.02-.29-.2-.53-.49-.55-.29-.02-.53.2-.55.49-.02.29.2.53.49.55.29.02.53-.2.55-.49ZM14.09,49.85c.02-.29-.2-.53-.49-.55-.29-.02-.53.2-.55.49-.02.29.2.53.49.55.29.02.53-.2.55-.49ZM14.53,42.64c.02-.29-.2-.53-.49-.55-.29-.02-.53.2-.55.49-.02.29.2.53.49.55.29.02.53-.2.55-.49ZM12.77,56.67c-.1.1-.15.23-.15.37s.05.27.15.37c.1.1.23.15.37.15s.27-.05.37-.15c.1-.1.15-.23.15-.37s-.05-.27-.15-.37c-.1-.1-.23-.15-.37-.15s-.27.05-.37.15ZM47.26,32.46c.1-.1.15-.23.15-.37s-.05-.27-.15-.37c-.1-.1-.23-.15-.37-.15s-.27.05-.37.15c-.1.1-.15.23-.15.37s.05.27.15.37c.1.1.23.15.37.15s.27-.05.37-.15ZM22.14,56.08c-.2.2-.2.53,0,.74s.53.2.74,0,.2-.53,0-.74-.53-.2-.74,0ZM25.59,54.11c.2-.2.2-.53,0-.74s-.53-.2-.74,0-.2.53,0,.74.53.2.74,0ZM27.56,50.67c-.2.2-.2.53,0,.74s.53.2.74,0,.2-.53,0-.74-.53-.2-.74,0ZM32.98,45.26c-.2.2-.2.53,0,.74s.53.2.74,0,.2-.53,0-.74-.53-.2-.74,0ZM41.1,37.14c-.2.2-.2.53,0,.74s.53.2.74,0,.2-.53,0-.74-.53-.2-.74,0ZM36.42,43.29c.2-.2.2-.53,0-.74s-.53-.2-.74,0-.2.53,0,.74.53.2.74,0ZM43.81,34.43c-.2.2-.2.53,0,.74s.53.2.74,0,.2-.53,0-.74-.53-.2-.74,0ZM38.39,39.84c-.2.2-.2.53,0,.74s.53.2.74,0,.2-.53,0-.74-.53-.2-.74,0ZM30.27,47.96c-.2.2-.2.53,0,.74s.53.2.74,0,.2-.53,0-.74-.53-.2-.74,0ZM19.8,58.63c-.14,0-.27.05-.37.15-.1.1-.15.23-.15.37s.05.27.15.37c.1.1.23.15.37.15s.27-.05.37-.15c.1-.1.15-.23.15-.37s-.05-.27-.15-.37c-.1-.1-.23-.15-.37-.15ZM50.75,63.45c-.14,0-.27.05-.37.15-.1.1-.15.23-.15.37s.05.27.15.37c.1.1.23.15.37.15s.27-.05.37-.15c.1-.1.15-.23.15-.37s-.05-.27-.15-.37c-.1-.1-.23-.15-.37-.15ZM32.78,64.83c-.29.02-.5.27-.48.56.02.29.27.5.56.48.29-.02.5-.27.48-.56-.02-.29-.27-.5-.56-.48ZM29.2,65.1c-.29.02-.5.27-.48.56.02.29.27.5.56.48.29-.02.5-.27.48-.56-.02-.29-.27-.5-.56-.48ZM47.13,63.73c-.29.02-.5.27-.48.56.02.29.27.5.56.48.29-.02.5-.27.48-.56-.02-.29-.27-.5-.56-.48ZM43.54,64c-.29.02-.5.27-.48.56.02.29.27.5.56.48.29-.02.5-.27.48-.56-.02-.29-.27-.5-.56-.48ZM36.37,64.55c-.29.02-.5.27-.48.56.02.29.27.5.56.48.29-.02.5-.27.48-.56-.02-.29-.27-.5-.56-.48ZM39.95,64.28c-.29.02-.5.27-.48.56.02.29.27.5.56.48.29-.02.5-.27.48-.56-.02-.29-.27-.5-.56-.48ZM25.61,65.38c-.29.02-.5.27-.48.56.02.29.27.5.56.48.29-.02.5-.27.48-.56-.02-.29-.27-.5-.56-.48ZM22.07,65.65c-.14,0-.27.05-.37.15-.1.1-.15.23-.15.37s.05.27.15.37c.1.1.23.15.37.15s.27-.05.37-.15c.1-.1.15-.23.15-.37s-.05-.27-.15-.37c-.1-.1-.23-.15-.37-.15Z"></path></svg> 