<?xml version="1.0" encoding="UTF-8"?> <svg xmlns="http://www.w3.org/2000/svg" xmlns:xlink="http://www.w3.org/1999/xlink" id="Layer_1" viewBox="0 0 83.1 82.95"><defs><style>.cls-1{clip-path:url(#clippath);}.cls-2{fill:none;}.cls-3{fill:#e62058;}</style><clipPath id="clippath"><rect class="cls-2" width="83.1" height="82.95"></rect></clipPath></defs><g id="Group_1340"><g class="cls-1"><g id="Group_1339"><path id="Path_4257" class="cls-3" d="M27.45,51.74c-3.19,0-5.78,2.59-5.78,5.78s2.59,5.78,5.78,5.78,5.78-2.59,5.78-5.78c0-3.19-2.59-5.78-5.78-5.78h0m3.03,8.81c-1.67,1.67-4.39,1.67-6.06,0-1.67-1.67-1.67-4.39,0-6.06,1.67-1.67,4.39-1.67,6.06,0,.8,.8,1.26,1.89,1.26,3.03,0,1.14-.45,2.23-1.25,3.03"></path><path id="Path_4258" class="cls-3" d="M9.59,64.77c-.33-.45-.95-.54-1.4-.22-.45,.33-.54,.95-.22,1.4,.33,.44,.95,.54,1.39,.22,.45-.32,.55-.95,.22-1.4,0,0,0,0,0,0Z"></path><path id="Path_4259" class="cls-3" d="M5.56,60.2c-.48,.27-.66,.88-.39,1.36,.27,.48,.88,.66,1.36,.39,.48-.27,.66-.88,.39-1.36,0,0,0,0,0,0-.27-.48-.88-.66-1.36-.39"></path><path id="Path_4260" class="cls-3" d="M14.97,72.12c-.35,.43-.29,1.06,.13,1.41,.43,.35,1.06,.29,1.41-.13,.35-.43,.29-1.06-.13-1.41-.43-.35-1.06-.29-1.41,.13,0,0,0,0,0,0"></path><path id="Path_4261" class="cls-3" d="M9.5,18.31h0c.32-.45,.22-1.07-.23-1.4-.45-.32-1.07-.22-1.4,.23-.32,.45-.22,1.07,.22,1.39,.45,.33,1.07,.23,1.4-.22,0,0,0,0,0,0"></path><path id="Path_4262" class="cls-3" d="M3.49,55.55c-.51,.2-.76,.79-.56,1.3,.2,.51,.79,.76,1.3,.56,.51-.2,.76-.79,.56-1.3-.2-.51-.79-.76-1.3-.56,0,0,0,0,0,0"></path><path id="Path_4263" class="cls-3" d="M5.48,22.9c.48,.26,1.09,.09,1.36-.4,0,0,0,0,0,0h0c.28-.48,.11-1.09-.37-1.37-.48-.28-1.09-.11-1.37,.37,0,.01-.01,.02-.02,.03h0c-.26,.48-.09,1.09,.4,1.36,0,0,0,0,0,0"></path><path id="Path_4264" class="cls-3" d="M16.26,11.07c.42-.35,.48-.98,.13-1.41-.35-.42-.98-.48-1.41-.13-.42,.35-.48,.98-.13,1.41,0,0,0,0,0,0,.35,.42,.98,.48,1.41,.13"></path><path id="Path_4265" class="cls-3" d="M12.76,68.59c-.38-.4-1.01-.42-1.41-.04-.4,.38-.42,1.01-.04,1.41s1.01,.42,1.41,.04c0,0,0,0,0,0,.4-.38,.42-1.01,.04-1.41Z"></path><path id="Path_4266" class="cls-3" d="M12.65,14.47h0c.38-.4,.36-1.04-.05-1.41-.4-.38-1.04-.36-1.41,.05-.38,.4-.36,1.04,.05,1.41,0,0,0,0,0,0,.4,.38,1.04,.36,1.41-.05"></path><path id="Path_4267" class="cls-3" d="M3.25,51.39h0c-.14-.53-.68-.86-1.22-.72-.53,.14-.86,.68-.72,1.22,.14,.53,.68,.86,1.22,.72,.53-.14,.86-.68,.72-1.22,0,0,0,0,0,0"></path><path id="Path_4268" class="cls-3" d="M29.37,79.11h0c-.53-.17-1.09,.12-1.26,.64-.17,.53,.12,1.09,.64,1.26,.53,.17,1.09-.12,1.26-.64,0,0,0,0,0,0,.17-.53-.12-1.09-.64-1.26"></path><path id="Path_4269" class="cls-3" d="M39.1,80.95h0c-.55-.03-1.03,.39-1.06,.94s.39,1.03,.94,1.06h0c.55,.03,1.03-.39,1.06-.94,.03-.55-.39-1.03-.94-1.06"></path><path id="Path_4270" class="cls-3" d="M24.75,77.29c-.5-.23-1.1-.02-1.33,.48-.23,.5-.02,1.1,.48,1.33,.5,.23,1.09,.02,1.33-.48,.24-.5,.02-1.1-.48-1.33,0,0,0,0,0,0"></path><path id="Path_4271" class="cls-3" d="M34.18,80.34h0c-.54-.1-1.06,.26-1.17,.8-.1,.54,.26,1.06,.8,1.17,.54,.1,1.06-.26,1.17-.8,.1-.54-.26-1.07-.8-1.17,0,0,0,0,0,0"></path><path id="Path_4272" class="cls-3" d="M20.27,8.14c.47-.29,.61-.91,.32-1.38s-.91-.61-1.38-.32c0,0-.02,.01-.02,.02h0c-.47,.3-.6,.92-.3,1.38,.3,.47,.92,.6,1.38,.3"></path><path id="Path_4273" class="cls-3" d="M20.4,74.9h0c-.47-.3-1.08-.16-1.38,.31s-.16,1.08,.31,1.38c.47,.3,1.08,.16,1.38-.31,0,0,0,0,0,0,.3-.47,.16-1.08-.31-1.38"></path><path id="Path_4274" class="cls-3" d="M44.07,80.94c-.55,.03-.97,.51-.94,1.06,.03,.55,.51,.97,1.06,.94,.55-.03,.97-.51,.94-1.06h0c-.03-.55-.51-.97-1.06-.94"></path><path id="Path_4276" class="cls-3" d="M53.8,79.09c-.53,.17-.81,.74-.64,1.26s.74,.81,1.26,.64c.52-.17,.81-.73,.64-1.26-.17-.53-.73-.81-1.26-.64,0,0,0,0,0,0"></path><path id="Path_4277" class="cls-3" d="M58.41,77.26h0c-.5,.24-.71,.83-.48,1.33,.24,.5,.83,.71,1.33,.48,.5-.24,.71-.83,.48-1.33-.24-.5-.83-.71-1.33-.48,0,0,0,0,0,0"></path><path id="Path_4278" class="cls-3" d="M81.04,32.2c.53-.14,.86-.68,.72-1.22,0,0,0,0,0,0-.08-.29-.29-.53-.57-.65,4.62-11.12-.66-23.88-11.78-28.49-11.12-4.62-23.88,.66-28.49,11.78-1.06,2.55-1.62,5.27-1.66,8.03h-6.77c-5.86,0-10.66,4.66-10.81,10.52v.02c0,.56,.45,1.02,1.01,1.02,0,0,0,0,0,0h19.67c.76,1.27,1.65,2.45,2.64,3.53h-12.52c-5.86-.02-10.66,4.65-10.81,10.51v.02c0,.56,.45,1.02,1.01,1.02,0,0,0,0,0,0h19.12s.75,.01,.75,.01c4.23,0,8.07-2.46,9.84-6.31,10.47,4.53,22.65,.22,27.96-9.87,.22,.11,.46,.14,.7,.08m-57.84-.5c.38-4.84,4.42-8.56,9.27-8.56h6.8c.16,2.98,.93,5.89,2.26,8.56H23.2Zm19.4,15.09H23.2c.38-4.85,4.42-8.58,9.27-8.57h14.04c1.37,1.23,2.88,2.28,4.51,3.12-1.51,3.3-4.8,5.43-8.43,5.45m32.8-10.46c-5.91,5.91-14.84,7.6-22.49,4.24-.47-.2-.92-.42-1.37-.66-.91-.49-1.79-1.05-2.61-1.67-.63-.47-1.22-.97-1.79-1.5-.15-.14-.3-.26-.44-.4-.95-.95-1.81-2-2.55-3.12-.32-.49-.63-.99-.91-1.5-1.44-2.64-2.26-5.56-2.43-8.56-.02-.39-.06-.77-.06-1.17,0-.11,.01-.22,.02-.33,.12-8,4.94-15.19,12.3-18.34,.6-.26,1.22-.48,1.85-.68,10.68-3.4,22.1,2.51,25.5,13.2,2.3,7.23,.37,15.15-5,20.51"></path><path id="Path_4279" class="cls-3" d="M48.99,80.32h0c-.54,.12-.88,.65-.77,1.19,.11,.52,.62,.86,1.14,.78h0c.54-.1,.9-.63,.79-1.17s-.63-.9-1.17-.79"></path><path id="Path_4280" class="cls-3" d="M43.91,2h0c.55,.03,1.02-.39,1.06-.94,.03-.55-.39-1.02-.94-1.06-.55-.03-1.02,.39-1.06,.94-.03,.55,.39,1.03,.94,1.06,0,0,0,0,0,0"></path><path id="Path_4281" class="cls-3" d="M34.02,2.64h0c.54-.1,.9-.63,.79-1.17-.1-.54-.63-.9-1.17-.79-.54,.1-.9,.63-.79,1.17,.1,.54,.63,.9,1.17,.79h0"></path><path id="Path_4282" class="cls-3" d="M48.84,2.6c.54,.1,1.07-.26,1.17-.8,.1-.54-.26-1.07-.8-1.17-.54-.1-1.06,.26-1.17,.8-.1,.54,.26,1.07,.8,1.17,0,0,0,0,0,0"></path><path id="Path_4283" class="cls-3" d="M38.94,2.01c.55-.04,.97-.51,.93-1.06s-.51-.97-1.06-.93c-.55,.04-.97,.51-.93,1.06,.04,.55,.51,.97,1.06,.93,0,0,0,0,0,0"></path><path id="Path_4284" class="cls-3" d="M77.57,60.13c-.48-.27-1.09-.09-1.36,.39-.27,.48-.09,1.09,.39,1.36s1.09,.09,1.36-.39c0,0,0,0,0,0,.27-.48,.09-1.09-.39-1.36"></path><path id="Path_4285" class="cls-3" d="M73.55,64.71c-.32,.45-.22,1.07,.22,1.4s1.07,.22,1.4-.22c.32-.45,.23-1.07-.22-1.39-.45-.33-1.07-.23-1.4,.22,0,0,0,0,0,0"></path><path id="Path_4286" class="cls-3" d="M70.39,68.54h0c-.38,.4-.36,1.03,.04,1.41,.4,.38,1.03,.36,1.41-.04,.38-.4,.36-1.03-.04-1.41-.4-.38-1.03-.36-1.41,.04"></path><path id="Path_4287" class="cls-3" d="M62.76,74.86h0c-.47,.3-.6,.91-.31,1.38s.91,.6,1.38,.31c.47-.3,.6-.91,.31-1.38h0c-.3-.47-.91-.6-1.38-.31"></path><path id="Path_4288" class="cls-3" d="M80.77,36.36c.07,.55,.57,.93,1.12,.86,.55-.07,.93-.57,.86-1.12-.07-.55-.57-.93-1.12-.86-.55,.07-.93,.57-.86,1.12,0,0,0,0,0,0"></path><path id="Path_4289" class="cls-3" d="M68.18,72.07c-.35-.42-.98-.48-1.41-.13h0c-.43,.35-.48,.98-.13,1.41s.98,.48,1.41,.13h0c.42-.35,.48-.98,.13-1.41"></path><path id="Path_4290" class="cls-3" d="M1.18,37.47c.55,.07,1.05-.32,1.11-.87s-.32-1.05-.87-1.11c-.55-.07-1.05,.32-1.11,.87H.31c-.07,.55,.32,1.05,.87,1.11"></path><path id="Path_4291" class="cls-3" d="M2.32,46.51h0c-.07-.55-.57-.94-1.12-.87-.55,.07-.94,.57-.87,1.12,.07,.55,.57,.94,1.12,.87,0,0,0,0,0,0,.55-.07,.94-.57,.87-1.12"></path><path id="Path_4292" class="cls-3" d="M2,41.56h0c0-.55-.45-1-1-1s-1,.45-1,1,.45,1,1,1,1-.45,1-1"></path><path id="Path_4293" class="cls-3" d="M29.22,3.89c.52-.17,.81-.74,.64-1.26-.17-.52-.74-.81-1.26-.64-.52,.17-.81,.74-.64,1.26,.17,.52,.74,.81,1.26,.64,0,0,0,0,0,0"></path><path id="Path_4295" class="cls-3" d="M2,32.45c.54,.14,1.08-.19,1.21-.72s-.19-1.08-.72-1.21c-.54-.14-1.08,.19-1.21,.72-.14,.54,.19,1.08,.72,1.21,0,0,0,0,0,0"></path><path id="Path_4296" class="cls-3" d="M24.61,5.73c.5-.23,.72-.83,.49-1.33-.23-.5-.83-.72-1.33-.49,0,0-.01,0-.02,0h0c-.5,.24-.71,.83-.47,1.33,.24,.5,.83,.71,1.33,.47"></path><path id="Path_4297" class="cls-3" d="M3.44,27.56c.51,.2,1.09-.05,1.3-.56h0c.2-.51-.05-1.09-.57-1.3-.51-.2-1.09,.05-1.3,.57-.2,.51,.05,1.09,.56,1.29"></path><path id="Path_4298" class="cls-3" d="M83.08,41.39l.02-.09c0-.55-.45-1-1-1-.55,0-1,.45-1,1l.02,.08-.02,.08c0,.55,.45,1,1,1s1-.45,1-1l-.02-.08Z"></path><path id="Path_4299" class="cls-3" d="M81.9,45.56c-.55-.07-1.05,.32-1.12,.87-.07,.55,.32,1.05,.87,1.12,.55,.07,1.05-.32,1.12-.87,0,0,0,0,0,0,.07-.55-.32-1.05-.87-1.12"></path><path id="Path_4301" class="cls-3" d="M81.08,50.59c-.53-.14-1.08,.18-1.22,.72-.14,.53,.18,1.08,.72,1.22,.53,.14,1.08-.18,1.22-.72,0,0,0,0,0,0,.14-.53-.19-1.08-.72-1.22"></path><path id="Path_4302" class="cls-3" d="M79.63,55.47c-.51-.2-1.09,.05-1.3,.56h0c-.2,.52,.05,1.1,.56,1.3s1.09-.05,1.3-.56c.2-.51-.05-1.09-.56-1.3"></path><path id="Path_4303" class="cls-3" d="M60.83,15.86c-1.8,0-3.57,.53-5.06,1.54v-1.39c0-2.8,2.27-5.06,5.07-5.06,2.03,0,3.87,1.22,4.66,3.09l1.38-.59c-1.41-3.34-5.26-4.9-8.6-3.49-2.43,1.03-4.01,3.41-4.01,6.05v2.65c-3.49,3.61-3.39,9.37,.23,12.86h0c.45,.44,.94,.82,1.47,1.16,4.25,2.69,9.88,1.41,12.57-2.84,2.69-4.25,1.41-9.88-2.84-12.57-1.46-.92-3.14-1.41-4.87-1.41m5.38,14.5c-2.97,2.97-7.8,2.98-10.77,0-2.97-2.97-2.98-7.8,0-10.77,2.97-2.97,7.8-2.98,10.77,0,1.43,1.43,2.23,3.37,2.23,5.39,0,2.02-.8,3.96-2.23,5.38"></path><path id="Path_4304" class="cls-3" d="M60.83,23.73c-.69,0-1.25,.56-1.25,1.25,0,.52,.32,.98,.8,1.16v2.22h.9v-2.22c.64-.24,.96-.94,.72-1.58-.06-.15-.14-.29-.25-.4-.23-.27-.57-.43-.92-.43"></path></g></g></g></svg> 