<?xml version="1.0" encoding="UTF-8"?> <svg xmlns="http://www.w3.org/2000/svg" width="57" height="62.001" viewBox="0 0 57 62.001"><path id="Subtraction_8" data-name="Subtraction 8" d="M57,62H0V0H57V62ZM24.289,1h0a3.3,3.3,0,0,0-2.434.878L18.119,5.614a3.343,3.343,0,0,0-.878,2.439,9.317,9.317,0,0,0,1.011,3.79c.018.042.038.083.058.124l.015.031a20.526,20.526,0,0,0,3.955,5.426,17.833,17.833,0,0,0,7.657,4.788A17.813,17.813,0,0,0,22.28,27c-3.1,3.107-5.034,6.7-5.038,9.371a3.345,3.345,0,0,0,.878,2.439L21.1,41.794l-2.984,2.983a3.345,3.345,0,0,0-.878,2.439,9.319,9.319,0,0,0,1.011,3.791c.02.045.043.094.073.154a20.508,20.508,0,0,0,3.955,5.426c3.107,3.1,6.7,5.035,9.371,5.039a3.311,3.311,0,0,0,2.439-.877l3.737-3.738a3.308,3.308,0,0,0,.878-2.439c0-2.672-1.935-6.263-5.039-9.37a21.345,21.345,0,0,0-4.4-3.407,21.385,21.385,0,0,0,4.4-3.409c3.1-3.107,5.035-6.7,5.039-9.371a3.355,3.355,0,0,0-.878-2.439l-3.737-3.736a2.786,2.786,0,0,0-.994-.627,2.8,2.8,0,0,0,.994-.627l3.737-3.737a3.311,3.311,0,0,0,.878-2.439c0-2.673-1.935-6.264-5.039-9.37S26.967,1,24.294,1Zm16,49.189-.044,0a.376.376,0,0,0-.329.416.375.375,0,0,0,.373.331l.044,0a.375.375,0,0,0-.043-.747Zm-25.473-.316a.375.375,0,0,0-.083.74.386.386,0,0,0,.085.01.378.378,0,0,0,.365-.292.374.374,0,0,0-.283-.448A.379.379,0,0,0,14.811,49.871Zm27.456-.031a.382.382,0,0,0-.086.01.375.375,0,0,0,.085.74.357.357,0,0,0,.086-.01.376.376,0,0,0,.279-.451A.372.372,0,0,0,42.267,49.84Zm-29.521.2a.383.383,0,0,0,.125.021.374.374,0,0,0,.353-.25.369.369,0,0,0-.013-.284.375.375,0,1,0-.464.513Zm31.321-.752h0a.375.375,0,0,0,.13.728.375.375,0,1,0-.129-.728Zm-33.058-.763a.375.375,0,0,0-.165.712.378.378,0,0,0,.166.039.375.375,0,0,0,.166-.711A.364.364,0,0,0,11.009,48.523Zm35.036-.055a.374.374,0,0,0-.335.543.378.378,0,0,0,.335.207.363.363,0,0,0,.168-.04.375.375,0,0,0-.168-.71ZM9.254,47.525a.375.375,0,1,0,.2.06A.376.376,0,0,0,9.254,47.525Zm38.329,0a.374.374,0,0,0-.162.239.377.377,0,0,0,.368.45A.38.38,0,0,0,48,48.149a.375.375,0,0,0-.413-.626Zm-39.957-1.2a.375.375,0,0,0-.24.663.37.37,0,0,0,.239.086.375.375,0,1,0,0-.75Zm41.776-.07a.375.375,0,0,0,0,.75.375.375,0,1,0,0-.75ZM5.877,45.582v0a.375.375,0,0,0,.542-.518.368.368,0,0,0-.27-.117.376.376,0,0,0-.272.635Zm44.99-.707a.375.375,0,1,0,.273.633.37.37,0,0,0,.1-.267.375.375,0,0,0-.375-.366ZM4.838,43.412a.375.375,0,0,0,0,.75.377.377,0,0,0,.372-.324.375.375,0,0,0-.372-.426Zm47.327-.079a.374.374,0,0,0-.372.429.373.373,0,0,0,.146.246.367.367,0,0,0,.224.076.376.376,0,0,0,.3-.151.369.369,0,0,0,.072-.278.374.374,0,0,0-.37-.322ZM3.394,42.295v0a.373.373,0,0,0,.513.133.374.374,0,0,0,.134-.513.375.375,0,0,0-.514-.133.375.375,0,0,0-.133.514Zm49.88-.642a.375.375,0,0,0-.189.7.371.371,0,0,0,.187.05.375.375,0,0,0,.363-.471.375.375,0,0,0-.362-.279ZM2.8,39.933a.375.375,0,1,0,.344.225A.374.374,0,0,0,2.8,39.933Zm51.379-.08a.375.375,0,1,0,.148.031A.37.37,0,0,0,54.179,39.853ZM2.1,38.038a.376.376,0,1,0,0,.751.379.379,0,0,0,.109-.016.376.376,0,0,0-.108-.735Zm52.765-.077a.375.375,0,0,0,0,.751.378.378,0,0,0,.36-.268.377.377,0,0,0-.361-.482ZM1.627,36.075a.374.374,0,0,0-.368.441.374.374,0,0,0,.368.31.341.341,0,0,0,.068-.006.375.375,0,0,0-.067-.744ZM55.33,36a.375.375,0,0,0-.064.744.4.4,0,0,0,.065.005.374.374,0,0,0,.065-.743A.38.38,0,0,0,55.33,36ZM1.387,34.07H1.361a.374.374,0,0,0-.351.4.376.376,0,0,0,.374.352h.023a.375.375,0,0,0-.021-.749ZM55.565,34a.375.375,0,0,0-.022.749h.022a.375.375,0,0,0,.022-.75ZM1.375,32.049a.375.375,0,0,0-.02.749h.02a.377.377,0,0,0,.375-.355.375.375,0,0,0-.355-.4Zm54.191-.062h-.02a.375.375,0,0,0-.354.4.377.377,0,0,0,.374.355h.022a.375.375,0,0,0-.021-.75ZM1.6,30.041a.374.374,0,1,0,.063.005A.382.382,0,0,0,1.6,30.041Zm53.733-.054a.383.383,0,0,0-.063.005.375.375,0,0,0,.064.745.4.4,0,0,0,.065-.005.375.375,0,0,0-.066-.745ZM2.056,28.074a.375.375,0,0,0-.1.735.389.389,0,0,0,.105.015.375.375,0,0,0,.329-.555.377.377,0,0,0-.33-.2Zm52.819-.046a.375.375,0,0,0-.36.482.378.378,0,0,0,.36.268.367.367,0,0,0,.107-.015.375.375,0,0,0-.107-.735ZM2.74,26.171a.375.375,0,0,0-.147.721.364.364,0,0,0,.146.03.377.377,0,0,0,.346-.228.376.376,0,0,0-.345-.523Zm51.1.486a.377.377,0,0,0,.346.227.366.366,0,0,0,.147-.03.375.375,0,1,0-.3-.689.375.375,0,0,0-.2.492Zm-50.2-2.293a.377.377,0,0,0-.325.188.376.376,0,0,0,.325.563.375.375,0,0,0,0-.75Zm49.645-.029a.375.375,0,0,0,0,.751.371.371,0,0,0,.187-.05.376.376,0,0,0-.189-.7ZM4.749,22.673a.374.374,0,1,0,.223.074A.372.372,0,0,0,4.749,22.673Zm47.432-.02a.37.37,0,0,0-.224.075.377.377,0,0,0-.077.526.376.376,0,1,0,.3-.6ZM6.046,21.124a.375.375,0,1,0,.257.1A.373.373,0,0,0,6.046,21.124Zm44.841-.013a.372.372,0,0,0-.257.1.376.376,0,0,0-.015.529.371.371,0,0,0,.273.119.375.375,0,1,0,0-.75ZM7.511,19.734a.374.374,0,1,0,.286.133A.375.375,0,0,0,7.511,19.734Zm41.913-.007a.376.376,0,1,0,.241.089A.37.37,0,0,0,49.424,19.727ZM8.92,18.585h0a.376.376,0,0,0,.208.688.372.372,0,0,0,.367-.3.369.369,0,0,0-.054-.28.376.376,0,0,0-.314-.168.369.369,0,0,0-.205.062Zm38.891-.065a.372.372,0,0,0-.312.167.375.375,0,1,0,.625.414.375.375,0,0,0-.314-.581ZM46.07,17.51a.374.374,0,0,0-.169.709.363.363,0,0,0,.168.041.375.375,0,0,0,0-.75Zm-35.195,0a.375.375,0,0,0,0,.75.381.381,0,0,0,.169-.041.375.375,0,0,0-.169-.71Zm33.345-.8a.376.376,0,0,0-.34.534.371.371,0,0,0,.211.193.383.383,0,0,0,.129.022.375.375,0,0,0,.339-.533.37.37,0,0,0-.211-.193A.357.357,0,0,0,44.22,16.71ZM12.6,16.731a.375.375,0,0,0,.129.727.382.382,0,0,0,.129-.023.375.375,0,1,0-.257-.7Zm29.6.141a.367.367,0,0,0,.087.01.375.375,0,0,0,.087-.741.392.392,0,0,0-.087-.01.376.376,0,0,0-.086.741Zm-27.541-.744a.375.375,0,0,0-.32.179.375.375,0,1,0,.32-.179Zm1.988-.35-.041,0a.376.376,0,0,0,.043.749l.043,0a.376.376,0,0,0,.329-.416A.377.377,0,0,0,16.653,15.778Zm15,45.6a5.769,5.769,0,0,1-.677-.056l-.04,0,3.56-3.506a6.073,6.073,0,0,0,.893.081,4,4,0,0,0,1.471-.264l-2.945,2.945A3.077,3.077,0,0,1,31.65,61.375Zm-1.034-.1h0a10.537,10.537,0,0,1-2.568-.852L31.6,56.879a11.056,11.056,0,0,0,2.55.871l-3.529,3.529Zm-2.807-.967h0a17.275,17.275,0,0,1-2.179-1.269L29.205,55.5a17.42,17.42,0,0,0,2.152,1.268L27.81,60.312Zm-2.364-1.4h0a20.732,20.732,0,0,1-1.92-1.5l3.56-3.56A21.479,21.479,0,0,0,29,55.352l-3.552,3.557Zm9.942-1.27h0a8.978,8.978,0,0,1-3.6-.949c-.078-.037-.158-.075-.238-.114a16.975,16.975,0,0,1-2.16-1.259c-.055-.037-.11-.075-.165-.114l-.044-.031a21.406,21.406,0,0,1-1.917-1.5c-.03-.027-.061-.056-.091-.085s-.061-.059-.092-.086c-.292-.263-.594-.535-.885-.825s-.545-.574-.8-.857l-.025-.028-.085-.091-.086-.091a21.208,21.208,0,0,1-1.5-1.917l-.022-.031c-.042-.06-.083-.118-.124-.178a17.127,17.127,0,0,1-1.258-2.16c-.04-.08-.078-.16-.115-.239a8.962,8.962,0,0,1-.949-3.6,3.863,3.863,0,0,1,.225-1.337,1.687,1.687,0,0,1,.077-.165l.038-.075a2.215,2.215,0,0,1,1.106-1.13l.039-.02c.064-.032.13-.066.2-.094a3.753,3.753,0,0,1,1.382-.247H24.3a7.363,7.363,0,0,1,2.164.38c.146.046.3.1.443.159l.111.042a13.538,13.538,0,0,1,1.754.8c.048.026.1.056.146.085l.1.06a21.144,21.144,0,0,1,4.468,3.44c3.021,3.015,4.97,6.623,4.966,9.193a2.8,2.8,0,0,1-3.067,3.068Zm-4.442-5.869a.528.528,0,0,0-.407.158.514.514,0,0,0-.12.381,1.493,1.493,0,0,0,.526.946,1.519,1.519,0,0,0,.954.432.529.529,0,0,0,.406-.158.514.514,0,0,0,.121-.381A1.5,1.5,0,0,0,31.9,52.2,1.517,1.517,0,0,0,30.945,51.771Zm-.677-4.832-1.887,2.074c-.521.576-.186,1.723.763,2.61l.072.014L31.1,49.563c.522-.575.187-1.721-.762-2.609Zm-1.691-3.451-2.842,3.127c-.522.576-.186,1.722.763,2.609l.073.015,2.841-3.127c.522-.576.186-1.722-.763-2.609ZM23.341,57.236h0c-.292-.262-.593-.534-.883-.825s-.546-.575-.8-.858l-.025-.027,3.56-3.559.064.071c.243.268.493.545.761.813s.545.519.814.762l.07.063-3.559,3.559ZM21.46,55.343h0a20.886,20.886,0,0,1-1.506-1.926l3.561-3.546a21.742,21.742,0,0,0,1.506,1.913l-3.56,3.559ZM19.8,53.211h0a17.6,17.6,0,0,1-1.25-2.152L22.1,47.51a17.569,17.569,0,0,0,1.266,2.152L19.8,53.21ZM18.44,50.819h0a10.441,10.441,0,0,1-.852-2.566l3.529-3.53a11.01,11.01,0,0,0,.87,2.55l-3.546,3.547Zm-.888-2.885v0l-.006-.05a5.491,5.491,0,0,1-.055-.665,3.071,3.071,0,0,1,.806-2.262l2.945-2.945a3.994,3.994,0,0,0-.264,1.471,6.156,6.156,0,0,0,.086.933l-3.51,3.518Zm11.469-6.286h0A13.547,13.547,0,0,0,26.6,40.578l-2.015-2.015A17.7,17.7,0,0,0,26.74,37.3l3.56,3.549c-.5.339-.909.594-1.279.8Zm-7.742-.031h0l-2.191-2.193a3.969,3.969,0,0,0,1.471.265,6.053,6.053,0,0,0,.914-.085l1.013.984a2.66,2.66,0,0,0-.63.454l-.575.575Zm9.232-.914h0l-3.563-3.551a21.8,21.8,0,0,0,1.913-1.507l3.559,3.56a21.286,21.286,0,0,1-1.909,1.5Zm-7.786-.229h0l-.925-.925a10.979,10.979,0,0,0,2.549-.871l1.76,1.76a7.335,7.335,0,0,0-1.814-.274h-.007a3.9,3.9,0,0,0-1.561.31Zm-2.163-1.035h0a2.8,2.8,0,0,1-3.067-3.067c0-2.569,1.946-6.178,4.966-9.2,2.557-2.56,5.558-4.368,8.026-4.836.029-.006.058-.013.088-.021s.076-.019.112-.025a.46.46,0,0,1,.062-.005.485.485,0,0,0,.056,0,5.83,5.83,0,0,1,.841-.072h.018a4.044,4.044,0,0,1,.987.128,2.682,2.682,0,0,1,1.265.676,3.077,3.077,0,0,1,.8,2.263,8.952,8.952,0,0,1-.948,3.6c-.037.079-.075.159-.115.238A16.976,16.976,0,0,1,32.4,31.28c-.032.048-.065.1-.1.144l-.046.066a21.527,21.527,0,0,1-1.5,1.916c-.03.033-.061.066-.092.1l-.079.084c-.263.292-.535.594-.825.884s-.574.546-.858.8l-.027.025-.079.075c-.034.032-.068.065-.1.1a21.119,21.119,0,0,1-1.917,1.5l-.072.05c-.047.033-.092.064-.137.095a17.08,17.08,0,0,1-2.16,1.259c-.08.039-.16.077-.239.113A8.973,8.973,0,0,1,20.562,39.438Zm1.844-7.968a1.451,1.451,0,0,0-.982.527,1.675,1.675,0,0,0-.412.764.611.611,0,0,0,.138.6.505.505,0,0,0,.346.121,1.45,1.45,0,0,0,.982-.527c.441-.487.565-1.1.275-1.361A.5.5,0,0,0,22.406,31.47Zm2.566-2.279A2.873,2.873,0,0,0,23.057,30.2l-.015.073,2.075,1.886a1.012,1.012,0,0,0,.694.243,2.869,2.869,0,0,0,1.915-1.006l.014-.072-2.074-1.886A1.012,1.012,0,0,0,24.972,29.191Zm2.4-2.646a2.869,2.869,0,0,0-1.915,1.006l-.015.072,3.127,2.841a1.008,1.008,0,0,0,.694.243A2.869,2.869,0,0,0,31.178,29.7l.015-.072-3.128-2.841A1.012,1.012,0,0,0,27.371,26.545ZM32.6,39.034h0l-3.559-3.56.025-.022c.283-.256.576-.52.859-.8.263-.262.51-.536.748-.8l.077-.085,3.56,3.56-.024.026c-.256.283-.52.576-.8.858s-.56.534-.836.783l-.047.043Zm1.881-1.893h0l-3.56-3.56a21.6,21.6,0,0,0,1.5-1.913l3.56,3.549a21.118,21.118,0,0,1-1.5,1.923Zm1.652-2.129h0L32.575,31.46a17.287,17.287,0,0,0,1.268-2.152l3.548,3.549a17.26,17.26,0,0,1-1.252,2.154ZM37.5,32.617h0l-3.547-3.547a11.03,11.03,0,0,0,.87-2.551l3.53,3.531a10.457,10.457,0,0,1-.852,2.566Zm.888-2.886h0l-3.51-3.517a6.133,6.133,0,0,0,.086-.934,4,4,0,0,0-.264-1.472l2.945,2.945a3.084,3.084,0,0,1,.806,2.263,5.605,5.605,0,0,1-.052.642l-.009.072Zm-7.91-7.646h0a10.574,10.574,0,0,1-2.435-.82L31.6,17.716a11.014,11.014,0,0,0,2.55.871l-3.459,3.457c-.041.006-.083.015-.124.024l-.08.017Zm2.164,0h0a4.255,4.255,0,0,0-1-.123,4.059,4.059,0,0,0-.429.034l-.147.016,3.4-3.369a6.021,6.021,0,0,0,.916.085,3.983,3.983,0,0,0,1.471-.265l-2.945,2.946a2.688,2.688,0,0,1-1.265.676Zm-4.838-.934h0A17.542,17.542,0,0,1,25.661,19.9l3.544-3.569A17.533,17.533,0,0,0,31.357,17.6L27.81,21.15Zm-2.386-1.419h0a20.517,20.517,0,0,1-1.9-1.486l3.56-3.56A21.482,21.482,0,0,0,29,16.189L25.424,19.73Zm9.964-1.254h0a8.982,8.982,0,0,1-3.6-.949l-.238-.113a17.08,17.08,0,0,1-2.16-1.259c-.049-.033-.1-.067-.147-.1l-.062-.044a21.222,21.222,0,0,1-1.917-1.5c-.03-.027-.061-.056-.091-.085s-.061-.059-.092-.086c-.292-.264-.594-.536-.885-.826s-.545-.574-.8-.857l-.024-.027c-.032-.036-.066-.071-.1-.106l-.072-.076a21.333,21.333,0,0,1-1.5-1.917c-.049-.07-.1-.139-.146-.21a17.073,17.073,0,0,1-1.258-2.16c-.04-.079-.078-.16-.115-.239a8.969,8.969,0,0,1-.949-3.6,3.082,3.082,0,0,1,.806-2.263,3.071,3.071,0,0,1,2.262-.8H24.3c2.567,0,6.173,1.949,9.185,4.966s4.97,6.623,4.966,9.193a3.082,3.082,0,0,1-.806,2.263A3.073,3.073,0,0,1,35.387,18.477Zm-4.442-5.73a.527.527,0,0,0-.406.159.514.514,0,0,0-.12.38,1.5,1.5,0,0,0,.526.947,1.52,1.52,0,0,0,.955.432.528.528,0,0,0,.4-.157.612.612,0,0,0,.079-.608,1.671,1.671,0,0,0-.485-.721A1.518,1.518,0,0,0,30.945,12.747Zm-.677-4.833L28.381,9.989c-.521.575-.186,1.722.763,2.61l.072.014L31.1,10.538c.522-.574.187-1.72-.762-2.608ZM28.577,4.462,25.735,7.59c-.521.575-.186,1.721.763,2.609l.073.015,2.841-3.128c.522-.575.186-1.721-.763-2.609ZM23.341,18.073h0l-.047-.043c-.276-.249-.562-.507-.836-.783s-.547-.574-.8-.858l-.024-.026,3.56-3.56.047.052c.248.275.5.559.779.834s.561.533.838.783l.046.041-3.559,3.56ZM21.46,16.18h0a21.01,21.01,0,0,1-1.517-1.941l3.572-3.531A21.6,21.6,0,0,0,25.02,12.62l-3.56,3.56Zm-1.666-2.147h0a17.527,17.527,0,0,1-1.24-2.136L22.1,8.347A17.494,17.494,0,0,0,23.369,10.5l-3.574,3.533ZM18.44,11.656h0a10.459,10.459,0,0,1-.852-2.566l3.529-3.531a11.012,11.012,0,0,0,.87,2.551l-3.546,3.547ZM17.552,8.77v0l-.006-.052a5.462,5.462,0,0,1-.055-.662A3.075,3.075,0,0,1,18.3,5.791l2.945-2.945a4,4,0,0,0-.264,1.471,6.22,6.22,0,0,0,.086.933l-3.51,3.518Z" fill="#fff"></path></svg> 