<?xml version="1.0" encoding="UTF-8"?> <svg xmlns="http://www.w3.org/2000/svg" id="Layer_1" viewBox="0 0 90.84 84"><defs><style>.cls-1{fill:#010101;}</style></defs><path class="cls-1" d="M12.31,25.81H.73V14.23H12.31v11.57Zm-10.07-1.5H10.81V15.73H2.23v8.57Z"></path><g><path class="cls-1" d="M12.31,83.36H.73v-11.57H12.31v11.57Zm-10.07-1.5H10.81v-8.57H2.23v8.57Z"></path><path class="cls-1" d="M69.86,83.36h-11.57v-11.57h11.57v11.57Zm-10.07-1.5h8.57v-8.57h-8.57v8.57Z"></path><path class="cls-1" d="M41.08,83.36h-11.57v-11.57h11.57v11.57Zm-10.07-1.5h8.57v-8.57h-8.57v8.57Z"></path></g><g><path class="cls-1" d="M12.31,54.58H.73v-11.57H12.31v11.57Zm-10.07-1.5H10.81v-8.57H2.23v8.57Z"></path><path class="cls-1" d="M69.86,54.58h-11.57v-11.57h11.57v11.57Zm-10.07-1.5h8.57v-8.57h-8.57v8.57Z"></path><path class="cls-1" d="M41.08,54.58h-11.57v-11.57h11.57v11.57Zm-10.07-1.5h8.57v-8.57h-8.57v8.57Z"></path></g><g><path class="cls-1" d="M15.15,21.02c-.26,0-.52-.11-.71-.29-.19-.19-.29-.44-.29-.71s.11-.52,.29-.71c.37-.37,1.04-.37,1.41,0,.19,.19,.29,.44,.29,.71s-.11,.52-.29,.71c-.19,.19-.44,.29-.71,.29Z"></path><path class="cls-1" d="M19.91,20.02c0-.55,.45-1,1-1h0c.55,0,1,.45,1,1h0c0,.55-.45,1-1,1h0c-.55,0-1-.45-1-1Z"></path><path class="cls-1" d="M26.66,21.02c-.26,0-.52-.11-.71-.29-.19-.19-.29-.44-.29-.71s.11-.52,.29-.71c.37-.37,1.04-.37,1.41,0,.19,.19,.29,.44,.29,.71s-.11,.52-.29,.71c-.19,.19-.44,.29-.71,.29Z"></path></g><g><path class="cls-1" d="M15.15,49.8c-.26,0-.52-.11-.71-.29-.19-.19-.29-.44-.29-.71s.11-.52,.29-.71c.37-.37,1.04-.37,1.41,0,.19,.19,.29,.44,.29,.71s-.11,.52-.29,.71c-.19,.19-.44,.29-.71,.29Z"></path><path class="cls-1" d="M19.91,48.8c0-.55,.45-1,1-1h0c.55,0,1,.45,1,1h0c0,.55-.45,1-1,1h0c-.55,0-1-.45-1-1Z"></path><path class="cls-1" d="M26.66,49.8c-.26,0-.52-.11-.71-.29-.19-.19-.29-.44-.29-.71s.11-.52,.29-.71c.37-.37,1.04-.37,1.41,0,.19,.19,.29,.44,.29,.71s-.11,.52-.29,.71c-.19,.19-.44,.29-.71,.29Z"></path></g><g><path class="cls-1" d="M15.15,78.58c-.26,0-.52-.11-.71-.29-.19-.19-.29-.44-.29-.71s.11-.52,.29-.71c.37-.37,1.04-.37,1.41,0,.19,.19,.29,.44,.29,.71s-.11,.52-.29,.71-.44,.29-.71,.29Z"></path><path class="cls-1" d="M19.91,77.58c0-.55,.45-1,1-1h0c.55,0,1,.45,1,1h0c0,.55-.45,1-1,1h0c-.55,0-1-.45-1-1Z"></path><path class="cls-1" d="M26.66,78.58c-.26,0-.52-.11-.71-.29-.19-.19-.29-.44-.29-.71s.11-.52,.29-.71c.37-.37,1.04-.37,1.41,0,.19,.19,.29,.44,.29,.71s-.11,.52-.29,.71c-.19,.19-.44,.29-.71,.29Z"></path></g><g><path class="cls-1" d="M43.93,49.8c-.26,0-.52-.11-.71-.29-.19-.19-.29-.45-.29-.71s.11-.52,.29-.71c.37-.37,1.04-.37,1.42,0,.19,.19,.29,.44,.29,.71s-.11,.52-.29,.71c-.19,.19-.45,.29-.71,.29Z"></path><path class="cls-1" d="M48.69,48.8c0-.55,.45-1,1-1h0c.55,0,1,.45,1,1h0c0,.55-.45,1-1,1h0c-.55,0-1-.45-1-1Z"></path><path class="cls-1" d="M55.44,49.8c-.26,0-.52-.11-.71-.29-.19-.19-.29-.44-.29-.71s.11-.52,.29-.71c.37-.37,1.04-.37,1.42,0,.18,.19,.29,.44,.29,.71s-.11,.52-.29,.71c-.19,.19-.44,.29-.71,.29Z"></path></g><g><path class="cls-1" d="M43.93,78.58c-.26,0-.52-.11-.71-.29-.19-.19-.29-.45-.29-.71s.11-.52,.29-.71c.37-.37,1.04-.37,1.42,0,.19,.19,.29,.44,.29,.71s-.11,.52-.29,.71c-.19,.19-.45,.29-.71,.29Z"></path><path class="cls-1" d="M48.69,77.58c0-.55,.45-1,1-1h0c.55,0,1,.45,1,1h0c0,.55-.45,1-1,1h0c-.55,0-1-.45-1-1Z"></path><path class="cls-1" d="M55.44,78.58c-.26,0-.52-.11-.71-.29-.19-.19-.29-.44-.29-.71s.11-.52,.29-.71c.37-.37,1.04-.37,1.42,0,.18,.19,.29,.44,.29,.71s-.11,.52-.29,.71c-.19,.19-.44,.29-.71,.29Z"></path></g><g><path class="cls-1" d="M35.3,29.65c-.26,0-.52-.11-.71-.29-.19-.19-.29-.44-.29-.71s.11-.52,.29-.71c.37-.37,1.04-.37,1.42,0,.19,.18,.29,.44,.29,.71s-.11,.52-.29,.71c-.19,.19-.44,.29-.71,.29Z"></path><path class="cls-1" d="M34.3,34.41c0-.55,.45-1,1-1h0c.55,0,1,.45,1,1h0c0,.55-.45,1-1,1h0c-.55,0-1-.45-1-1Z"></path><path class="cls-1" d="M35.3,41.16c-.26,0-.52-.11-.71-.29-.19-.19-.29-.44-.29-.71s.11-.52,.29-.71c.37-.37,1.04-.37,1.42,0,.19,.19,.29,.44,.29,.71s-.11,.52-.29,.71c-.19,.19-.45,.29-.71,.29Z"></path></g><g><path class="cls-1" d="M6.52,29.65c-.06,0-.13,0-.19-.02s-.13-.03-.19-.06c-.06-.03-.12-.06-.17-.09-.06-.04-.11-.08-.15-.12-.19-.19-.29-.44-.29-.71s.11-.52,.29-.71c.05-.05,.1-.09,.15-.12,.05-.04,.11-.07,.17-.09,.06-.03,.12-.05,.19-.06,.33-.07,.67,.04,.9,.27,.19,.19,.29,.44,.29,.71s-.11,.52-.29,.71c-.19,.19-.44,.29-.71,.29Z"></path><path class="cls-1" d="M5.52,34.41c0-.55,.45-1,1-1h0c.55,0,1,.45,1,1h0c0,.55-.45,1-1,1h0c-.55,0-1-.45-1-1Z"></path><path class="cls-1" d="M6.52,41.16c-.06,0-.13,0-.19-.02s-.13-.03-.19-.06c-.06-.03-.12-.06-.17-.09-.06-.04-.11-.08-.15-.12-.19-.19-.29-.44-.29-.71s.11-.52,.29-.71c.37-.37,1.04-.37,1.41,0,.19,.19,.29,.44,.29,.71s-.11,.52-.29,.71c-.19,.19-.44,.29-.71,.29Z"></path></g><g><path class="cls-1" d="M64.08,58.43c-.26,0-.52-.11-.71-.29-.19-.19-.29-.44-.29-.71s.11-.52,.29-.71c.37-.37,1.04-.37,1.41,0,.19,.19,.29,.44,.29,.71s-.11,.52-.29,.71c-.19,.19-.44,.29-.71,.29Z"></path><path class="cls-1" d="M63.08,63.19c0-.55,.45-1,1-1h0c.55,0,1,.45,1,1h0c0,.55-.45,1-1,1h0c-.55,0-1-.45-1-1Z"></path><path class="cls-1" d="M64.08,69.94c-.26,0-.52-.11-.71-.29-.19-.19-.29-.44-.29-.71s.11-.52,.29-.71c.37-.37,1.04-.37,1.41,0,.19,.19,.29,.44,.29,.71s-.11,.52-.29,.71c-.19,.19-.44,.29-.71,.29Z"></path></g><g><path class="cls-1" d="M35.3,58.43c-.26,0-.52-.11-.71-.29-.19-.19-.29-.44-.29-.71s.11-.52,.29-.71c.37-.37,1.04-.37,1.42,0,.19,.19,.29,.44,.29,.71s-.11,.52-.29,.71c-.19,.19-.44,.29-.71,.29Z"></path><path class="cls-1" d="M34.3,63.19c0-.55,.45-1,1-1h0c.55,0,1,.45,1,1h0c0,.55-.45,1-1,1h0c-.55,0-1-.45-1-1Z"></path><path class="cls-1" d="M35.3,69.94c-.26,0-.52-.11-.71-.29-.19-.19-.29-.44-.29-.71s.11-.52,.29-.71c.37-.37,1.04-.37,1.42,0,.19,.19,.29,.44,.29,.71s-.11,.52-.29,.71c-.19,.19-.45,.29-.71,.29Z"></path></g><g><path class="cls-1" d="M6.52,58.43c-.26,0-.52-.11-.71-.29-.19-.19-.29-.44-.29-.71s.11-.52,.29-.71c.37-.37,1.04-.37,1.41,0,.19,.19,.29,.45,.29,.71s-.11,.52-.29,.71c-.18,.19-.44,.29-.71,.29Z"></path><path class="cls-1" d="M5.52,63.19c0-.55,.45-1,1-1h0c.55,0,1,.45,1,1h0c0,.55-.45,1-1,1h0c-.55,0-1-.45-1-1Z"></path><path class="cls-1" d="M6.52,69.94c-.06,0-.13,0-.19-.02s-.13-.03-.19-.06c-.06-.03-.12-.06-.17-.09-.06-.04-.11-.08-.15-.12-.19-.19-.29-.44-.29-.71s.11-.52,.29-.71c.37-.37,1.04-.37,1.41,0,.19,.19,.29,.44,.29,.71s-.11,.52-.29,.71c-.19,.19-.44,.29-.71,.29Z"></path></g><path class="cls-1" d="M73.72,34.64c3.39-3.65,5.49-8.52,5.49-13.88C79.21,9.49,70.04,.32,58.77,.32c-8.98,0-16.61,5.83-19.35,13.91h-9.92v11.57h9.49c2.26,8.83,10.25,15.38,19.77,15.38,5.36,0,10.24-2.09,13.88-5.49l16.39,16.39,1.06-1.06-16.39-16.39ZM31.01,24.31V15.73h7.98c-.41,1.61-.65,3.29-.65,5.02,0,1.21,.13,2.39,.33,3.55h-7.66Zm27.76,15.38c-10.44,0-18.93-8.49-18.93-18.93S48.33,1.82,58.77,1.82s18.93,8.49,18.93,18.93-8.49,18.93-18.93,18.93Z"></path></svg> 