<?xml version="1.0" encoding="UTF-8"?> <svg xmlns="http://www.w3.org/2000/svg" xmlns:xlink="http://www.w3.org/1999/xlink" version="1.1" id="Layer_1" x="0px" y="0px" viewBox="0 0 67 67" style="enable-background:new 0 0 67 67;" xml:space="preserve"> <style type="text/css"> .st0{fill:#FFFFFF;} </style> <path id="Subtraction_7" class="st0" d="M67,67H0V0h67V67z M35.7,56.2L35.7,56.2l0.3,6h0.3h0.6L36.8,61l-0.1-1.2l-0.1-1.2l0-0.4 c0-0.3,0-0.5,0-0.8c0-0.1,0-0.2,0-0.3c0-0.3,0-0.6,0-0.9l0.2,0l0.4,0L36.8,50l-2.1,0.1l0.3,6.1L35.7,56.2L35.7,56.2z M39.6,55.7 L39.6,55.7l0.4,1.6l0,0.1l1.1,4.8l0.8,0c-0.2-1-0.5-2-0.7-3.1v0l0-0.1c-0.3-1.2-0.5-2.3-0.8-3.5l0.4-0.1l0.2-0.1c-0.5-2-0.9-4-1.4-6 l-2.1,0.5c0.2,1,0.5,2,0.7,3c0.2,1,0.4,1.9,0.7,2.9l0.3,0h0L39.6,55.7L39.6,55.7z M31.9,49.8c-0.2,2-0.5,4-0.7,6.1l0.3,0.1l0.2,0 l0.1,0c-0.2,1.3-0.3,2.6-0.5,3.9l-0.2,2l0.8,0.1h0c0.1-0.9,0.2-1.9,0.3-2.8c0.1-1,0.3-2.1,0.4-3.1l0.4,0l0.2,0 c0.1-0.9,0.2-1.8,0.3-2.7l0-0.1c0.1-1.1,0.3-2.2,0.4-3.3l-1.6-0.2L31.9,49.8z M46.3,61.6l0.2,0.4l0.9,0l0,0c0,0,0,0,0-0.1l-3.1-7.4 c0,0,0-0.1,0-0.1l0-0.1l0.3-0.1l0.3-0.1c-0.7-1.8-1.5-3.6-2.4-5.6l-1.7,0.7l-0.2,0.1l0.4,0.8c0.7,1.6,1.4,3.2,2,4.8l0.4-0.2l0.1,0 l0.1,0l0,0l0,0.1c0,0.1,0,0.1,0.1,0.2l1.1,2.6l0,0l0,0c0.5,1.1,0.9,2.2,1.4,3.4C46,61.1,46.2,61.3,46.3,61.6L46.3,61.6L46.3,61.6z M46.8,52.8L46.8,52.8l3.1,4.8l2.5,3.9l0.7-0.1h0l0.2,0l-4.1-6.3l0-0.1l-1.8-2.7l0.2-0.1L48,52l-2.8-4.4l-0.5-0.7l-0.9,0.6L42.9,48 l0.6,0.9l0.1,0.1c0.9,1.4,1.8,2.7,2.7,4.1l0.3-0.2L46.8,52.8L46.8,52.8z M29.1,49c-0.1,0.3-1.8,5.7-1.8,5.9l0.3,0.1l0.1,0l0.2,0.1 c-0.5,1.5-0.9,2.9-1.3,4.4l0,0l-0.5,1.5l0.1,0l0.7,0.2c0.3-0.9,0.6-1.8,0.8-2.7c0.3-1,0.6-2.1,1-3.2l0.3,0.1l0.3,0.1l0.3-1.1 l1.4-4.7l-1.6-0.5L29.1,49z M49.9,50.4L49.9,50.4L49.9,50.4L49.9,50.4c0.1,0.1,0.1,0.1,0.2,0.2c2.5,2.7,5.1,5.5,7.6,8.2l0.3,0.4l0,0 c0.3,0.3,0.6,0.6,0.9,0.9c0,0.1,0.1,0.1,0.2,0.1h0c0,0,0,0,0.1,0c0.2-0.1,0.4-0.1,0.6-0.2l0.2-0.1c-2.7-2.9-5.6-6-9.4-10.1l0.1-0.1 l0.3-0.3l-4.2-4.5L46,45.7l0,0l-0.7,0.6l2.2,2.4l0,0l0.1,0.1l1.8,1.9l0.3-0.2l0,0L49.9,50.4L49.9,50.4z M26.6,47.8l-2.8,5.5l0.1,0.1 c0.1,0.1,0.3,0.2,0.4,0.2l-2.1,4.1l-0.1,0.2l-0.9,1.8L22,60l0,0l2.8-5.5l0,0l0.3-0.5l0.2,0.1l0.3,0.2l2.7-5.3l0.1-0.1l-1-0.5 L26.6,47.8L26.6,47.8z M24.3,46.1l-0.7,1c-1,1.3-2,2.6-2.9,3.9c0.2,0.1,0.3,0.3,0.5,0.4c-1.6,2.1-3.2,4.2-4.8,6.4l0.3,0.1l0.5,0.2 l1.6-2.1l0.5-0.7l1-1.4l0.5-0.7c0.3-0.5,0.7-0.9,1-1.4l0.5,0.4l2.4-3.2l1.2-1.6L24.3,46.1z M52.6,47.6L52.6,47.6l5,3.8l0.2,0.2 l7.4,5.6l0.2-0.2l0.4-0.5l-12.6-9.6l0.2-0.3l0.2-0.3L51.6,45l-3-2.3l-1.3,1.7l2.1,1.6l0,0l0.1,0.1l2.7,2l0.2-0.2L52.6,47.6 L52.6,47.6z M22.3,44.1L22.3,44.1l-1.8,1.7l0,0c-0.9,0.8-1.8,1.7-2.7,2.5l0.2,0.2l0.2,0.3l-1.5,1.4l-5.5,5.1l0.6,0.3l0.2,0.1 l2.9-2.7l0,0l3.8-3.5l0.2,0.2l0.2,0.2c0.3-0.2,4.4-4,4.5-4.2l-0.9-1L22.3,44.1L22.3,44.1z M20.7,41.7L20.7,41.7l-1.4,0.9L15.5,45 l0.1,0.2c0.1,0.1,0.1,0.2,0.2,0.4L13.8,47l-7.3,4.8c0.3,0.2,0.5,0.4,0.7,0.6l3.1-2.1l6-3.9l0.1,0.2l0.3,0.4l5.1-3.3l-0.1-0.2 L20.7,41.7L20.7,41.7z M54.7,44.3L54.7,44.3C54.8,44.3,54.8,44.3,54.7,44.3l11.7,5.9l0,0c0,0,0,0,0.1,0c0,0,0,0,0,0h0h0c0,0,0,0,0,0 l0,0l-0.1-0.2c-0.1-0.2-0.1-0.4-0.2-0.6c0-0.1-0.1-0.3-0.3-0.3c-3.6-1.8-7.2-3.7-10.7-5.5l-0.2-0.1l0,0l0.3-0.6l-5.3-2.7l-0.1-0.1 c-0.3,0.6-0.6,1.3-1,1.9c1.8,0.9,3.6,1.8,5.4,2.8l0.1-0.2v0C54.6,44.5,54.7,44.4,54.7,44.3L54.7,44.3z M19.5,39.1l-1.7,0.7l-0.2,0.1 l-3.8,1.6l0.1,0.3l0.1,0.3l-5.3,2.3l-0.4,0.2L2.5,47l0.3,0.5l0.1,0.2L4.8,47l9.6-4.1l0.1,0.2l0.2,0.4l0.3-0.1l0,0l5.3-2.3 c-0.2-0.5-0.4-1-0.6-1.5L19.5,39.1L19.5,39.1z M56.3,40.7L56.3,40.7l2.9,0.9l0.1,0l0.1,0l4.2,1.3l0-0.1c0,0,0-0.1,0-0.1 c0-0.1-0.1-0.1-0.1-0.2c-0.1-0.1-0.1-0.3-0.2-0.5c-0.1-0.1-0.2-0.2-0.3-0.3c-1.6-0.5-3.1-1-4.7-1.4l-1.4-0.4l-0.1,0l-0.1,0l0.1-0.2 c0-0.1,0.1-0.3,0.1-0.4l-3.4-1l-2.5-0.8c-0.2,0.7-0.4,1.4-0.6,2l4.8,1.5l0,0l1,0.3l0.1-0.2L56.3,40.7L56.3,40.7z M18.8,36.3l-0.2,0 h0l-1.3,0.3l-1,0.2L15.8,37l-0.5,0.1l-0.1,0l-0.9,0.2c-0.2,0-0.3,0.1-0.5,0.1c-0.3,0.1-0.7,0.1-1,0.2l0,0c0,0.2,0.1,0.4,0.1,0.6 l-0.1,0c0,0-0.1,0-0.1,0L10.2,39L9,39.3l-1.8,0.4l-0.2,0l-2,0.5l-1.6,0.4l0,0h0l-2.1,0.5c-0.2,0.1-0.2,0.1-0.3,0.3l0,0.7L1,42 c0,0,0.1,0,0.1,0l0,0l0,0c1.3-0.3,2.7-0.6,4-0.9L8,40.3h0l1.2-0.3l3.7-0.9c0,0,0.1,0,0.1,0l0.1,0l0.1,0.3l0.1,0.3l0.9-0.2l1.1-0.3 l1-0.2h0l1-0.2l0.6-0.1c0.4-0.1,0.9-0.2,1.3-0.3l-0.1-0.5v0C19,37.4,18.9,36.9,18.8,36.3L18.8,36.3z M51.2,34.6 c-0.1,0.5-0.1,0.9-0.2,1.4L51,36.7l2.4,0.3h0l3.7,0.5c0-0.1,0-0.2,0.1-0.4l0-0.3l2.3,0.3l1.6,0.2l-0.2-0.4l-0.2-0.4 c-0.5-0.1-1.1-0.1-1.6-0.2c-0.6-0.1-1.2-0.1-1.9-0.2c0-0.1,0-0.2,0-0.3v0c0-0.1,0-0.2,0-0.3l-1.9-0.2L51.2,34.6z M12.5,35.3 L12.5,35.3l0,0.3c0,0.1,0,0.3,0,0.4h0.1c0.3,0,1.1,0,2.3-0.1c1.7-0.1,3.6-0.2,3.7-0.2l-0.1-2.1c0,0,0,0-0.1,0c-0.7,0-5.9,0.3-6,0.3 l0,0.3c0,0.1,0,0.2,0,0.3l-0.3,0l-8.8,0.5H3.3c0,0-0.1,0-0.1,0h0c-0.1,0-0.2,0-0.2,0.1c-0.1,0.1-0.1,0.2-0.2,0.3s-0.1,0.2-0.2,0.3 c0,0,0,0.1,0,0.1l0,0.1L5,35.7l2.5-0.1l1.3-0.1l1.3-0.1L12.5,35.3L12.5,35.3z M57.2,31.5L57.2,31.5l-6.1,0.3l0.1,2.1h0.1 c0.3,0,1.1,0,2.3-0.1c1.7-0.1,3.6-0.2,3.7-0.2c0-0.2,0-0.4,0-0.6l2.4-0.1c0-0.2-0.1-0.5-0.1-0.7l0-0.1l-2.4,0.1c0-0.2,0-0.3-0.1-0.5 L57.2,31.5L57.2,31.5z M6.8,29.8L6.6,30l0,0l-0.4,0.5c2.1,0.3,4.2,0.5,6.4,0.8c0,0.2,0,0.3,0,0.5l0,0.2l3.9,0.5l2.2,0.3l0.1-0.6 l0.2-1.5l-0.5-0.1l-1.5-0.2l-0.8-0.1h0c-0.4-0.1-0.8-0.1-1.2-0.2c-0.2,0-0.5-0.1-0.7-0.1c-0.4-0.1-0.9-0.1-1.3-0.2l0,0 c0,0.2-0.1,0.4-0.1,0.6l-0.4,0l-0.1,0L6.8,29.8z M56.5,27.6L56.5,27.6c-0.1,0-5.8,1.3-5.9,1.4c0.2,0.7,0.3,1.4,0.5,2l2.5-0.6l0.1,0 l3.4-0.8l-0.1-0.5l0-0.1l1.3-0.3l1.6-0.4c0-0.2,0-0.3,0-0.4v0c0-0.1,0-0.3,0-0.4L58,27.9l-1.3,0.3l-0.1-0.3L56.5,27.6L56.5,27.6z M9.5,25.5l-0.2,0.4l-0.2,0.3l3,0.9l1.2,0.4c0,0.1-0.1,0.2-0.1,0.4c0,0.1,0,0.2-0.1,0.3l2.2,0.7l0.2,0l3.5,1.1l0.4-1.3v0l0.2-0.7 l-2.5-0.8L17,27.1l-3.2-1c-0.1,0.2-0.1,0.3-0.2,0.5l0,0.1l-1.4-0.4h0L9.5,25.5z M55.1,23.9L55.1,23.9l-1.6,0.7l-4,1.7l0,0.1 c0.3,0.6,0.5,1.2,0.8,1.8c0.3-0.1,5.5-2.3,5.6-2.4l-0.1-0.2c0-0.1-0.1-0.2-0.1-0.3l0.1,0c0.1,0,0.1-0.1,0.2-0.1l0.8-0.4 c1.1-0.5,2.1-0.9,3.2-1.4c0.3-0.1,0.4-0.2,0.4-0.5c0-0.1,0-0.2,0-0.4c0-0.1,0-0.1,0-0.2c-0.8,0.4-1.7,0.7-2.5,1.1 c-0.8,0.4-1.7,0.7-2.5,1.1l-0.1-0.3l0-0.1L55.1,23.9L55.1,23.9z M11.9,21.4c-0.1,0.2-0.2,0.4-0.4,0.6l0,0l-0.1,0.1l1.4,0.7l1.8,0.9 l-0.1,0.3v0l-0.1,0.3l2.3,1.2l0.1,0l3,1.6l0.5-1l0.5-0.9l-2.4-1.2l0,0l0,0l-3.1-1.6c-0.1,0.2-0.2,0.4-0.3,0.6l-1.3-0.7L11.9,21.4z M53.1,20.6L53.1,20.6l-1.6,1l0,0L48,23.9l0.3,0.5c0.3,0.4,0.6,0.9,0.8,1.3l3-2l0.1,0l0.1-0.1l1.9-1.3c-0.1-0.2-0.2-0.4-0.3-0.6 l0.1-0.1l0.2-0.1l4-2.6l0,0l1.6-1l0.2-0.1c0.1-0.1,0.3-0.2,0.4-0.3c0.1,0,0.1-0.1,0.1-0.1c0-0.2,0-0.4-0.1-0.6c0-0.1,0-0.2,0-0.3 l-4,2.6l-3,1.9l-0.1-0.2L53.1,20.6L53.1,20.6z M14.1,17.4L14.1,17.4l-0.4,0.7l0.2,0.1l0,0c1,0.7,1.9,1.5,2.9,2.2l-0.2,0.3L16.4,21 l2.5,1.9l0.1,0.1l2.3,1.8l0.3-0.4l0,0c0.3-0.4,0.6-0.9,1-1.3L20,21.1h0l0,0l-2.3-1.8l-0.4,0.4l0,0.1l-0.8-0.6L14.1,17.4z M50.6,17.6 l-2.8,2.6l-0.2,0.1l-1.6,1.5l1.5,1.6l1-0.9l0,0l3.5-3.3l-0.2-0.2l-0.2-0.2c2.2-2.1,4.6-4.3,7.4-6.9c-0.2-0.3-0.3-0.5-0.4-0.7 l-2.5,2.3l0,0L51.1,18l-0.2-0.2L50.6,17.6L50.6,17.6z M16.5,13.3l-0.2,0.3c-0.1,0.2-0.2,0.3-0.3,0.5l1.8,1.9l0,0l1.5,1.6l-0.4,0.4 L18.9,18l1.4,1.5l2.7,2.9l0.4-0.4l0,0l1.1-1l-2.2-2.4l-2-2.1l-0.1,0.1l0,0l-0.3,0.3L16.5,13.3L16.5,13.3L16.5,13.3z M47.6,15.1 L47.6,15.1l-1.8,2.4L43.9,20l1,0.8l0.7,0.5l1.8-2.4l0,0l0,0l1.8-2.4l-0.3-0.3L48.8,16l3.6-4.8l0.1-0.1l2.7-3.6l-0.3-0.2l-0.4-0.3 c-2.3,3-4.3,5.7-6.3,8.4L47.6,15.1L47.6,15.1z M19.6,9.3L19.6,9.3l-0.1,0.2l0,0L19,9.9l1.6,2.5l0,0l1.7,2.6l0,0l-0.5,0.4l2.7,4.2 l0.6,1L26,20l0,0l0.9-0.6c-1.2-1.8-2.3-3.6-3.3-5.1l-0.2,0.1l0,0L23,14.6l-1.7-2.6l-0.1-0.1l0,0L19.6,9.3L19.6,9.3z M44.2,13.2 L43,15.5l0,0.1l-1.6,3.1l1.1,0.6l0,0l0.8,0.4l1.5-2.9l0,0l1.3-2.6l-0.6-0.3l0.4-0.7l0.5-1l0.4-0.8v0l0.4-0.8l0.4-0.9l0.4-0.8L48.4,8 l0,0c0.2-0.3,0.3-0.7,0.5-1c0.1-0.2,0.2-0.4,0.3-0.6c0.2-0.4,0.4-0.8,0.6-1.2l-0.2-0.1h0L49,5.1c-0.7,1.4-1.4,2.8-2.1,4.2l-0.1,0.2 c-0.7,1.3-1.3,2.6-2,4l-0.2-0.1L44.2,13.2z M23.8,6.4L23,6.7c0.9,2.2,1.9,4.4,2.7,6.4c-0.2,0.1-0.4,0.2-0.6,0.3 c0.1,0.3,2.3,5.5,2.4,5.6l1.9-0.8c-0.8-1.8-1.6-3.7-2.4-5.6l-0.6,0.2L23.8,6.4z M40.5,11.9l-0.7,2.2l-1.1,3.6l0.6,0.2l1.5,0.4 l0.8-2.7l0,0l0,0l0.9-3.1l-0.6-0.2c0.4-1.2,0.7-2.4,1.1-3.6c0.4-1.4,0.9-2.9,1.3-4.3l-0.7-0.1l-0.1,0c-0.7,2.3-1.4,4.6-2.1,6.9l0,0 L41.1,12L40.9,12L40.5,11.9z M28.7,4.9L28.3,5L27.9,5c0.4,1.6,0.7,3.1,1.1,4.7l0.5,2.1l-0.2,0.1h0L28.8,12c0.5,2,0.9,4.1,1.4,6 c0.8-0.2,1.5-0.3,2.1-0.5c-0.3-1.1-0.5-2.2-0.8-3.3l-0.6-2.7l-0.1,0l-0.5,0.1l-0.9-3.9L28.7,4.9z M36.6,11.3c-0.2,2-0.5,4-0.7,6.1 l2.1,0.3c0.1-1,0.3-2.1,0.4-3.1c0.1-1,0.2-2,0.4-3l-0.4-0.1l-0.2,0c0.1-1.2,0.3-2.4,0.4-3.5c0.2-1.2,0.3-2.5,0.5-3.8l-0.8,0 c-0.3,2.4-0.6,4.8-0.9,7.1l-0.2,0L36.6,11.3L36.6,11.3L36.6,11.3z M33.8,4.3L33.8,4.3l-0.1,0c-0.1,0-0.1,0-0.2,0c-0.1,0-0.2,0-0.3,0 l-0.2,0l0.4,6.9l-0.4,0l-0.2,0l0,0c0,0,0,0,0,0c0,0,0,0.1,0,0.1c0.1,1,0.1,2,0.2,2.9l0,0.1c0,0.9,0.1,1.9,0.1,2.8c0,0,0,0,0,0l0,0 c0,0,0,0,0,0l0,0l0,0l2.1-0.1l-0.3-6.1h-0.1h-0.5l0-0.3c-0.1-1.9-0.2-4.1-0.3-6.3C33.8,4.5,33.8,4.4,33.8,4.3 C33.8,4.3,33.8,4.3,33.8,4.3L33.8,4.3z"></path> </svg> 