<?xml version="1.0" encoding="UTF-8"?> <svg xmlns="http://www.w3.org/2000/svg" id="Layer_1" viewBox="0 0 84 84"><defs><style>.cls-1{fill:#010101;}</style></defs><path class="cls-1" d="M76.52,7.45c-.49-.49-1.01-.96-1.55-1.41-.71-.59-1.46-1.13-2.25-1.62-.32-.21-.65-.4-.99-.59-.39-.22-.78-.43-1.18-.62-2.86-1.38-6.06-2.15-9.44-2.15,0,0,0,0,0,0-.6,0-1.19,.03-1.78,.08-.09,0-.17,.01-.26,.02-.56,.05-1.11,.13-1.66,.22-.1,.02-.21,.04-.31,.06-.54,.1-1.08,.22-1.61,.36-.08,.02-.17,.05-.25,.07-.55,.15-1.1,.32-1.63,.52,0,0-.01,0-.02,0-.53,.2-1.05,.42-1.56,.65-.07,.03-.14,.06-.21,.09-.49,.23-.97,.48-1.44,.75-.08,.05-.17,.1-.25,.14-.47,.27-.92,.56-1.36,.87-.06,.04-.13,.09-.19,.14-.46,.33-.91,.66-1.34,1.02,0,0,0,0,0,0-.44,.36-.86,.75-1.27,1.14-.04,.04-.09,.08-.13,.12-.39,.38-.76,.79-1.12,1.2-.06,.06-.11,.13-.16,.19-.35,.42-.7,.84-1.02,1.28-.04,.06-.08,.11-.12,.17-.67,.94-1.28,1.93-1.8,2.97-.02,.04-.04,.08-.06,.12-.25,.51-.48,1.02-.69,1.55-.03,.07-.05,.14-.08,.21-.2,.53-.39,1.06-.55,1.61-.02,.06-.03,.12-.05,.18-.16,.57-.31,1.14-.43,1.73-2.86-1.89-5.68-3.46-8.38-4.67-7.4-3.3-13.14-3.46-16.16-.44L3.24,25.38c-3.02,3.02-2.86,8.75,.44,16.16,3.2,7.18,9,15.17,16.32,22.49s15.31,13.12,22.49,16.32c3.88,1.73,7.3,2.6,10.11,2.6,2.56,0,4.61-.72,6.05-2.15l11.95-11.95c4.3-4.3,1.97-13.9-5.14-24.61,0,0,0,0,0,0,.57-.12,1.14-.26,1.69-.42,.07-.02,.15-.04,.22-.06,.53-.16,1.05-.34,1.56-.54,.09-.03,.17-.07,.25-.1,.51-.21,1.01-.43,1.5-.67,.06-.03,.12-.06,.18-.09,1.02-.51,1.99-1.11,2.92-1.77,.06-.04,.12-.09,.18-.13,.44-.32,.86-.66,1.27-1.01,.07-.06,.14-.12,.21-.18,.41-.36,.8-.72,1.18-1.11,.05-.05,.1-.1,.15-.16,.39-.41,.77-.82,1.13-1.26h0c.36-.43,.69-.88,1.02-1.34,.05-.07,.09-.13,.14-.2,.3-.44,.59-.89,.86-1.36,.05-.08,.1-.17,.15-.25,.27-.47,.52-.94,.75-1.43,.03-.07,.07-.15,.1-.22,.23-.51,.46-1.03,.65-1.56,0,0,0,0,0-.01,.19-.53,.36-1.08,.52-1.62,.02-.08,.05-.17,.07-.25,.14-.53,.26-1.06,.36-1.6,.02-.1,.04-.21,.06-.31,.09-.54,.17-1.09,.22-1.65,0-.09,.01-.18,.02-.27,.05-.58,.08-1.17,.08-1.77,0,0,0,0,0-.01,0-6.01-2.45-11.46-6.39-15.41Zm-6.97,60.32l-11.95,11.95c-2.51,2.51-7.79,2.24-14.48-.75-7.02-3.13-14.84-8.82-22.04-16.01-7.19-7.19-12.88-15.02-16.01-22.04-2.99-6.7-3.26-11.98-.75-14.48l11.95-11.95c1.14-1.14,2.84-1.7,5-1.7,2.59,0,5.83,.82,9.49,2.45,2.81,1.25,5.76,2.93,8.74,4.93,0,0,0,0,0,0-.11,.88-.17,1.78-.17,2.69,0,12.02,9.78,21.8,21.8,21.8,.9,0,1.79-.06,2.67-.17,6.87,10.21,9.52,19.53,5.77,23.28Zm11.77-42.94c-.02,.22-.06,.43-.09,.64-.06,.43-.11,.85-.19,1.27-.05,.26-.12,.51-.18,.76-.09,.36-.17,.73-.28,1.08-.08,.27-.17,.54-.26,.81-.11,.32-.23,.64-.35,.96-.11,.28-.23,.56-.36,.84-.13,.28-.26,.56-.4,.84-.15,.29-.3,.58-.46,.86-.14,.24-.28,.47-.43,.71-.19,.3-.38,.6-.58,.89-.13,.18-.26,.35-.4,.53-.24,.32-.49,.65-.75,.96-.06,.07-.13,.14-.19,.21-1.85,2.12-4.13,3.85-6.71,5.06-.02,0-.04,.02-.06,.03-.51,.24-1.03,.45-1.56,.64-.03,.01-.07,.02-.1,.04-.53,.19-1.08,.36-1.63,.51-.03,0-.05,.01-.08,.02-.56,.15-1.14,.27-1.72,.37-1.12,.19-2.25,.31-3.42,.31-11.19,0-20.3-9.11-20.3-20.3,0-1.16,.12-2.28,.31-3.39,.1-.59,.23-1.16,.37-1.73,0-.02,.01-.05,.02-.07,.15-.56,.32-1.11,.51-1.65,0-.03,.02-.05,.03-.08,.2-.54,.41-1.07,.65-1.59,0,0,0-.02,.01-.03,1.2-2.59,2.94-4.88,5.06-6.74,.08-.07,.15-.14,.22-.2,.31-.26,.63-.5,.96-.75,.18-.13,.35-.27,.53-.4,.29-.2,.59-.39,.89-.58,.23-.15,.47-.29,.71-.43,.28-.16,.57-.31,.86-.46,.28-.14,.56-.28,.84-.41,.28-.12,.55-.24,.83-.36,.32-.13,.64-.24,.96-.35,.27-.09,.53-.18,.81-.26,.36-.11,.72-.19,1.09-.28,.25-.06,.5-.13,.76-.18,.42-.08,.85-.14,1.28-.2,.21-.03,.42-.07,.64-.09,.65-.06,1.31-.1,1.97-.1,11.19,0,20.3,9.11,20.3,20.3,0,.67-.04,1.32-.1,1.97Z"></path><path class="cls-1" d="M60.9,16.74c-1.87,0-3.61,.57-5.06,1.54v-1.39c0-2.79,2.27-5.06,5.06-5.06,2.04,0,3.87,1.21,4.67,3.09l1.38-.58c-1.03-2.43-3.4-4.01-6.05-4.01-3.62,0-6.56,2.94-6.56,6.56v2.66c-1.58,1.64-2.55,3.86-2.55,6.31,0,5.03,4.09,9.11,9.11,9.11s9.11-4.09,9.11-9.11-4.09-9.11-9.11-9.11Zm0,16.73c-4.2,0-7.61-3.42-7.61-7.61s3.42-7.61,7.61-7.61,7.61,3.42,7.61,7.61-3.42,7.61-7.61,7.61Z"></path><path class="cls-1" d="M60.9,24.61c-.69,0-1.25,.56-1.25,1.25,0,.53,.33,.98,.8,1.16v2.22h.9v-2.22c.47-.18,.8-.63,.8-1.16,0-.69-.56-1.25-1.25-1.25Z"></path><path class="cls-1" d="M62.31,68.7h0c-.55,.01-.99,.47-.97,1.02,.01,.53,.44,.95,.96,.97,.02,0,.05,0,.07,0h0c.55-.02,.99-.47,.97-1.03-.01-.55-.47-.99-1.02-.97Z"></path><path class="cls-1" d="M57.54,67.97c-.53-.16-1.09,.15-1.24,.68-.16,.53,.15,1.09,.68,1.24,.08,.02,.16,.04,.24,.04,.45,.02,.87-.27,1-.72,.16-.53-.15-1.08-.68-1.24Z"></path><path class="cls-1" d="M52.89,66.15c-.5-.24-1.1-.03-1.33,.47-.24,.5-.03,1.09,.47,1.33,.13,.06,.26,.09,.39,.1,.39,.02,.77-.19,.95-.57,.24-.5,.03-1.1-.47-1.33Z"></path><path class="cls-1" d="M48.46,63.72c-.47-.29-1.09-.14-1.38,.33-.29,.47-.14,1.09,.33,1.38h0c.15,.09,.31,.14,.48,.15,.35,.02,.7-.16,.9-.48,.29-.47,.14-1.09-.33-1.37Z"></path><path class="cls-1" d="M42.84,61.11c-.32,.45-.23,1.07,.22,1.4,.17,.12,.35,.18,.54,.19,.32,.01,.65-.13,.85-.41,.32-.45,.23-1.07-.22-1.4-.45-.33-1.07-.23-1.4,.22Z"></path><path class="cls-1" d="M38.81,57.89c-.35,.42-.29,1.06,.13,1.41,.17,.15,.38,.22,.59,.23,.3,.01,.61-.11,.81-.36,.35-.42,.29-1.06-.13-1.41-.42-.35-1.06-.3-1.41,.13Z"></path><path class="cls-1" d="M34.98,54.44c-.38,.4-.35,1.04,.05,1.41,.18,.17,.41,.26,.64,.27,.28,.01,.57-.09,.77-.32,.38-.4,.35-1.04-.05-1.41-.4-.38-1.04-.35-1.41,.05Z"></path><path class="cls-1" d="M32.76,50.81c-.38-.4-1.02-.41-1.41-.03-.4,.38-.41,1.02-.02,1.41,.19,.19,.43,.29,.68,.3,.26,.01,.53-.08,.74-.28,.4-.38,.41-1.02,.02-1.41h0Z"></path><path class="cls-1" d="M29.3,47.04c-.36-.42-.99-.46-1.41-.1-.42,.36-.46,.99-.1,1.41,.19,.22,.45,.33,.71,.34,.25,.01,.5-.07,.7-.24,.42-.36,.46-1,.1-1.41h0Z"></path><path class="cls-1" d="M24.65,42.94c-.44,.34-.51,.97-.17,1.4,.19,.24,.46,.37,.75,.38,.23,0,.46-.06,.66-.21,.44-.34,.51-.97,.17-1.4-.34-.44-.97-.51-1.4-.17Z"></path><path class="cls-1" d="M21.63,38.75c-.45,.32-.57,.94-.25,1.39,.19,.27,.48,.42,.78,.43,.21,0,.43-.05,.61-.18,.45-.31,.57-.94,.25-1.39-.32-.45-.94-.57-1.39-.25Z"></path><path class="cls-1" d="M18.88,34.39c-.47,.28-.63,.9-.34,1.37,.18,.3,.49,.47,.81,.48,.19,0,.38-.04,.56-.14,.47-.28,.63-.9,.34-1.37-.28-.47-.9-.63-1.37-.34Z"></path><path class="cls-1" d="M16.45,29.84c-.49,.25-.69,.85-.45,1.34,.17,.34,.5,.54,.85,.55,.16,0,.33-.03,.49-.1,.49-.25,.69-.85,.45-1.34-.25-.49-.85-.69-1.34-.45Z"></path><path class="cls-1" d="M14.47,25.08c-.52,.19-.78,.77-.58,1.29,.14,.39,.5,.63,.89,.65,.13,0,.26-.01,.39-.06,.52-.19,.78-.77,.58-1.29-.19-.52-.77-.78-1.29-.59Z"></path><path class="cls-1" d="M14.35,20.87c-.11-.54-.64-.89-1.18-.78-.54,.11-.89,.64-.78,1.18,.09,.46,.49,.78,.94,.8,.08,0,.16,0,.24-.02,.54-.11,.89-.64,.78-1.18Z"></path></svg> 