<?xml version="1.0" encoding="UTF-8"?> <svg xmlns="http://www.w3.org/2000/svg" id="Layer_1" data-name="Layer 1" viewBox="0 0 80 80"><defs><style> .cls-1 { fill: #fff; stroke-width: 0px; } </style></defs><path class="cls-1" d="M40.23,18c.96,0,1.93-.26,2.81-.79,1.67-1.02,2.59-2.8,2.59-4.62,0-.96-.26-1.93-.79-2.81-1.02-1.67-2.8-2.59-4.62-2.59-.96,0-1.93.26-2.81.79-1.67,1.02-2.59,2.8-2.59,4.62,0,.96.26,1.93.79,2.81,1.02,1.67,2.8,2.59,4.62,2.59ZM37.93,8.83c.72-.44,1.51-.65,2.29-.65,1.49,0,2.94.75,3.77,2.11.44.72.65,1.51.65,2.29,0,1.49-.75,2.94-2.11,3.77-.72.44-1.51.65-2.29.65-1.49,0-2.94-.75-3.77-2.11-.44-.72-.65-1.51-.65-2.29,0-1.49.75-2.94,2.11-3.77Z"></path><path class="cls-1" d="M71.29,26.9c0-.15,0-.31-.02-.47-.24-2.82-2.6-4.94-5.38-4.94-.15,0-.31,0-.47.02l.04.5-.04-.5c-2.82.24-4.94,2.6-4.94,5.38,0,.15,0,.31.02.47.24,2.82,2.6,4.94,5.38,4.94.15,0,.31,0,.47-.02.15-.01.29-.06.44-.08,1.28,3.27,1.95,6.72,2.01,10.19h-7.42v-3.38c0-1.65-.65-3.21-1.78-4.6-1.7-2.07-4.47-3.78-7.93-4.99-3.45-1.21-7.6-1.9-12.05-1.91-5.94,0-11.33,1.24-15.26,3.28-1.97,1.02-3.58,2.24-4.71,3.62-1.13,1.38-1.78,2.94-1.78,4.6v3.38h-7.72c.06-3.66.81-7.31,2.23-10.74.65.27,1.36.41,2.07.41.96,0,1.93-.26,2.81-.79,1.67-1.02,2.59-2.8,2.59-4.62,0-.96-.26-1.93-.79-2.81-1.02-1.67-2.8-2.59-4.62-2.59-.96,0-1.93.26-2.81.79-1.67,1.02-2.59,2.8-2.59,4.62,0,.96.26,1.93.79,2.81h0c.43.71,1.01,1.28,1.66,1.7-1.56,3.74-2.36,7.73-2.36,11.72,0,7.77,2.96,15.54,8.89,21.46.96.96,1.98,1.84,3.02,2.64.89.77,1.94,1.48,3.12,2.11,1.25.67,2.66,1.25,4.18,1.73.03,0,.06,0,.08,0,.02,0,.04.01.07.01,0,0,.01,0,.02,0,.04,0,.08-.01.11-.02.03,0,.05-.01.08-.02.03-.01.06-.04.09-.06.02-.02.05-.03.07-.05.02-.02.04-.05.05-.08.02-.03.04-.06.05-.09,0,0,0-.01.01-.02,0-.03,0-.05,0-.08,0-.02.01-.05.01-.07v-11.82c0-.98.3-1.67.79-2.26.07-.08.16-.15.24-.23.74-.74,1.82-1.27,2.92-1.7.61-.24,1.22-.45,1.77-.68.31-.13.6-.26.87-.41.27.56.69,1.04,1.26,1.41.74.48,1.7.74,2.87.76.01,0,.02,0,.03,0h.16s.02,0,.03,0c1.16-.02,2.13-.28,2.87-.76.56-.36.98-.85,1.25-1.4.42.23.91.43,1.43.63,1.14.43,2.44.89,3.43,1.57.02.01.04.02.06.03.38.27.68.57.94.91.09.11.19.21.26.33.11.19.2.4.27.62.1.29.16.61.18.97,0,.07.01.14.01.21v11.69s.01.05.02.08c0,.03,0,.05,0,.08,0,0,0,.01,0,.02.01.03.03.06.05.09.02.02.03.05.05.07.02.02.05.04.07.06.03.02.05.04.08.05.03.01.05.02.08.02.04,0,.07.02.11.02,0,0,.01,0,.02,0,.03,0,.05-.01.08-.02.03,0,.06,0,.08-.01.55-.18,1.08-.38,1.59-.59,2.28-.92,4.21-2.07,5.66-3.42.36-.33.67-.68.97-1.03.48-.42.95-.86,1.41-1.32,5.93-5.93,8.89-13.7,8.89-21.46,0-3.72-.7-7.43-2.06-10.95,2.08-.77,3.53-2.76,3.53-5.04ZM10.66,28.95l-.43.26.43-.26c-.44-.72-.65-1.51-.65-2.29,0-1.49.75-2.94,2.11-3.77.72-.44,1.51-.65,2.29-.65,1.49,0,2.94.75,3.77,2.11.44.72.65,1.51.65,2.29,0,1.49-.75,2.94-2.11,3.77-.72.44-1.51.65-2.29.65-.57,0-1.14-.12-1.67-.33-.31-.13-.6-.29-.88-.48-.48-.34-.89-.77-1.22-1.3ZM68.17,43.39c-.11,1.93-.87,3.79-2.19,5.51-1.14,1.48-2.71,2.86-4.61,4.08v-9.59h6.8ZM20.41,35.04c1.53-1.87,4.15-3.52,7.48-4.68,3.33-1.16,7.37-1.85,11.72-1.85.04,0,.07,0,.1,0,.35,0,.69.02,1.04.03,5.34.15,10.16,1.32,13.66,3.13,1.88.97,3.38,2.12,4.4,3.37,1.02,1.25,1.56,2.58,1.56,3.96,0,1.17-.4,2.31-1.13,3.38-.23.34-.49.67-.79,1-.19.2-.38.4-.59.59-1.63,1.52-4.02,2.83-6.9,3.79-.24.08-.37.32-.32.56,0,.01,0,.02,0,.03v2.7c-.24-.07-.48-.15-.72-.22-.33-.09-.66-.19-1-.27-1.79-.45-3.69-.77-5.74-.94,0-.07-.01-.14-.01-.21.25-.22.48-.46.69-.73,1.01-1.27,1.62-3,1.62-4.9,0-.14,0-.27-.02-.41-.02-.34-.04-.67-.1-1,0-.03-.01-.05-.02-.08-.23-1.31-.75-2.49-1.49-3.42-.12-.15-.25-.29-.38-.43-.97-1.02-2.25-1.66-3.66-1.66-1.6,0-3.03.82-4.03,2.09-.75.95-1.28,2.16-1.5,3.5-.05.33-.08.66-.1,1,0,.14-.02.27-.02.41,0,1.9.61,3.63,1.62,4.9.15.19.32.37.49.54,0,.14-.01.27-.02.39-2.2.18-4.29.53-6.22,1.03-.34.09-.67.19-1,.28-.01,0-.02,0-.03,0v-2.58s0-.01,0-.02c0-.04-.01-.07-.02-.1,0-.03-.01-.06-.02-.09-.01-.03-.03-.05-.05-.08-.02-.03-.04-.06-.06-.08-.02-.02-.05-.03-.07-.05-.03-.02-.06-.04-.1-.05,0,0-.01,0-.02-.01-2.99-.95-5.46-2.28-7.16-3.82-.25-.23-.48-.46-.69-.69-.3-.33-.57-.66-.8-1-.74-1.08-1.13-2.21-1.13-3.38,0-1.38.54-2.71,1.56-3.96ZM36.56,48.08c-.57-.72-.98-1.64-1.21-2.67-.11-.51-.19-1.05-.19-1.61,0-1.69.54-3.21,1.4-4.28.86-1.08,2-1.71,3.25-1.71,1.11,0,2.13.5,2.95,1.37.1.11.2.22.3.35.63.79,1.08,1.82,1.28,2.98.07.42.12.85.12,1.3,0,.76-.12,1.48-.33,2.15-.24.81-.61,1.54-1.07,2.13-.86,1.08-2,1.71-3.25,1.71-1.25,0-2.39-.63-3.25-1.71ZM17.85,43.39v10.13c-2.3-1.35-4.16-2.92-5.47-4.62-1.33-1.73-2.08-3.58-2.19-5.51h7.66ZM10.56,47.97c.3.53.64,1.04,1.03,1.54,1.51,1.95,3.65,3.69,6.26,5.16v6.32c0,.74.14,1.45.38,2.14-4.14-4.35-6.71-9.64-7.67-15.16ZM21.6,66.17s-.09-.07-.13-.11c-1.7-1.55-2.62-3.27-2.62-5.07v-18.52c.19.31.39.62.62.92.39.5.83.98,1.33,1.43,1.78,1.61,4.25,2.94,7.18,3.91v20.93c-1.18-.41-2.27-.87-3.25-1.39-1.08-.62-2.12-1.33-3.13-2.1ZM33.78,52.96c-1.14.44-2.54.9-3.71,1.72-.02.01-.03.03-.05.04-.37.27-.7.59-1,.95-.01.01-.02.03-.03.04v-3.72s.02,0,.03,0c.33-.1.66-.19,1-.28,1.87-.5,3.9-.85,6.05-1.04-.07.29-.16.55-.24.76-.11.27-.22.47-.29.61l-.08.13c-.33.26-.94.53-1.67.8ZM42.24,53.83c-.56.37-1.37.6-2.44.6s-1.87-.24-2.44-.6c-.5-.33-.82-.75-1-1.26.24-.4.68-1.29.84-2.56.77.49,1.65.79,2.59.79.86,0,1.68-.25,2.4-.67.19,1.25.72,2.1,1.02,2.49-.18.49-.5.9-.98,1.21ZM49.91,54.98c-.31-.26-.65-.49-1-.69-.61-.35-1.25-.62-1.87-.87-.63-.25-1.24-.46-1.75-.67-.5-.2-.91-.41-1.15-.61-.07-.08-.5-.59-.78-1.47,1.98.18,3.83.5,5.55.94.34.09.67.19,1,.29.24.07.48.14.72.22v3.56s-.02-.03-.03-.04c-.21-.25-.45-.46-.69-.67ZM51.63,69.52v-20.92c2.83-.98,5.21-2.3,6.91-3.88.46-.42.86-.87,1.22-1.33.23-.3.43-.61.62-.92v18.52c0,1.39-.55,2.72-1.57,3.97-1.98,1.73-4.13,3.15-6.39,4.27-.26.1-.52.2-.78.3ZM61.16,62.62c.14-.53.22-1.07.22-1.63v-6.82c2.23-1.36,4.06-2.92,5.4-4.66.81-1.06,1.44-2.18,1.85-3.35-.66,5.95-3.16,11.73-7.46,16.46ZM66.41,31.26l-.15.03c-.13.01-.26.02-.38.02-2.26,0-4.19-1.73-4.39-4.03-.01-.13-.02-.26-.02-.38,0-2.26,1.73-4.19,4.03-4.39.13-.01.26-.02.38-.02,2.26,0,4.19,1.73,4.39,4.03.01.13.02.26.02.38,0,1.87-1.19,3.49-2.89,4.11-.31.12-.64.2-.99.24Z"></path><path class="cls-1" d="M21.29,31.42c.18,0,.35-.07.48-.2s.2-.3.2-.48-.07-.35-.2-.48-.3-.2-.48-.2-.35.07-.48.2-.2.3-.2.48.07.35.2.48.3.2.48.2Z"></path><path class="cls-1" d="M59.28,31.63c.18,0,.35-.07.48-.2s.2-.3.2-.48-.07-.35-.2-.48-.3-.2-.48-.2-.35.07-.48.2-.2.3-.2.48.07.35.2.48.3.2.48.2Z"></path><circle class="cls-1" cx="40.23" cy="24.06" r=".68"></circle><circle class="cls-1" cx="40.23" cy="20.69" r=".68"></circle></svg> 