<svg xmlns="http://www.w3.org/2000/svg" width="275.667" height="117.668" viewBox="0 0 275.667 117.668">
  <path id="Subtraction_9" data-name="Subtraction 9" d="M12529.1,22527.984v0h-275.667v-117.666H12529.1v117.668Zm-139.507-115.9a39.048,39.048,0,0,0-18.265,4.168,35.469,35.469,0,0,0-12.876,11.67,54.767,54.767,0,0,0-7.626,17.91,96.771,96.771,0,0,0-2.512,22.891c0,18.6,3.532,32.883,10.5,42.439,6.945,9.529,17.3,14.359,30.779,14.359a39.62,39.62,0,0,0,18.381-4.148,35.579,35.579,0,0,0,12.979-11.65,54.52,54.52,0,0,0,7.7-17.949,96.945,96.945,0,0,0,2.54-23.051,95.409,95.409,0,0,0-2.54-22.822,54.787,54.787,0,0,0-7.7-17.918,35.831,35.831,0,0,0-12.979-11.707A39.367,39.367,0,0,0,12389.6,22412.08Zm98.721,1.916h0l-47.362,69.123v17.916h47.843v22.564h18.08v-22.564h14.078V22485.2h-14.078V22414Zm-184.483,0h0l-47.355,69.123v17.916h47.836v22.564h18.081v-22.564h14.078V22485.2H12322.4V22414Zm85.763,95.844c-8.251,0-13.584-3.234-16.781-10.18-2.89-6.275-4.178-15.818-4.178-30.941a133.233,133.233,0,0,1,1.139-19.42c.85-5.613,2.2-9.885,4.142-13.061a15.5,15.5,0,0,1,6.218-6.117,22.984,22.984,0,0,1,20.075.553,17.021,17.021,0,0,1,6.5,7.707,43.415,43.415,0,0,1,3.266,12.717,142.05,142.05,0,0,1,.9,17.621,120.221,120.221,0,0,1-1.46,21.16c-1.1,6.07-2.875,10.557-5.421,13.719a14.818,14.818,0,0,1-5.94,4.68A20.8,20.8,0,0,1,12389.6,22509.84Zm68.479-24.324v0c1.144-1.641,2.328-3.324,3.474-4.953l.063-.09.091-.131c2.512-3.572,4.884-6.947,6.609-9.541l9.6-14.24a201.6,201.6,0,0,0,11.2-17.443c-.212,10.043-.316,16.637-.316,20.162v25.922h-16.8c-2.119,0-6.8.105-13.917.316Zm-184.478,0v0c1.148-1.648,2.338-3.342,3.488-4.98l.262-.371.008-.012c2.459-3.5,4.782-6.807,6.48-9.352l9.6-14.24a203.786,203.786,0,0,0,11.2-17.443c-.213,9.77-.322,16.553-.322,20.162v25.922h-16.8c-2.12,0-6.8.105-13.918.316Z" transform="translate(-12253.437 -22410.316)" fill="#fff"/>
</svg>
